<?xml version="1.0" standalone="no"?>
<!DOCTYPE svg PUBLIC "-//W3C//DTD SVG 1.1//EN" "http://www.w3.org/Graphics/SVG/1.1/DTD/svg11.dtd" >
<svg>
<metadata>
Created by FontForge 20090914 at Thu Jul  1 06:29:50 2021
 By www-data
Copyright 2018 The Roboto Slab Project Authors (https://github.com/googlefonts/robotoslab)
</metadata>
<defs>
<font id="RobotoSlab-ExtraBold" horiz-adv-x="0" >
  <font-face 
    font-family="Roboto Slab ExtraBold"
    font-weight="800"
    font-stretch="normal"
    units-per-em="2048"
    panose-1="0 0 0 0 0 0 0 0 0 0"
    ascent="1638"
    descent="-410"
    x-height="1082"
    cap-height="1456"
    bbox="-379.002 -555 2773 2146"
    underline-thickness="100"
    underline-position="-100"
    unicode-range="U+000D-U+FFFD"
  />
<missing-glyph horiz-adv-x="1038" 
d="M100 0v1456h838v-1456h-838zM154 54h730v1348h-730v-1348zM858 20l-738 1416h60l738 -1416h-60zM120 20l738 1416h60l-738 -1416h-60z" />
    <glyph glyph-name="fi" unicode="fi" horiz-adv-x="1368" 
d="M36 0l-0.00390625 190l153 31v637h-159v224h159v60c0 141.333 43.333 249.833 130 325.5s209.334 113.5 368.001 113.5c54.667 0 108.334 -5 161.001 -15s113.334 -24.667 182.001 -44l-44 -253c-49.333 14 -95.166 25 -137.499 33s-84.833 12 -127.5 12
c-70.667 0 -123.5 -14.833 -158.5 -44.5s-52.5 -72.167 -52.5 -127.5v-60h668v-861l153 -31v-190h-608v190l134 31v637h-347v-637l135 -31v-190h-609z" />
    <glyph glyph-name="fl" unicode="fl" horiz-adv-x="1443" 
d="M36 0l-0.00195312 190l153 31v637h-134v224h134v38c0 148 45.167 261.833 135.5 341.5s217.833 119.5 382.5 119.5c57.333 0 114 -5 170 -15s121 -25 195 -45h197v-1300l134 -31v-190h-589v190l134 31v1085c-39.333 8 -75.666 14.167 -108.999 18.5
s-66.666 6.5 -99.999 6.5c-76 0 -133.167 -18 -171.5 -54s-57.5 -88.333 -57.5 -157v-38h237v-224h-237v-637l135 -31v-190h-609z" />
    <glyph glyph-name=".notdef" horiz-adv-x="1038" 
d="M100 0v1456h838v-1456h-838zM154 54h730v1348h-730v-1348zM858 20l-738 1416h60l738 -1416h-60zM120 20l738 1416h60l-738 -1416h-60z" />
    <glyph glyph-name="CR" unicode="&#xd;" horiz-adv-x="500" 
 />
    <glyph glyph-name="space" unicode=" " horiz-adv-x="500" 
 />
    <glyph glyph-name="exclam" unicode="!" horiz-adv-x="515" 
d="M111 510v946h322v-946h-322zM111 0v272h322v-272h-322z" />
    <glyph glyph-name="quotedbl" unicode="&#x22;" horiz-adv-x="791" 
d="M130 1024v297v239h235v-265l-96 -271h-139zM476 1024v297v239h235v-265l-96 -271h-139z" />
    <glyph glyph-name="numbersign" unicode="#" horiz-adv-x="1183" 
d="M186 0l70 410h-225v178h255l45 272h-224v180h254l72 416h193l-70 -416h173l69 416h195l-71 -416h225v-180h-256l-47 -272h228v-178h-256l-70 -410h-193l70 410h-172l-70 -410h-195zM479 588h172l47 272h-172z" />
    <glyph glyph-name="dollar" unicode="$" horiz-adv-x="1106" 
d="M489 -216l0.00195312 198.996c-85.333 8.66699 -161.5 31.334 -228.5 68.001s-119.333 88.667 -157 156s-55.834 150.666 -54.501 249.999l2 5h314c0 -56.667 8.66699 -102.667 26 -138s41.166 -61.166 71.499 -77.499s65.166 -24.5 104.499 -24.5
c35.333 0 65 6.83301 89 20.5s42 32.667 54 57s18 52.833 18 85.5c0 35.333 -5.83301 65.5 -17.5 90.5s-31 47.333 -58 67s-63.5 38.834 -109.5 57.501c-100.667 38.667 -184 78.5 -250 119.5s-114.833 89 -146.5 144s-47.5 123.5 -47.5 205.5
c0 112.667 37 205.167 111 277.5s173.333 114.833 298 127.5v213h160v-218c118.667 -17.333 212.334 -66.166 281.001 -146.499s102 -184.166 100 -311.499v-6h-316c0 74.667 -14.833 131.334 -44.5 170.001s-69.167 58 -118.5 58c-51.333 0 -89.333 -15.333 -114 -46
s-37 -71 -37 -121c0 -31.333 5.5 -58.833 16.5 -82.5s30.167 -45.167 57.5 -64.5s64.666 -39 111.999 -59c100.667 -41.333 183.834 -83 249.501 -125s114.667 -90.333 147 -145s48.5 -122.334 48.5 -203.001c0 -115.333 -36.167 -208 -108.5 -278
s-169.833 -111.333 -292.5 -124v-201h-160z" />
    <glyph glyph-name="percent" unicode="%" horiz-adv-x="1420" 
d="M428 108l-151 78l711 1138l151 -78zM1058 -19c-68 0 -126.166 13.002 -174.499 39.002s-85.5 61.667 -111.5 107s-39 96.666 -39 153.999v76c0 57.333 12.667 108.666 38 153.999s62.166 81 110.499 107s106.5 39 174.5 39s126 -12.833 174 -38.5
s84.667 -61.167 110 -106.5s38 -97 38 -155v-76c0 -58 -12.5 -109.667 -37.5 -155s-61.333 -80.833 -109 -106.5s-105.5 -38.5 -173.5 -38.5zM1058 154.002c41.333 0 70 11.333 86 34s24 53.667 24 93v76c0 34.667 -9.5 64.167 -28.5 88.5s-46.833 36.5 -83.5 36.5
c-37.333 0 -65.5 -12.167 -84.5 -36.5s-28.5 -53.833 -28.5 -88.5v-76c0 -34.667 10.833 -64.5 32.5 -89.5s49.167 -37.5 82.5 -37.5zM364.001 800.002c-68.667 0 -127.169 12.833 -175.502 38.5s-85 61 -110 106s-37.5 96.5 -37.5 154.5v77c0 58 12.5 109.667 37.5 155
s61.333 81 109 107s105.834 39 174.501 39s126.834 -13 174.501 -39s84 -61.667 109 -107s37.5 -97 37.5 -155v-77c0 -58 -12.5 -109.5 -37.5 -154.5s-61.167 -80.333 -108.5 -106s-105 -38.5 -173 -38.5zM363.999 975.002c34.667 0 62 12 82 36s30 53.333 30 88v77
c0 35.333 -10 65.166 -30 89.499s-48 36.5 -84 36.5c-36.667 0 -64.667 -12.167 -84 -36.5s-29 -54.166 -29 -89.499v-77c0 -35.333 9.83301 -64.833 29.5 -88.5s48.167 -35.5 85.5 -35.5z" />
    <glyph glyph-name="ampersand" unicode="&#x26;" horiz-adv-x="1274" 
d="M512 -21c-96.667 0 -180.665 17.333 -251.998 52s-126.5 83 -165.5 145s-58.5 134 -58.5 216c0 74 19.167 138 57.5 192s96.833 109.667 175.5 167c4 3.33301 8.16699 6.5 12.5 9.5s8.5 6.16699 12.5 9.5c-44 60 -76.5 115.167 -97.5 165.5s-31.5 101.5 -31.5 153.5
c0 77.333 16.833 145.166 50.5 203.499s81 103.666 142 135.999s132.167 48.5 213.5 48.5c70.667 0 133 -15.5 187 -46.5s96 -72.5 126 -124.5s45 -110.333 45 -175c0 -65.333 -15.833 -126 -47.5 -182s-73.834 -102.667 -126.501 -140l-88 -61l256 -295
c22 38.667 39.5 80.334 52.5 125.001s19.5 92 19.5 142h231c0 -93.333 -10.833 -179.166 -32.5 -257.499s-55.167 -147.5 -100.5 -207.5l214 -250l-2 -5h-353l-75 85c-57.333 -36 -115.333 -62.667 -174 -80s-122.334 -26 -191.001 -26zM533.002 224
c31.333 0 62.833 3.50098 94.5 10.501s62.5 17.5 92.5 31.5l-282 321l-12 -8c-25.333 -28 -43 -55.333 -53 -82s-15 -55.334 -15 -86.001c0 -53.333 16.5 -97.833 49.5 -133.5s74.833 -53.5 125.5 -53.5zM525.002 917.001l68.999 44.001c37.333 24 62.5 48 75.5 72
s19.5 49.667 19.5 77c0 32 -11.167 60.167 -33.5 84.5s-51.166 36.5 -86.499 36.5c-40 0 -70.667 -13.167 -92 -39.5s-32 -59.833 -32 -100.5c0 -26.667 6.5 -53.834 19.5 -81.501s33.167 -58.5 60.5 -92.5z" />
    <glyph glyph-name="quotesingle" unicode="'" horiz-adv-x="445" 
d="M130 1024v297v239h235v-265l-96 -271h-139z" />
    <glyph glyph-name="parenleft" unicode="(" horiz-adv-x="692" 
d="M578 -446c-65.333 26 -127.833 68.667 -187.5 128s-112.834 132.833 -159.501 220.5s-83.334 187.5 -110.001 299.5s-40 233.667 -40 365v26c0 130 13.333 251 40 363s63.334 212 110.001 300s99.834 161.667 159.501 221s122.167 101.666 187.5 126.999l6 1l58 -156
c-42.667 -31.333 -82.167 -72.5 -118.5 -123.5s-68 -112 -95 -183s-48 -152.167 -63 -243.5s-22.5 -192.666 -22.5 -303.999v-30c0 -112.667 7.5 -214.5 22.5 -305.5s36 -172 63 -243s58.667 -132.167 95 -183.5s75.833 -93 118.5 -125l-58 -154h-6z" />
    <glyph glyph-name="parenright" unicode=")" horiz-adv-x="730" 
d="M136 -446l-59.999 154.001c42.667 32 82.167 73.667 118.5 125s68.166 112.5 95.499 183.5s48.5 152.167 63.5 243.5s22.5 193 22.5 305v30c0 111.333 -7.66699 212.5 -23 303.5s-36.5 172.167 -63.5 243.5s-58.667 132.833 -95 184.5s-75.833 93.5 -118.5 125.5l60 152
h6c66.667 -24.667 130.834 -67.5 192.501 -128.5s116.667 -136.333 165 -226s86.666 -190 114.999 -301s42.5 -229.5 42.5 -355.5v-26c0 -126.667 -14.167 -245.834 -42.5 -357.501s-66.666 -212 -114.999 -301s-103.333 -164 -165 -225s-125.834 -104.167 -192.501 -129.5
h-6z" />
    <glyph glyph-name="asterisk" unicode="*" horiz-adv-x="901" 
d="M620 571l-173 290l-172 -282l-158 110l211 272l-304 89l59 184l298 -126l-20 348h196l-24 -354l291 122l58 -187l-306 -89l202 -264z" />
    <glyph glyph-name="plus" unicode="+" horiz-adv-x="1084" 
d="M392 146v400h-351v275h351v385h302v-385h345v-275h-345v-400h-302z" />
    <glyph glyph-name="comma" unicode="," horiz-adv-x="533" 
d="M223 -381l-154.001 80.001c24.667 46 43.5 93.833 56.5 143.5s19.5 106.167 19.5 169.5v238h282v-221c0 -82.667 -20.167 -159.334 -60.5 -230.001s-88.166 -130.667 -143.499 -180z" />
    <glyph glyph-name="hyphen" unicode="-" horiz-adv-x="820" 
d="M124 502v247h587v-247h-587z" />
    <glyph glyph-name="period" unicode="." horiz-adv-x="531" 
d="M124 0v273h320v-273h-320z" />
    <glyph glyph-name="slash" unicode="/" horiz-adv-x="787" 
d="M-30 -125l598 1581h301l-599 -1581h-300z" />
    <glyph glyph-name="zero" unicode="0" horiz-adv-x="1170" 
d="M593 -21c-155.333 0 -278.166 50.001 -368.499 150.001s-135.5 247 -135.5 441v315c0 194 45.167 341.167 135.5 441.5s212.5 150.5 366.5 150.5c153.333 0 275.166 -50.167 365.499 -150.5s135.5 -247.5 135.5 -441.5v-315c0 -194.667 -44.833 -341.834 -134.5 -441.501
s-211.167 -149.5 -364.5 -149.5zM593 224.001c58 0 102.5 25.165 133.5 75.498s46.5 132.833 46.5 247.5v363c0 112.667 -15.833 194.334 -47.5 245.001s-76.5 76 -134.5 76c-59.333 0 -104.5 -25.167 -135.5 -75.5s-46.5 -132.166 -46.5 -245.499v-363
c0 -114.667 15.5 -197.167 46.5 -247.5s76.833 -75.5 137.5 -75.5z" />
    <glyph glyph-name="one" unicode="1" horiz-adv-x="924" 
d="M47 0v190l253 31v953l-255 2v180l576 100v-1235l252 -31v-190h-826z" />
    <glyph glyph-name="two" unicode="2" horiz-adv-x="1137" 
d="M71 0v207.999l471 501c44.667 50.667 80 95.167 106 133.5s44.667 73.333 56 105s17 62.834 17 93.501c0 52.667 -14.5 97 -43.5 133s-71.833 54 -128.5 54c-60.667 0 -106.334 -20.667 -137.001 -62s-46 -97.666 -46 -168.999h-314l-2 6
c-2 88.667 17.167 168.834 57.5 240.501s98.5 128.5 174.5 170.5s165.667 63 269 63c102.667 0 190.667 -18 264 -54s129.666 -86.333 168.999 -151s59 -140.334 59 -227.001c0 -58.667 -10.167 -113.334 -30.5 -164.001s-53.166 -104.5 -98.499 -161.5
s-104.666 -124.167 -177.999 -201.5l-251 -268l2 -5h333l15 129h245v-374h-1009z" />
    <glyph glyph-name="three" unicode="3" horiz-adv-x="1114" 
d="M562 -21c-94.667 0 -180.998 16.498 -258.998 49.498s-139.833 81 -185.5 144s-67.5 139.833 -65.5 230.5l1 6h312c0 -34.667 8 -66 24 -94s38.667 -50.167 68 -66.5s64.333 -24.5 105 -24.5c62 0 111.167 17.833 147.5 53.5s54.5 83.5 54.5 143.5
c0 62 -18.833 111.167 -56.5 147.5s-93.5 54.5 -167.5 54.5h-154v239h162c42.667 0 78.334 7.66699 107.001 23s50.167 36.833 64.5 64.5s21.5 60.5 21.5 98.5c0 54.667 -15.333 98.834 -46 132.501s-75 50.5 -133 50.5c-34.667 0 -65.167 -6.83301 -91.5 -20.5
s-47 -32.5 -62 -56.5s-22.5 -52.333 -22.5 -85h-312l-2 6c-2.66699 78.667 16.666 148.334 57.999 209.001s99.166 108 173.499 142s159.166 51 254.499 51c152 0 274.167 -35.833 366.5 -107.5s138.5 -173.167 138.5 -304.5c0 -70 -19 -131.667 -57 -185
s-94.667 -97.666 -170 -132.999c78.667 -28.667 139.834 -72.334 183.501 -131.001s65.5 -128 65.5 -208c0 -88.667 -22.667 -165 -68 -229s-107.333 -113.333 -186 -148s-168.334 -52 -269.001 -52z" />
    <glyph glyph-name="four" unicode="4" horiz-adv-x="1149" 
d="M472 0v190l154 31v130h-575l-19 153l594 952h321v-898h153v-207h-153v-130l152 -31v-190h-627zM325 558h301v476l-6 2l-25 -39z" />
    <glyph glyph-name="five" unicode="5" horiz-adv-x="1096" 
d="M556 -21c-90.667 0 -174.331 16.8311 -250.998 50.498s-137.667 81.667 -183 144s-67 135.833 -65 220.5l2 4l313 19c0 -60.667 16.833 -108 50.5 -142s78.167 -51 133.5 -51c63.333 0 109.166 23 137.499 69s42.5 103.667 42.5 173c0 80.667 -15.333 145 -46 193
s-78.667 72 -144 72c-48 0 -86 -9.83301 -114 -29.5s-47.667 -45.167 -59 -76.5l-288 17l84 814h859v-345h-190l-27 92h-379l-40 -312c18 12.667 38.5 23.834 61.5 33.501s48.167 17.5 75.5 23.5s55.666 9 84.999 9c94.667 2 175 -16.167 241 -54.5
s116 -94.166 150 -167.499s51 -162.333 51 -267c0 -92 -19.167 -175 -57.5 -249s-94.833 -132.5 -169.5 -175.5s-165.667 -64.5 -273 -64.5z" />
    <glyph glyph-name="six" unicode="6" horiz-adv-x="1144" 
d="M610 -21c-104.667 0 -196.671 23.499 -276.004 70.499s-141.333 114.667 -186 203s-67 193.5 -67 315.5v275c0 132 25.5 245.333 76.5 340s121.333 167.334 211 218.001s193.167 76 310.5 76c56 0 106.833 -5 152.5 -15s93.834 -25.667 144.501 -47l-55 -233
c-37.333 12 -75.666 22.167 -114.999 30.5s-78.666 12.5 -117.999 12.5c-94 0 -164 -29.667 -210 -89s-69 -145.666 -69 -258.999l3 -4c30.667 33.333 70.667 59.5 120 78.5s104 28.5 164 28.5c87.333 0 162.333 -21.167 225 -63.5s110.334 -100.833 143.001 -175.5
s49 -160.334 49 -257.001s-21.5 -183 -64.5 -259s-102.333 -136 -178 -180s-162.5 -66 -260.5 -66zM602.996 223.999c38 0 70.998 11.999 98.998 35.999s50 56 66 96s24 84.667 24 134c0 72.667 -17.667 131.834 -53 177.501s-86 68.5 -152 68.5
c-25.333 0 -49.666 -3.16699 -72.999 -9.5s-44.5 -15.5 -63.5 -27.5s-35.167 -26.333 -48.5 -43v-91c0 -109.333 18.333 -193.5 55 -252.5s85.334 -88.5 146.001 -88.5z" />
    <glyph glyph-name="seven" unicode="7" horiz-adv-x="1101" 
d="M321 0l13.9971 145.001c14.667 140 40.334 273 77.001 399s85.334 244.667 146.001 356s133.334 214.666 218.001 309.999h-484l-10 -137h-242v383h1043v-246c-74.667 -87.333 -136.834 -171.5 -186.501 -252.5s-90 -162.833 -121 -245.5s-55.667 -170.167 -74 -262.5
s-33.166 -193.833 -44.499 -304.5l-14 -145h-322z" />
    <glyph glyph-name="eight" unicode="8" horiz-adv-x="1110" 
d="M564 -21c-100 0 -187.834 16.167 -263.501 48.5s-134.834 80 -177.501 143s-64 139.167 -64 228.5c0 78 21.5 146.667 64.5 206s102.167 106 177.5 140c-66.667 32 -118.5 75.833 -155.5 131.5s-55.5 119.5 -55.5 191.5c0 86.667 19.667 160.5 59 221.5
s94.333 107.5 165 139.5s153.334 48 248.001 48c94 0 176.5 -16 247.5 -48s126.333 -78.5 166 -139.5s59.5 -134.833 59.5 -221.5c0 -72 -18.833 -135.833 -56.5 -191.5s-89.5 -99.5 -155.5 -131.5c76 -34 135.333 -80.833 178 -140.5s64 -128.167 64 -205.5
c0 -89.333 -21 -165.5 -63 -228.5s-100.667 -110.667 -176 -143s-162.666 -48.5 -261.999 -48.5zM563.999 224c36 0 67.499 8.16699 94.499 24.5s48 39.5 63 69.5s22.5 65.333 22.5 106s-7.66699 75.834 -23 105.501s-36.666 52.5 -63.999 68.5s-59 24 -95 24
c-36.667 0 -68.5 -8 -95.5 -24s-48.167 -38.833 -63.5 -68.5s-23 -64.834 -23 -105.501c0 -62 16.667 -110.833 50 -146.5s78 -53.5 134 -53.5zM563.998 869c31.333 0 58 7.49902 80 22.499s39 36.167 51 63.5s18 60 18 98c0 36 -6 67.333 -18 94
s-29.167 47.334 -51.5 62.001s-49.5 22 -81.5 22c-48 0 -85 -15.833 -111 -47.5s-39 -75.167 -39 -130.5c0 -57.333 13 -102.333 39 -135s63.667 -49 113 -49z" />
    <glyph glyph-name="nine" unicode="9" horiz-adv-x="1137" 
d="M498 -21c-50.667 0 -103.003 5.16797 -157.003 15.501s-104.333 25.5 -151 45.5l34 231c42.667 -14.667 86.5 -26.167 131.5 -34.5s87.167 -12.5 126.5 -12.5c81.333 0 145.5 27 192.5 81s70.833 136 71.5 246l-1 28c-34.667 -41.333 -74.5 -72.333 -119.5 -93
s-94.167 -31 -147.5 -31c-83.333 0 -156.666 20.167 -219.999 60.5s-112.666 98 -147.999 173s-53 164.167 -53 267.5c0 98 21.333 186.167 64 264.5s101.834 140.666 177.501 186.999s162.167 69.5 259.5 69.5c98.667 0 185.834 -23.667 261.501 -71s135 -115 178 -203
s64.5 -193.667 64.5 -317v-333c0 -117.333 -24.333 -219 -73 -305s-115.334 -152.333 -200.001 -199s-181.667 -70 -291 -70zM560.997 686.001c36 0 69.833 7.16895 101.5 21.502s57.834 34.166 78.501 59.499v157c0 100 -16.833 176.167 -50.5 228.5
s-77.834 78.5 -132.501 78.5c-36 0 -67.5 -12.667 -94.5 -38s-48 -58.833 -63 -100.5s-22.5 -87.167 -22.5 -136.5c0 -54.667 6.66699 -102.334 20 -143.001s33.333 -72 60 -94s61 -33 103 -33z" />
    <glyph glyph-name="colon" unicode=":" horiz-adv-x="466" 
d="M74 0v273h320v-273h-320zM74 808v273h320v-273h-320z" />
    <glyph glyph-name="semicolon" unicode=";" horiz-adv-x="462" 
d="M72 808v273h320v-273h-320zM175 -381l-154.001 80.001c24.667 46 43.5 93.833 56.5 143.5s19.5 106.167 19.5 169.5v238h282v-221c0 -82.667 -20.167 -159.334 -60.5 -230.001s-88.166 -130.667 -143.499 -180z" />
    <glyph glyph-name="less" unicode="&#x3c;" horiz-adv-x="1011" 
d="M928 57l-875 364v250l875 363v-294l-511 -182l-44 -12v-6l44 -10l511 -179v-294z" />
    <glyph glyph-name="equal" unicode="=" horiz-adv-x="1122" 
d="M115 745v248h916v-248h-916zM115 308v250h916v-250h-916z" />
    <glyph glyph-name="greater" unicode="&#x3e;" horiz-adv-x="1022" 
d="M98 51v293l500 183l55 13v6l-55 15l-500 176v292l876 -363v-251z" />
    <glyph glyph-name="question" unicode="?" horiz-adv-x="996" 
d="M325 416c0 48.667 3.33398 89.6689 10.001 123.002s17.5 63 32.5 89s36 51.667 63 77s61.167 54 102.5 86c30.667 23.333 57 49 79 77s39 57.5 51 88.5s18 63.167 18 96.5c0 53.333 -14.833 95.166 -44.5 125.499s-71.167 45.5 -124.5 45.5
c-44.667 0 -82.834 -12.167 -114.501 -36.5s-47.834 -61.833 -48.501 -112.5h-313l-2 6c-1.33301 84.667 18 156.5 58 215.5s96.167 103.833 168.5 134.5s155.833 46 250.5 46c154 0 274.333 -37.333 361 -112s130 -175.667 130 -303
c0 -58.667 -11.5 -112.834 -34.5 -162.501s-54.167 -96 -93.5 -139s-83.666 -84.167 -132.999 -123.5c-26.667 -20 -46.667 -40 -60 -60s-22.5 -42.833 -27.5 -68.5s-7.5 -56.5 -7.5 -92.5h-321zM325.001 0.00195312v271h319v-271h-319z" />
    <glyph glyph-name="at" unicode="@" horiz-adv-x="1802" 
d="M878 -453c-177.333 0 -328.331 37.4941 -452.998 112.494s-218.334 182 -281.001 321s-90.334 304.833 -83.001 497.5c8 190.667 49.333 356 124 496s177.334 248.333 308.001 325s283.667 115 459 115c171.333 0 316.833 -36 436.5 -108
s209.834 -174.167 270.501 -306.5s87.667 -289.166 81 -470.499c-4 -101.333 -24.333 -193.666 -61 -276.999s-89.167 -149.666 -157.5 -198.999s-151.833 -74 -250.5 -74c-65.333 0 -118.5 14.833 -159.5 44.5s-69.5 71.5 -85.5 125.5
c-57.333 -110.667 -142.333 -166 -255 -166c-98 0 -172.667 40 -224 120s-70.333 188 -57 324c11.333 108.667 35.166 203.834 71.499 285.501s86.666 145.5 150.999 191.5s144.166 69 239.499 69c60 0 114 -8.5 162 -25.5s102 -43.833 162 -80.5l2 -4l-51 -570
c-2 -39.333 -0.5 -70.5 4.5 -93.5s14 -39.333 27 -49s29.5 -14.5 49.5 -14.5c65.333 0 120 36.5 164 109.5s68.667 167.5 74 283.5c10.667 224 -34.666 399.667 -135.999 527s-255.333 191 -462 191c-134.667 0 -251.167 -31.167 -349.5 -93.5
s-175.5 -151.166 -231.5 -266.499s-87.333 -251.666 -94 -408.999c-8 -154.667 11 -288 57 -400s116 -198.333 210 -259s208 -91 342 -91c56 0 114.333 6.5 175 19.5s113 29.167 157 48.5l37 -160c-44 -28 -100.5 -49.833 -169.5 -65.5s-136.833 -23.5 -203.5 -23.5z
M847.002 167.994c30 0 58.8301 9 86.4971 27s52.834 51 75.501 99c0.666992 3.33301 1.33398 7.33301 2.00098 12s1.33398 12.667 2.00098 24l40 440c-13.333 5.33301 -27.5 9.5 -42.5 12.5s-30.833 4.5 -47.5 4.5c-69.333 0 -122.5 -30.667 -159.5 -92
s-61.167 -154.333 -72.5 -279c-7.33301 -81.333 -1.33301 -143 18 -185s52 -63 98 -63z" />
    <glyph glyph-name="A" unicode="A" horiz-adv-x="1506" 
d="M32 0v190l103 15l449 1251h339l448 -1251l103 -15v-190h-520v190l98 18l-54 179h-490l-53 -179l97 -18v-190h-520zM579 618h346l-155 470l-16 47h-6l-16 -52z" />
    <glyph glyph-name="B" unicode="B" horiz-adv-x="1351" 
d="M48 0l0.000976562 189.999l153 31v1013l-153 31v191h153h500c177.333 0 315.666 -33.5 414.999 -100.5s149 -166.833 149 -299.5c0 -68 -17.167 -128.833 -51.5 -182.5s-85.166 -94.167 -152.499 -121.5c58 -12.667 105.833 -34.667 143.5 -66
s65.667 -69.166 84 -113.499s27.5 -92.5 27.5 -144.5c0 -140.667 -46.833 -247.167 -140.5 -319.5s-227.834 -108.5 -402.501 -108.5h-725zM523.001 244.999l250 -0.000976562c73.333 0 128.833 15.333 166.5 46s56.5 76.334 56.5 137.001c0 45.333 -7.16699 83 -21.5 113
s-36.333 52.667 -66 68s-68.5 23 -116.5 23h-269v-387zM523.001 848.998h176.001c80 0 140.833 14.667 182.5 44s62.5 73 62.5 131c0 64 -20.333 111 -61 141s-101.334 45 -182.001 45h-178v-361z" />
    <glyph glyph-name="C" unicode="C" horiz-adv-x="1330" 
d="M752 -21c-140 0 -263.335 28.833 -370.002 86.5s-189.667 140 -249 247s-89 235.5 -89 385.5v59c0 140 27.833 264.167 83.5 372.5s135.5 193.333 239.5 255s227.333 92.5 370 92.5c100 0 194.5 -13.667 283.5 -41s170.5 -72 244.5 -134v-363h-237l-32 218
c-22.667 15.333 -46.667 28.666 -72 39.999s-52.666 20 -81.999 26s-61 9 -95 9c-78 0 -145.667 -19 -203 -57s-101.5 -92.167 -132.5 -162.5s-46.5 -154.833 -46.5 -253.5v-61c0 -95.333 16 -178.666 48 -249.999s77.5 -126.666 136.5 -165.999s128.167 -59 207.5 -59
c40.667 0 81.667 4.5 123 13.5s80 20.833 116 35.5l33 205h236v-357c-57.333 -38.667 -129.666 -71.834 -216.999 -99.501s-186 -41.5 -296 -41.5z" />
    <glyph glyph-name="D" unicode="D" horiz-adv-x="1448" 
d="M48 0v190l155 35v1004l-155 36v191h155h505c131.333 0 247 -30.5 347 -91.5s178.333 -145.333 235 -253s85 -231.5 85 -371.5v-25c0 -139.333 -28 -262.833 -84 -370.5s-134 -192 -234 -253s-215.667 -91.5 -347 -91.5h-662zM524 245l170 0.00195312
c77.333 0 142.5 19.833 195.5 59.5s93.333 95 121 166s41.5 152.5 41.5 244.5v26c0 93.333 -13.833 175.166 -41.5 245.499s-68 125.166 -121 164.499s-118.167 59 -195.5 59h-170v-965z" />
    <glyph glyph-name="E" unicode="E" horiz-adv-x="1308" 
d="M48 0v190l153 31v1013l-153 31v191h1147v-407h-245l-11 160h-416v-333h478v-247h-478v-382h438l11 166h241v-413h-1165z" />
    <glyph glyph-name="F" unicode="F" horiz-adv-x="1268" 
d="M48 0v190l153 31v1013l-153 31v191h1179v-414h-245l-9 166h-450v-369h502v-246h-502v-372l153 -31v-190h-628z" />
    <glyph glyph-name="G" unicode="G" horiz-adv-x="1382" 
d="M732 -21c-148 0 -273.665 29.667 -376.998 89s-182.166 141.833 -236.499 247.5s-81.5 227.834 -81.5 366.501v58c0 145.333 27 273.166 81 383.499s131.5 196.833 232.5 259.5s221.5 94 361.5 94c102 0 201 -14.833 297 -44.5s180 -74.834 252 -135.501v-332h-233
l-47 190c-24.667 22.667 -58.334 41.334 -101.001 56.001s-91.334 22 -146.001 22c-80.667 0 -149.167 -20.667 -205.5 -62s-99.166 -98.833 -128.499 -172.5s-44 -159.167 -44 -256.5v-60c0 -93.333 15 -174.333 45 -243s73.667 -122 131 -160s127.666 -57 210.999 -57
c46.667 0 91.167 4.66699 133.5 14s76.166 20 101.499 32v218l-186 18v223h508v-596c-71.333 -48.667 -154.5 -86.167 -249.5 -112.5s-201.167 -39.5 -318.5 -39.5z" />
    <glyph glyph-name="H" unicode="H" horiz-adv-x="1606" 
d="M48 0v190l153 31v1013l-153 31v191h628v-191l-153 -31v-394h561v394l-153 31v191h153h321h153v-191l-153 -31v-1013l153 -31v-190h-627v190l153 31v372h-561v-372l153 -31v-190h-628z" />
    <glyph glyph-name="I" unicode="I" horiz-adv-x="723" 
d="M48 0v190l153 31v1013l-153 31v191h627v-191l-153 -31v-1013l153 -31v-190h-627z" />
    <glyph glyph-name="J" unicode="J" horiz-adv-x="1212" 
d="M568 -21c-107.333 0 -200.833 17.6689 -280.5 53.002s-142 89.166 -187 161.499s-69.5 164.5 -73.5 276.5l2 6h300c6 -94.667 27 -159.5 63 -194.5s82.667 -52.5 140 -52.5c34.667 0 66.5 7.66699 95.5 23s52.5 39 70.5 71s27 72.667 27 122v789l-198 32v190h672v-191
l-154 -31v-789c0 -96 -18.667 -178.833 -56 -248.5s-91.333 -123.334 -162 -161.001s-157 -56.5 -259 -56.5z" />
    <glyph glyph-name="K" unicode="K" horiz-adv-x="1559" 
d="M446 337l-164 189l719 725l1 3l-154 11v191h639v-191l-137 -28zM48 0v190l153 31v1013l-153 31v191h617v-191l-142 -31v-1013l142 -31v-190h-617zM880 0v190l141 11l1 1l-360 494l219 205l513 -686l146 -25v-190h-660z" />
    <glyph glyph-name="L" unicode="L" horiz-adv-x="1197" 
d="M48 0v190l153 31v1013l-153 31v191h153h322h180v-191l-180 -31v-988h378l11 209h245v-455h-1109z" />
    <glyph glyph-name="M" unicode="M" horiz-adv-x="2092" 
d="M44 0v190l152 31v1013l-152 31v191h152h485l374 -987h6l364 987h633v-191l-154 -31v-1013l154 -31v-190h-628v190l160 31v235l7 670l-6 1l-424 -1117h-248l-431 1106l-7 -1l21 -621v-273l170 -31v-190h-628z" />
    <glyph glyph-name="N" unicode="N" horiz-adv-x="1607" 
d="M47 0v190l153 31v1013l-153 31v191h153h327l609 -971l6 1v748l-189 31v191h475h153v-191l-153 -31v-1234h-315l-621 956l-6 -1v-734l190 -31v-190h-629z" />
    <glyph glyph-name="O" unicode="O" horiz-adv-x="1476" 
d="M738 -21c-99.333 0 -190.169 18.333 -272.502 55s-153.666 88.334 -213.999 155.001s-106.666 144.834 -138.999 234.501s-48.5 187.5 -48.5 293.5v23c0 105.333 16.167 202.666 48.5 291.999s78.5 167.333 138.5 234s131 118.5 213 155.5s172.667 55.5 272 55.5
s190.333 -18.5 273 -55.5s154.667 -88.833 216 -155.5s108.833 -144.667 142.5 -234s50.5 -186.666 50.5 -291.999v-23c0 -106 -16.833 -203.833 -50.5 -293.5s-81 -167.834 -142 -234.501s-133 -118.334 -216 -155.001s-173.5 -55 -271.5 -55zM737.997 225
c78 0 143.668 20.499 197.001 61.499s93.833 98.333 121.5 172s41.5 159.834 41.5 258.501v25c0 96.667 -14 181.5 -42 254.5s-68.667 130.167 -122 171.5s-119.333 62 -198 62c-79.333 0 -145 -20.333 -197 -61s-90.667 -97.5 -116 -170.5s-38 -158.5 -38 -256.5v-25
c0 -98 12.833 -184 38.5 -258s64.667 -131.5 117 -172.5s118.166 -61.5 197.499 -61.5z" />
    <glyph glyph-name="P" unicode="P" horiz-adv-x="1333" 
d="M48 0v190.002l153 31v1013l-153 31v191h153h547c114 0 212.5 -20 295.5 -60s147 -95.333 192 -166s67.5 -153.334 67.5 -248.001s-22.5 -177.334 -67.5 -248.001s-109 -125.667 -192 -165s-181.5 -59 -295.5 -59h-225v-289l153 -31v-190h-628zM523 757.002h225
c76.667 0 134.667 20.833 174 62.5s59 95.167 59 160.5c0 66.667 -19.667 121.667 -59 165s-97.333 65 -174 65h-225v-453z" />
    <glyph glyph-name="Q" unicode="Q" horiz-adv-x="1471" 
d="M1311 -292l-429.996 284c-23.333 -4 -46.833 -7.16699 -70.5 -9.5s-46.834 -3.5 -69.501 -3.5c-100 0 -191.333 18.333 -274 55s-153.834 88.167 -213.501 154.5s-105.834 144.333 -138.501 234s-49 187.834 -49 294.501v23c0 105.333 16.333 202.833 49 292.5
s78.834 167.834 138.501 234.501s130.667 118.334 213 155.001s173.166 55 272.499 55c98.667 0 189.5 -18.333 272.5 -55s155.167 -88.334 216.5 -155.001s108.666 -144.834 141.999 -234.501s50 -187.167 50 -292.5v-23c0 -124.667 -25 -239.334 -75 -344.001
s-115.333 -190 -196 -256l315 -190zM741.004 225c78.667 0 144.667 20.499 198 61.499s93.666 98.333 120.999 172s41 159.834 41 258.501v25c0 96.667 -14 181.5 -42 254.5s-68.667 130.167 -122 171.5s-119.333 62 -198 62c-80 0 -146 -20.333 -198 -61
s-90.667 -97.5 -116 -170.5s-38 -158.5 -38 -256.5v-25c0 -98 13 -184 39 -258s65.333 -131.5 118 -172.5s118.334 -61.5 197.001 -61.5z" />
    <glyph glyph-name="R" unicode="R" horiz-adv-x="1415" 
d="M48 0v190l153 31v1013l-153 31v192h703c113.333 0 211.333 -18 294 -54s146.167 -87 190.5 -153s66.5 -144.667 66.5 -236c0 -85.333 -22.333 -163.333 -67 -234s-106 -126.667 -184 -168s-167.667 -62 -269 -62l-259 1v-330l153 -31v-190h-628zM977 0l-220 598l284 85
l195 -462l131 -31v-190h-390zM523 799h226.999c76 0 133.667 16.667 173 50s59 82 59 146c0 65.333 -19.667 117.5 -59 156.5s-96.666 58.5 -171.999 58.5h-228v-411z" />
    <glyph glyph-name="S" unicode="S" horiz-adv-x="1259" 
d="M663 -21c-112.667 0 -213.998 11.6689 -303.998 35.002s-179 65.333 -267 126v366h248l31 -201c25.333 -24.667 64.666 -45 117.999 -61s111.333 -24 174 -24c49.333 0 90.5 6.33301 123.5 19s58 31.167 75 55.5s25.5 53.166 25.5 86.499c0 32 -7.83301 60.333 -23.5 85
s-41.334 47.667 -77.001 69s-83.834 42.666 -144.501 63.999c-120 36.667 -219 75.5 -297 116.5s-136.167 89.667 -174.5 146s-57.5 125.166 -57.5 206.499c0 80 22.5 150.167 67.5 210.5s107 107.833 186 142.5s169.5 52.667 271.5 54
c116 2.66699 218.333 -9.66602 307 -36.999s166.334 -66.666 233.001 -117.999v-340h-240l-39 198c-24 13.333 -57.333 25.333 -100 36s-89.334 16 -140.001 16c-44 0 -82.833 -6.16699 -116.5 -18.5s-60.167 -30.5 -79.5 -54.5s-29 -53.667 -29 -89
c0 -28.667 8.16699 -54.334 24.5 -77.001s44.833 -44.5 85.5 -65.5s97 -44.167 169 -69.5c162.667 -46.667 286.334 -106.667 371.001 -180s127 -171 127 -293c0 -84.667 -23 -157.167 -69 -217.5s-110 -106.5 -192 -138.5s-177.667 -48 -287 -48z" />
    <glyph glyph-name="T" unicode="T" horiz-adv-x="1384" 
d="M376 0v190l154 31v987h-245l-13 -166h-242v414h1325v-414h-244l-13 166h-246v-987l154 -31v-190h-630z" />
    <glyph glyph-name="U" unicode="U" horiz-adv-x="1565" 
d="M782 -21c-120 0 -225.167 19.998 -315.5 59.998s-160.333 98.667 -210 176s-74.5 171 -74.5 281v738l-152 31v191h627v-191l-153 -31v-738c0 -61.333 11 -112.166 33 -152.499s53.667 -70.333 95 -90s91 -29.5 149 -29.5c60 0 110.833 9.83301 152.5 29.5
s73.5 49.667 95.5 90s33 91.166 33 152.499v738l-152 31v191h627v-191l-153 -31v-738c0 -109.333 -25.333 -202.666 -76 -279.999s-121 -136.166 -211 -176.499s-195 -60.5 -315 -60.5z" />
    <glyph glyph-name="V" unicode="V" horiz-adv-x="1544" 
d="M620 0l-462 1249l-133 16v191h616v-191l-131 -20l273 -839l18 -68h6l18 66l269 841l-154 20v191h581v-191l-138 -16l-423 -1249h-340z" />
    <glyph glyph-name="W" unicode="W" horiz-adv-x="2224" 
d="M516 0l-336 1250l-157 15v191h621v-191l-160 -23l165 -680l27 -111l6 -1l31 113l286 893h229l299 -926l28 -89h6l24 89l173 712l-166 23v191h610v-191l-148 -15l-346 -1250h-289l-263 802l-33 112h-6l-39 -117l-267 -797h-295z" />
    <glyph glyph-name="X" unicode="X" horiz-adv-x="1510" 
d="M22 0v190l128 25l399 501l-379 523l-115 26v191h599v-191l-139 -13l228 -320l232 320l-135 13v191h588v-191l-128 -26l-365 -489l412 -534l141 -26v-190h-616v190l121 12l-247 338l-254 -338l118 -12v-190h-588z" />
    <glyph glyph-name="Y" unicode="Y" horiz-adv-x="1522" 
d="M447 0v190l153 31v269l-427 755l-146 20v191h605v-191l-104 -16l221 -433l22 -48h8l23 46l251 435l-155 16v191h593v-191l-148 -20l-423 -730v-294l154 -31v-190h-627z" />
    <glyph glyph-name="Z" unicode="Z" horiz-adv-x="1235" 
d="M69 0v206l696 1003h-406l-24 -186h-243l15 433h1058v-198l-698 -1012h471l27 179h241l-23 -425h-1114z" />
    <glyph glyph-name="bracketleft" unicode="[" horiz-adv-x="604" 
d="M134 -344v2044h447v-235h-126v-1573h126v-236h-447z" />
    <glyph glyph-name="backslash" unicode="\" horiz-adv-x="858" 
d="M612 -125l-608 1581h320l608 -1581h-320z" />
    <glyph glyph-name="bracketright" unicode="]" horiz-adv-x="588" 
d="M21 -344v236h129v1573h-129v235h448v-2044h-448z" />
    <glyph glyph-name="asciicircum" unicode="^" horiz-adv-x="890" 
d="M37 729l299 727h236l300 -727h-247l-165 411l-5 23h-6l-4 -23l-162 -411h-246z" />
    <glyph glyph-name="underscore" unicode="_" horiz-adv-x="1071" 
d="M83 -196v196h907v-196h-907z" />
    <glyph glyph-name="grave" unicode="`" horiz-adv-x="619" 
d="M579 1287h-7h-254l-278 267l2 6h333z" />
    <glyph glyph-name="a" unicode="a" horiz-adv-x="1160" 
d="M426 -21c-106.667 0 -192.168 29.3291 -256.501 87.9961s-96.5 137.334 -96.5 236.001c0 67.333 18.167 127 54.5 179s90.833 92.667 163.5 122s163 44 271 44h129v72c0 47.333 -13.833 86.833 -41.5 118.5s-69.834 47.5 -126.501 47.5
c-27.333 0 -52.166 -3.5 -74.499 -10.5s-42.5 -16.5 -60.5 -28.5l-23 -140h-229l-4 290c58.667 30 121.334 55 188.001 75s141 30 223 30c144 0 258.167 -33.333 342.5 -100s126.5 -162 126.5 -286v-422c0 -15.333 0.166992 -30.166 0.5 -44.499
s1.83301 -28.166 4.5 -41.499l114 -18v-190h-385c-8 15.333 -16.5 33.333 -25.5 54s-15.167 41.334 -18.5 62.001c-33.333 -42 -72 -75.333 -116 -100s-97.333 -37 -160 -37zM517.999 210.996c33.333 0 65.5 7.16797 96.5 21.501s56.5 34.166 76.5 59.499v164h-127
c-55.333 0 -97.833 -12.5 -127.5 -37.5s-44.5 -56.5 -44.5 -94.5c0 -35.333 11.5 -63 34.5 -83s53.5 -30 91.5 -30z" />
    <glyph glyph-name="b" unicode="b" horiz-adv-x="1192" 
d="M711 -21c-65.333 0 -121 13 -167 39s-84.667 63.667 -116 113l-22 -131h-278v1338l-152 31v191h473v-589c30 42 67.333 74.333 112 97s96.334 34 155.001 34c86.667 0 160.167 -23.167 220.5 -69.5s106.166 -112 137.499 -197s47 -184.833 47 -299.5v-21
c0 -108.667 -15.667 -203.167 -47 -283.5s-77.5 -142.5 -138.5 -186.5s-135.833 -66 -224.5 -66zM611 227c69.333 0 118.333 24.332 147 72.999s43 120.334 43 215.001v21c0 66 -6.33301 122.833 -19 170.5s-32.667 84.167 -60 109.5s-63 38 -107 38
c-38 0 -71.167 -9 -99.5 -27s-50.5 -42.667 -66.5 -74v-443c18.667 -28 41.667 -48.833 69 -62.5s58.333 -20.5 93 -20.5z" />
    <glyph glyph-name="c" unicode="c" horiz-adv-x="1087" 
d="M574 -21c-105.333 0 -196.167 23.4971 -272.5 70.4971s-135.166 111.667 -176.499 194s-62 176.5 -62 282.5v27c0 107.333 21.167 202.333 63.5 285s101.5 147.334 177.5 194.001s165.333 70 268 70c100 0 186.167 -15.333 258.5 -46s129.833 -64.667 172.5 -102l-4 -326
h-240l-41 195c-13.333 14 -30.833 25.167 -52.5 33.5s-42.167 12.5 -61.5 12.5c-52 0 -94 -12 -126 -36s-55.5 -59.333 -70.5 -106s-22.5 -104.667 -22.5 -174v-27c0 -72.667 9 -131 27 -175s41.667 -76.167 71 -96.5s60.666 -30.5 93.999 -30.5c46.667 0 83.667 12 111 36
s47 58.667 59 104h271l4 -6c-13.333 -81.333 -37 -150.166 -71 -206.499s-81.333 -99.166 -142 -128.499s-139 -44 -235 -44z" />
    <glyph glyph-name="d" unicode="d" horiz-adv-x="1210" 
d="M473 -21c-85.333 0 -158.666 22.167 -219.999 66.5s-108.333 106.833 -141 187.5s-49 174.667 -49 282v21c0 113.333 16.5 212.333 49.5 297s80 150.667 141 198s133.167 71 216.5 71c58.667 0 109.5 -11.833 152.5 -35.5s80.5 -57.167 112.5 -100.5v372l-154 31v191h154
h322v-1339l133 -31v-190h-412l-24 133c-33.333 -50.667 -72.833 -89 -118.5 -115s-99.834 -39 -162.501 -39zM571 227c34.667 0 66.1699 7.16895 94.5029 21.502s51.5 35.166 69.5 62.499v447c-18 30.667 -40.833 54.334 -68.5 71.001s-58.834 25 -93.501 25
c-44.667 0 -80.834 -13.333 -108.501 -40s-47.834 -63.834 -60.501 -111.501s-19 -103.167 -19 -166.5v-21c0 -90.667 14 -161.334 42 -212.001s76 -76 144 -76z" />
    <glyph glyph-name="e" unicode="e" horiz-adv-x="1084" 
d="M586 -21c-105.333 0 -197.001 22.833 -275.001 68.5s-138.5 108.334 -181.5 188.001s-64.5 170.167 -64.5 271.5v38c0 108.667 19.667 205 59 289s96 149.833 170 197.5s162.667 71.167 266 70.5c98 0 180.667 -19 248 -57s118.5 -93.5 153.5 -166.5
s52.5 -161.833 52.5 -266.5v-170h-616l-1 -7c4.66699 -40.667 16.334 -76.834 35.001 -108.501s44.834 -56.667 78.501 -75s74.834 -27.5 123.501 -27.5c49.333 0 96.5 6 141.5 18s90.833 30.333 137.5 55l79 -196c-46.667 -34.667 -104.334 -63.667 -173.001 -87
s-146.334 -35 -233.001 -35zM399.999 647l318 -0.000976562v26c0 40.667 -5 75.5 -15 104.5s-26 51.167 -48 66.5s-51.333 23 -88 23c-37.333 0 -67.833 -9.33301 -91.5 -28s-41.667 -44.167 -54 -76.5s-20.833 -69.166 -25.5 -110.499z" />
    <glyph glyph-name="f" unicode="f" horiz-adv-x="822" 
d="M82 0l-0.000976562 189.999l134 31v637h-158v224h158v114c0 123.333 36.333 218.333 109 285s174.334 100 305.001 100c33.333 0 68.666 -2.66699 105.999 -8s68 -11.333 92 -18l-26 -238c-17.333 4.66699 -36.166 8.33398 -56.499 11.001s-41.833 4 -64.5 4
c-48 0 -83.833 -11.667 -107.5 -35s-35.5 -57 -35.5 -101v-114h248v-224h-248v-637l192 -31v-190h-648z" />
    <glyph glyph-name="g" unicode="g" horiz-adv-x="1211" 
d="M538 -437c-56 0 -119.169 6.99805 -189.502 20.998s-132.166 34.333 -185.499 61l55 225c49.333 -20.667 100.5 -36.667 153.5 -48s101.833 -17 146.5 -17c74.667 0 129.667 20.833 165 62.5s53 98.834 53 171.501v61c-31.333 -38.667 -67.666 -68.5 -108.999 -89.5
s-89 -31.5 -143 -31.5c-88 0 -163.5 22.167 -226.5 66.5s-111.167 106.833 -144.5 187.5s-50 174.667 -50 282v21c0 113.333 16.5 212.333 49.5 297s80.333 150.667 142 198s135.167 71 220.5 71c64 0 118.667 -13.667 164 -41s84 -65.666 116 -114.999l21 136h282v-1045
c0 -95.333 -21 -178.5 -63 -249.5s-101.833 -126.167 -179.5 -165.5s-170.167 -59 -277.5 -59zM576.998 226.998c34.667 0 65.499 6.50195 92.499 19.502s49.167 32.5 66.5 58.5v461c-16.667 28 -38.667 49.667 -66 65s-58.333 23 -93 23c-46 0 -83 -13.333 -111 -40
s-48.5 -63.834 -61.5 -111.501s-19.5 -103.167 -19.5 -166.5v-21c0 -90.667 14.333 -161.334 43 -212.001s78.334 -76 149.001 -76zM1019 856l-142 226h306v-191z" />
    <glyph glyph-name="h" unicode="h" horiz-adv-x="1298" 
d="M47 0l-0.000976562 190l133 31v1117l-154 31v191h474v-614c33.333 49.333 74.5 87.666 123.5 114.999s105.5 41 169.5 41c106.667 0 191.667 -36.667 255 -110s95 -186.666 95 -339.999v-431l133 -31v-190h-569v190l114 31v433c0 74 -13.167 125.833 -39.5 155.5
s-64.833 44.5 -115.5 44.5c-35.333 0 -67.166 -6.83301 -95.499 -20.5s-51.833 -34.167 -70.5 -61.5v-551l115 -31v-190h-568z" />
    <glyph glyph-name="i" unicode="i" horiz-adv-x="664" 
d="M50 0v190l134 31v639l-153 31v191h474v-861l134 -31v-190h-589zM174 1299v261h332v-261h-332z" />
    <glyph glyph-name="j" unicode="j" horiz-adv-x="624" 
d="M121 -437c-29.333 0 -56 1.16699 -80 3.5s-48.667 6.5 -74 12.5l15 243c16 -3.33301 31.333 -6.33301 46 -9s31.667 -4 51 -4c38 0 67.5 14.5 88.5 43.5s31.5 69.833 31.5 122.5v885l-155 31v191h474v-1107c0 -132 -34.833 -233.667 -104.5 -305
s-167.167 -107 -292.5 -107zM184 1299v261h332v-261h-332z" />
    <glyph glyph-name="k" unicode="k" horiz-adv-x="1325" 
d="M41 0v190l135 31v1117l-154 31v191h474v-1339l114 -31v-190h-569zM728 0v179l75 21l-2 4l-184 256l212 201l329 -437l128 -34v-190h-558zM460 290l-161 166l470 419l1 2l-110 17v188h593v-191l-139 -38z" />
    <glyph glyph-name="l" unicode="l" horiz-adv-x="653" 
d="M41 0v190l135 31v1117l-154 31v191h476v-1339l133 -31v-190h-590z" />
    <glyph glyph-name="m" unicode="m" horiz-adv-x="1899" 
d="M45 0l0.000976562 190l135 31v639l-155 31v191h454l12 -143c35.333 51.333 78.666 91.333 129.999 120s111 43 179 43s126.5 -14.833 175.5 -44.5s85.833 -75.167 110.5 -136.5c33.333 57.333 76.166 101.833 128.499 133.5s113.833 47.5 184.5 47.5
c106 0 189.333 -35.833 250 -107.5s91 -181.167 91 -328.5v-445l135 -31v-190h-570v190l114 31v445c0 71.333 -11.333 120.5 -34 147.5s-56 40.5 -100 40.5c-38 0 -71 -9.33301 -99 -28s-50 -44 -66 -76v-529l104 -31v-190h-528v190l104 31v445
c0 70.667 -11.5 119.667 -34.5 147s-56.833 41 -101.5 41c-36 0 -67.667 -7.16699 -95 -21.5s-50.666 -34.833 -69.999 -61.5v-550l115 -31v-190h-569z" />
    <glyph glyph-name="n" unicode="n" horiz-adv-x="1296" 
d="M45 0l-0.00390625 190.001l133 31v639l-153 31v191h455l12 -153c36 54.667 80.5 97.167 133.5 127.5s112.833 45.5 179.5 45.5c104.667 0 186.834 -34.333 246.501 -103s89.5 -177 89.5 -325v-453l133 -31v-190h-569v190l114 31v453
c0 65.333 -13.167 111.666 -39.5 138.999s-64.166 41 -113.499 41c-37.333 0 -69.666 -7.33301 -96.999 -22s-50.666 -36 -69.999 -64v-547l104 -31v-190h-558z" />
    <glyph glyph-name="o" unicode="o" horiz-adv-x="1164" 
d="M584 -21c-109.333 0 -202.832 23.1689 -280.499 69.502s-137.167 111 -178.5 194s-62 179.167 -62 288.5v20c0 108 20.667 203.333 62 286s100.666 147.5 177.999 194.5s170.333 70.5 279 70.5c109.333 0 202.5 -23.333 279.5 -70s136.167 -111.334 177.5 -194.001
s62 -178.334 62 -287.001v-20c0 -108.667 -20.667 -204.5 -62 -287.5s-100.5 -147.833 -177.5 -194.5s-169.5 -70 -277.5 -70zM584.001 224.002c46.667 0 84.332 12.667 112.999 38s49.834 61 63.501 107s20.5 100 20.5 162v20c0 60.667 -6.83301 113.834 -20.5 159.501
s-35 81.334 -64 107.001s-67.167 38.5 -114.5 38.5c-46.667 0 -84.5 -12.833 -113.5 -38.5s-50.167 -61.334 -63.5 -107.001s-20 -98.834 -20 -159.501v-20c0 -62.667 6.66699 -117 20 -163s34.5 -81.5 63.5 -106.5s67.5 -37.5 115.5 -37.5z" />
    <glyph glyph-name="p" unicode="p" horiz-adv-x="1254" 
d="M59 -416l-0.000976562 191l138 31v1054l-154 31v191h452l14 -124c30 46 66.667 81.5 110 106.5s96 37.5 158 37.5c86 0 159.833 -23.667 221.5 -71s109 -113.5 142 -198.5s49.5 -183.833 49.5 -296.5v-21c0 -107.333 -16.5 -201.333 -49.5 -282
s-80.667 -143.167 -143 -187.5s-137.166 -66.5 -224.499 -66.5c-56 0 -105 10.167 -147 30.5s-78.333 50.5 -109 90.5v-294l131 -31v-191h-589zM676.999 224c69.333 0 118.5 25.832 147.5 77.499s43.5 122.834 43.5 213.501v21c0 63.333 -6.5 118.833 -19.5 166.5
s-33.667 84.834 -62 111.501s-65.5 40 -111.5 40c-34.667 0 -65.667 -7.83301 -93 -23.5s-49 -38.5 -65 -68.5v-457c16 -26.667 37.833 -46.834 65.5 -60.501s59.167 -20.5 94.5 -20.5z" />
    <glyph glyph-name="q" unicode="q" horiz-adv-x="1162" 
d="M561 -416l0.000976562 186l174 36v294c-31.333 -40.667 -67.833 -71 -109.5 -91s-90.834 -30 -147.501 -30c-86.667 0 -161 22.167 -223 66.5s-109.5 106.833 -142.5 187.5s-49.5 174.667 -49.5 282v21c0 113.333 16.5 212.333 49.5 297s80.333 150.667 142 198
s135.5 71 221.5 71c64 0 118 -13.5 162 -40.5s82 -64.833 114 -113.5l25 134h279v-1276l124 -30v-192h-619zM574.001 224c34.667 0 65.833 6.66504 93.5 19.998s50.167 33.333 67.5 60v461c-17.333 30 -39.5 52.667 -66.5 68s-57.833 23 -92.5 23
c-45.333 0 -82.166 -13.333 -110.499 -40s-48.833 -64.167 -61.5 -112.5s-19 -104.166 -19 -167.499v-21c0 -91.333 14.167 -162.666 42.5 -213.999s77.166 -77 146.499 -77z" />
    <glyph glyph-name="r" unicode="r" horiz-adv-x="896" 
d="M89 0l0.00195312 189.999l133 31v639l-152 31v191h453l10 -133l2 -26c25.333 60.667 56.666 105.667 93.999 135s83.333 44 138 44c15.333 0 33.166 -1.33301 53.499 -4s39.833 -6.66699 58.5 -12l-33 -295l-148 7c-38 1.33301 -68.333 -4.16699 -91 -16.5
s-43.667 -31.166 -63 -56.499v-504l133 -31v-190h-588z" />
    <glyph glyph-name="s" unicode="s" horiz-adv-x="1037" 
d="M531 -21c-82.667 0 -159.833 7.66992 -231.5 23.0029s-138.167 37 -199.5 65l-4 322h220l39 -157c18.667 -9.33301 40.334 -17.333 65.001 -24s53.334 -10 86.001 -10c60.667 0 103 9.16699 127 27.5s36 41.166 36 68.499c0 26.667 -13.167 50.5 -39.5 71.5
s-80.5 39.5 -162.5 55.5c-127.333 25.333 -221.166 67 -281.499 125s-90.5 131.333 -90.5 220c0 60 14.5 115.167 43.5 165.5s75.167 91 138.5 122s145.666 46.5 246.999 46.5c81.333 0 157.5 -7.5 228.5 -22.5s129.833 -34.167 176.5 -57.5l1 -311h-220l-30 141
c-16.667 12 -35.834 21 -57.501 27s-46.167 9 -73.5 9c-48 0 -84 -9.16699 -108 -27.5s-36 -41.833 -36 -70.5c0 -16.667 4.66699 -32.834 14 -48.501s27.666 -30.334 54.999 -44.001s67.666 -26.5 120.999 -38.5c128.667 -28.667 223.834 -67.834 285.501 -117.501
s92.5 -122.5 92.5 -218.5c0 -103.333 -37.333 -186.166 -112 -248.499s-184.667 -93.5 -330 -93.5z" />
    <glyph glyph-name="t" unicode="t" horiz-adv-x="736" 
d="M498 -22c-106.667 0 -188.333 28.832 -245 86.499s-85 149.5 -85 275.5v518h-142v224h142v266h319v-266h189v-224h-189v-518c0 -38 8.5 -65 25.5 -81s40.167 -24 69.5 -24c14 0 28.667 0.833008 44 2.5s29.333 3.83398 42 6.50098l25 -237
c-30.667 -8.66699 -62.5 -15.667 -95.5 -21s-66.167 -8 -99.5 -8z" />
    <glyph glyph-name="u" unicode="u" horiz-adv-x="1284" 
d="M513 -21c-113.333 0 -202.168 35.834 -266.501 107.501s-96.5 182.5 -96.5 332.5v441l-117 31v191h117h322v-665c0 -65.333 12.167 -113.333 36.5 -144s61.5 -46 111.5 -46c34.667 0 66.667 6.66699 96 20s54.333 32.666 75 57.999v555l-123 31v191h123h322v-861l133 -31
v-190h-414l-21 130c-34.667 -48.667 -77.167 -86 -127.5 -112s-107.166 -39 -170.499 -39z" />
    <glyph glyph-name="v" unicode="v" horiz-adv-x="1259" 
d="M449 0l-309 872l-119 19v191h547v-190l-105 -20l139 -452l23 -83h6l28 83l165 451l-129 21v190h546v-191l-122 -22l-336 -869h-334z" />
    <glyph glyph-name="w" unicode="w" horiz-adv-x="1821" 
d="M404 0l-242 863l-135 28v191h546v-190l-108 -22l86 -384l15 -69h6l22 69l217 596h206l213 -608l21 -67h6l19 67l108 395l-123 23v190h535v-191l-128 -27l-273 -864h-264l-192 500l-30 102h-6l-29 -102l-183 -500h-287z" />
    <glyph glyph-name="x" unicode="x" horiz-adv-x="1355" 
d="M27 0v190l144 16l306 335l-286 334l-138 16v191h570v-180l-76 -14l137 -184l138 183l-86 15v180h548v-191l-123 -16l-272 -319l299 -350l140 -16v-190h-584v179l82 15l-145 180l-143 -182l85 -13v-179h-596z" />
    <glyph glyph-name="y" unicode="y" horiz-adv-x="1314" 
d="M379 -437c-27.333 0 -56.001 2.33301 -86.001 7s-59.333 11.334 -88 20.001l38 232c12.667 -2.66699 26 -4.83398 40 -6.50098s27 -2.5 39 -2.5c42.667 0 79.834 9.33301 111.501 28s53.167 46.667 64.5 84l17 53l-355 893l-139 20v191h612v-191l-133 -20l157 -458
l12 -33h6l186 494l-127 17v191h563v-191l-125 -17l-409 -1034c-19.333 -48.667 -44.833 -94.167 -76.5 -136.5s-72.5 -76.333 -122.5 -102s-111.667 -38.5 -185 -38.5z" />
    <glyph glyph-name="z" unicode="z" horiz-adv-x="1131" 
d="M88 0v182l555 680h-257l-36 -186h-234v406h910v-204l-512 -650h258l49 204h223v-432h-956z" />
    <glyph glyph-name="braceleft" unicode="{" horiz-adv-x="664" 
d="M560 -359c-130 37.333 -222.5 95.833 -277.5 175.5s-82.5 176.5 -82.5 290.5v203c0 63.333 -13.667 112.5 -41 147.5s-70 52.5 -128 52.5v218c58 0 100.667 17.333 128 52s41 84.667 41 150v202c0 114 27.5 210.833 82.5 290.5s147.5 137.834 277.5 174.501l61 -170
c-52 -19.333 -88.333 -54.333 -109 -105s-31 -114 -31 -190v-202c0 -68.667 -15.167 -130 -45.5 -184s-76.5 -96 -138.5 -126c62 -32 108.167 -74.833 138.5 -128.5s45.5 -114.167 45.5 -181.5v-203c0 -75.333 10.333 -138.333 31 -189s57 -86.334 109 -107.001z" />
    <glyph glyph-name="bar" unicode="|" horiz-adv-x="421" 
d="M127 -270v1726h180v-1726h-180z" />
    <glyph glyph-name="braceright" unicode="}" horiz-adv-x="672" 
d="M103 -359l-61 170c51.333 20.667 87.333 56.334 108 107.001s31 113.667 31 189v203c0 68.667 15.5 129.667 46.5 183s77.833 95 140.5 125c-62.667 31.333 -109.5 73.833 -140.5 127.5s-46.5 115.167 -46.5 184.5v202c0 76 -10.333 139.333 -31 190
s-56.667 85.667 -108 105l61 170c129.333 -36.667 221.833 -94.834 277.5 -174.501s83.5 -176.5 83.5 -290.5v-202c0 -65.333 13.5 -115.333 40.5 -150s69.167 -52 126.5 -52v-218c-57.333 0 -99.5 -17.5 -126.5 -52.5s-40.5 -84.167 -40.5 -147.5v-203
c0 -114 -27.833 -210.833 -83.5 -290.5s-148.167 -138.167 -277.5 -175.5z" />
    <glyph glyph-name="asciitilde" unicode="~" horiz-adv-x="1304" 
d="M879 371c-52 0 -101.505 10.334 -148.505 31.001s-95.833 53.667 -146.5 99c-31.333 29.333 -58.333 50.166 -81 62.499s-47 18.5 -73 18.5c-33.333 0 -61.166 -16.833 -83.499 -50.5s-33.5 -73.5 -33.5 -119.5l-219 28c0 76 13 143.333 39 202s62.833 105 110.5 139
s102.834 51 165.501 51c52.667 0 104.167 -11 154.5 -33s99.5 -55 147.5 -99c30.667 -28.667 57.334 -49.167 80.001 -61.5s46.334 -18.5 71.001 -18.5c33.333 0 61.333 17 84 51s34 75 34 123l220 -31c0 -74.667 -13.5 -141.5 -40.5 -200.5s-64.667 -105.667 -113 -140
s-104.166 -51.5 -167.499 -51.5z" />
    <glyph glyph-name="uni00A0" unicode="&#xa0;" horiz-adv-x="500" 
 />
    <glyph glyph-name="exclamdown" unicode="&#xa1;" horiz-adv-x="515" 
d="M81 572v-946h322v946h-322zM81 1082v-272h322v272h-322z" />
    <glyph glyph-name="cent" unicode="&#xa2;" horiz-adv-x="1084" 
d="M467 -245l-0.00195312 235.003c-84.667 15.333 -156.334 47.5 -215.001 96.5s-103.334 111.167 -134.001 186.5s-46 159.666 -46 252.999v27c0 91.333 15.333 174 46 248s75.5 136.167 134.5 186.5s130.5 84.166 214.5 101.499v229h201v-218
c72 -6.66699 136.833 -22.334 194.5 -47.001s106.5 -57 146.5 -97l3 -304h-261l-50 169c-12 9.33301 -26.667 17.5 -44 24.5s-39 10.5 -65 10.5c-47.333 0 -85.666 -12.667 -114.999 -38s-50.5 -60.833 -63.5 -106.5s-19.5 -98.5 -19.5 -158.5v-27
c0 -61.333 5.83301 -114.5 17.5 -159.5s31.334 -80 59.001 -105s65.167 -37.5 112.5 -37.5c32 0 59 6.33301 81 19s38.667 30.5 50 53.5s17 50.167 17 81.5h292l4 -6c1.33301 -66 -13.167 -126.5 -43.5 -181.5s-72.666 -100.167 -126.999 -135.5s-117.166 -58 -188.499 -68
v-232h-201z" />
    <glyph glyph-name="sterling" unicode="&#xa3;" horiz-adv-x="1177" 
d="M103 0l-0.000976562 244.999h10c24 6 43.833 21.833 59.5 47.5s27.5 56.834 35.5 93.501s12 74 12 112l-4 81h-163v248h155l-8 196c0 141.333 41 252.333 123 333s192 121 330 121c146.667 0 260.5 -37.833 341.5 -113.5s119.833 -175.834 116.5 -300.501l-2 -6h-314
c0 60 -13.5 104 -40.5 132s-61.167 42 -102.5 42c-42 0 -74.333 -18.167 -97 -54.5s-34 -87.5 -34 -153.5l10 -196h336v-248h-324l2 -64c0 -49.333 -9.66699 -97.166 -29 -143.499s-47.666 -88.5 -84.999 -126.5h438l10 137h241v-382h-1017z" />
    <glyph glyph-name="currency" unicode="&#xa4;" horiz-adv-x="1423" 
d="M1201 -27l-130.999 133c-51.333 -40 -107.833 -71 -169.5 -93s-125.5 -33 -191.5 -33c-67.333 0 -131.666 10.833 -192.999 32.5s-117 52.5 -167 92.5l-129 -131l-141 146l134 136c-33.333 50.667 -58.166 105.834 -74.499 165.501s-24.5 121.834 -24.5 186.501
c0 67.333 9.16699 131.666 27.5 192.999s44.833 118.333 79.5 171l-142 147l141 145l142 -144c49.333 36.667 103.166 64.834 161.499 84.501s120.166 29.5 185.499 29.5c63.333 0 124.666 -10 183.999 -30s114 -48.667 164 -86l144 147l144 -146l-148 -151
c33.333 -52 59.5 -108.333 78.5 -169s28.5 -124.334 28.5 -191.001c0 -64.667 -8.5 -126.334 -25.5 -185.001s-41.167 -113 -72.5 -163l139 -140zM709.001 174c56.667 0 109.5 10.999 158.5 32.999s92.167 52.667 129.5 92s66.5 85.333 87.5 138s31.5 109.667 31.5 171
c0 60.667 -10.5 117.334 -31.5 170.001s-50.167 98.667 -87.5 138s-80.5 70 -129.5 92s-101.833 33 -158.5 33c-57.333 0 -110.833 -11 -160.5 -33s-93.167 -52.667 -130.5 -92s-66.5 -85.333 -87.5 -138s-31.5 -109.334 -31.5 -170.001
c0 -61.333 10.5 -118.166 31.5 -170.499s50.167 -98.333 87.5 -138s80.833 -70.5 130.5 -92.5s103.167 -33 160.5 -33z" />
    <glyph glyph-name="yen" unicode="&#xa5;" horiz-adv-x="1405" 
d="M390 0v190l152 31v66h-327v177h327v101h-327v178h253l-258 500l-174 22v191h564v-191l-61 -12l155 -362l9 -24l7 -3l7 19l160 370l-63 12v191h565v-191l-174 -23l-258 -499h223v-178h-306v-101h306v-177h-306v-66l133 -31v-190h-607z" />
    <glyph glyph-name="brokenbar" unicode="&#xa6;" horiz-adv-x="519" 
d="M129 -270v796h281v-796h-281zM129 698v758h281v-758h-281z" />
    <glyph glyph-name="section" unicode="&#xa7;" horiz-adv-x="1246" 
d="M634 -451c-104.667 0 -198.336 14.501 -281.003 43.501s-147.5 74 -194.5 135s-69.5 139.833 -67.5 236.5l2 6l311 1c0 -42 10 -75.667 30 -101s47.333 -43.833 82 -55.5s74 -17.5 118 -17.5c65.333 0 115.833 12.167 151.5 36.5s53.5 56.166 53.5 95.499
c0 26.667 -8 49.667 -24 69s-43.833 37.666 -83.5 54.999s-94.5 36.333 -164.5 57c-110 28 -200.667 60.167 -272 96.5s-124.333 80.666 -159 132.999s-52 116.5 -52 192.5c0 58 13.333 109.833 40 155.5s66.334 83.5 119.001 113.5
c-46.667 33.333 -81.667 73.833 -105 121.5s-35 103.834 -35 168.501c0 78 21.833 145.833 65.5 203.5s105 102.5 184 134.5s172.167 48 279.5 48c165.333 0 294.333 -36.833 387 -110.5s137 -177.167 133 -310.5l-1 -6h-311c0 34.667 -8.16699 65.667 -24.5 93
s-40 48.833 -71 64.5s-68.5 23.5 -112.5 23.5c-69.333 0 -120.833 -12.833 -154.5 -38.5s-50.5 -58.834 -50.5 -99.501c0 -30 7 -54.667 21 -74s40.333 -37.166 79 -53.499s95 -34.5 169 -54.5c110 -27.333 200.833 -59.333 272.5 -96s124.834 -81.167 159.501 -133.5
s52 -116.833 52 -193.5c0 -60 -13.167 -112.333 -39.5 -157s-65.166 -81.667 -116.499 -111c44.667 -34 78.667 -74.667 102 -122s35 -103.666 35 -168.999c0 -118.667 -47.667 -211.667 -143 -279s-223.333 -101 -384 -101zM803.998 327.001
c18.667 14.667 33.333 32.998 44 54.998s16 47 16 75c0 28.667 -8.16699 53.834 -24.5 75.501s-44.666 42.167 -84.999 61.5s-95.833 39.666 -166.5 60.999c-24.667 6.66699 -47.5 13.334 -68.5 20.001l-61.5 20c-18 -15.333 -31.333 -33.833 -40 -55.5s-13 -46.5 -13 -74.5
c0 -33.333 6.83301 -60.666 20.5 -81.999s39.834 -40.833 78.501 -58.5s95 -37.5 169 -59.5c19.333 -6 40.166 -12 62.499 -18s45.166 -12.667 68.499 -20z" />
    <glyph glyph-name="dieresis" unicode="&#xa8;" horiz-adv-x="844" 
d="M500 1299v261h304v-261h-304zM40 1299v261h304v-261h-304z" />
    <glyph glyph-name="copyright" unicode="&#xa9;" horiz-adv-x="1557" 
d="M779 -21c-98.667 0 -191.001 19.167 -277.001 57.5s-161.333 91.666 -226 159.999s-115.334 147.833 -152.001 238.5s-55 188.667 -55 294s18.333 203.166 55 293.499s87.334 169.5 152.001 237.5s140 121 226 159s178.333 57 277 57c98 0 190 -19 276 -57
s161.333 -91 226 -159s115.334 -147.167 152.001 -237.5s55 -188.166 55 -293.499s-18.333 -203.333 -55 -294s-87.5 -170.167 -152.5 -238.5s-140.333 -121.666 -226 -159.999s-177.5 -57.5 -275.5 -57.5zM778.999 105c81.333 0 157.332 15.834 227.999 47.501
s132.834 75.834 186.501 132.501s95.667 122.834 126 198.501s45.5 157.5 45.5 245.5s-15.167 169.667 -45.5 245s-72.333 141.166 -126 197.499s-116 100.166 -187 131.499s-146.833 47 -227.5 47c-82 0 -158.5 -15.667 -229.5 -47s-133.5 -75.333 -187.5 -132
s-96 -122.667 -126 -198s-45 -156.666 -45 -243.999c0 -88 15.167 -169.833 45.5 -245.5s72.333 -141.834 126 -198.501s116 -100.834 187 -132.501s147.5 -47.5 229.5 -47.5zM764.998 282.001c-106.667 0 -191.498 35.332 -254.498 105.999s-94.5 164.334 -94.5 281.001
v119c0 115.333 31.5 208.666 94.5 279.999s147.833 107 254.5 107c104.667 0 186.5 -26.667 245.5 -80s87.167 -129.666 84.5 -228.999l-3 -6h-148c0 63.333 -14.833 109 -44.5 137s-74.5 42 -134.5 42c-63.333 0 -111.333 -22.833 -144 -68.5s-49 -106.167 -49 -181.5v-120
c0 -76.667 16.333 -137.667 49 -183s80.667 -68 144 -68c60 0 104.667 13.833 134 41.5s44 73.167 44 136.5h148l2 -6c3.33301 -100.667 -24.334 -177.167 -83.001 -229.5s-140.334 -78.5 -245.001 -78.5z" />
    <glyph glyph-name="ordfeminine" unicode="&#xaa;" horiz-adv-x="858" 
d="M340 692c-79.333 0 -140.669 20.332 -184.002 60.999s-65 96.334 -65 167.001c0 74.667 28 132 84 172s138 60 246 60h138v50c0 41.333 -10 72.666 -30 93.999s-49 32 -87 32c-43.333 0 -77 -8.5 -101 -25.5s-36 -41.167 -36 -72.5l-165 13l-1 6
c-4.66699 65.333 21.5 119.666 78.5 162.999s131.833 65 224.5 65c90 0 161.167 -23.667 213.5 -71s78.5 -115.666 78.5 -204.999v-314c0 -34 2 -65.667 6 -95s10.667 -58 20 -86h-177c-5.33301 14 -9.66602 28.833 -12.999 44.5s-6 31.834 -8 48.501
c-22 -30.667 -51.667 -56.167 -89 -76.5s-81.666 -30.5 -132.999 -30.5zM381.997 836.999c22.667 0 46.1689 4.83496 70.502 14.502s46.166 21.667 65.499 36s33 29.166 41 44.499v102h-137c-48.667 0 -86.834 -10.667 -114.501 -32s-41.5 -47.333 -41.5 -78
c0 -28.667 9.66699 -50.334 29 -65.001s48.333 -22 87 -22z" />
    <glyph glyph-name="guillemotleft" unicode="&#xab;" horiz-adv-x="958" 
d="M262 115l-276 391v19l276 391h199l-236 -401l236 -400h-199zM676 115l-276 391v19l276 391h199l-236 -401l236 -400h-199z" />
    <glyph glyph-name="logicalnot" unicode="&#xac;" horiz-adv-x="1090" 
d="M746 373v260h-634v173h835v-433h-201z" />
    <glyph glyph-name="uni00AD" unicode="&#xad;" horiz-adv-x="820" 
d="M124 502v247h587v-247h-587z" />
    <glyph glyph-name="registered" unicode="&#xae;" horiz-adv-x="1557" 
d="M779 -21c-98.667 0 -191.001 19.167 -277.001 57.5s-161.333 91.666 -226 159.999s-115.334 147.833 -152.001 238.5s-55 188.667 -55 294s18.333 203.166 55 293.499s87.334 169.5 152.001 237.5s140 121 226 159s178.333 57 277 57c98 0 190 -19 276 -57
s161.333 -91 226 -159s115.334 -147.167 152.001 -237.5s55 -188.166 55 -293.499s-18.333 -203.333 -55 -294s-87.5 -170.167 -152.5 -238.5s-140.333 -121.666 -226 -159.999s-177.5 -57.5 -275.5 -57.5zM778.999 105c81.333 0 157.332 15.834 227.999 47.501
s132.834 75.834 186.501 132.501s95.667 122.834 126 198.501s45.5 157.5 45.5 245.5s-15.167 169.667 -45.5 245s-72.333 141.166 -126 197.499s-116 100.166 -187 131.499s-146.833 47 -227.5 47c-82 0 -158.5 -15.667 -229.5 -47s-133.5 -75.333 -187.5 -132
s-96 -122.667 -126 -198s-45 -156.666 -45 -243.999c0 -88 15.167 -169.833 45.5 -245.5s72.333 -141.834 126 -198.501s116 -100.834 187 -132.501s147.5 -47.5 229.5 -47.5zM482.998 316.001v849.999h282c100 0 179 -22.833 237 -68.5s87 -110.5 87 -194.5
c0 -38 -9 -71.167 -27 -99.5s-45.333 -52.833 -82 -73.5c36.667 -21.333 63.5 -50.166 80.5 -86.499s25.5 -79.166 25.5 -128.499v-56c0 -27.333 1.16699 -51.833 3.5 -73.5s6.83301 -39.5 13.5 -53.5v-16h-155c-6 14 -9.66699 34.5 -11 61.5s-2 54.5 -2 82.5v54
c0 47.333 -11.167 82.166 -33.5 104.499s-58.5 33.5 -108.5 33.5h-159v-336h-151zM633.998 788h132c48 -0.666992 88.833 9 122.5 29s50.5 48.333 50.5 85c0 48.667 -13 82.5 -39 101.5s-71 28.5 -135 28.5h-131v-244z" />
    <glyph glyph-name="macron" unicode="&#xaf;" horiz-adv-x="814" 
d="M40 1300v185h734v-185h-734z" />
    <glyph glyph-name="degree" unicode="&#xb0;" horiz-adv-x="742" 
d="M378 923c-51.333 0 -98.001 12.334 -140.001 37.001s-75.333 58 -100 100s-37 88.333 -37 139s12.333 97 37 139s58.167 75.667 100.5 101s88.833 38 139.5 38c49.333 0 94.5 -12.667 135.5 -38s74 -59 99 -101s37.5 -88.333 37.5 -139
c0 -51.333 -12.167 -97.833 -36.5 -139.5s-57.166 -74.834 -98.499 -99.501s-87 -37 -137 -37zM377.999 1076c34.667 0 63.5 11.667 86.5 35s34.5 52.666 34.5 87.999s-11.833 65.5 -35.5 90.5s-52.167 37.5 -85.5 37.5c-35.333 0 -65.166 -12.5 -89.499 -37.5
s-36.5 -55.167 -36.5 -90.5s12.167 -64.666 36.5 -87.999s54.166 -35 89.499 -35z" />
    <glyph glyph-name="plusminus" unicode="&#xb1;" horiz-adv-x="1034" 
d="M381 346v373h-318v257h318v348h281v-348h317v-257h-317v-373h-281zM118 0v251h833v-251h-833z" />
    <glyph glyph-name="uni00B2" unicode="&#xb2;" horiz-adv-x="822" 
d="M733 667l0.000976562 163.004h-340l-2 6l94 79c56.667 46 102.5 85.667 137.5 119s60.667 65.333 77 96s24.5 64 24.5 100c0 79.333 -26.333 140.666 -79 183.999s-127.667 65 -225 65c-66.667 0 -124.834 -11.667 -174.501 -35s-87.667 -54.833 -114 -94.5
s-38.166 -83.834 -35.499 -132.501l2 -6h213c0 31.333 8.33301 56.666 25 75.999s42.334 29 77.001 29c31.333 0 54.166 -8.16699 68.499 -24.5s21.5 -36.5 21.5 -60.5c0 -26.667 -5.33301 -50.834 -16 -72.501s-35.334 -48.5 -74.001 -80.5l-312 -248v-163h632z" />
    <glyph glyph-name="uni00B3" unicode="&#xb3;" horiz-adv-x="830" 
d="M394 1139h-105v-134h105c42.667 0 75.5 -9 98.5 -27s34.5 -42.333 34.5 -73c0 -28 -10.5 -49.5 -31.5 -64.5s-48.833 -22.5 -83.5 -22.5c-38.667 0 -68 7.16699 -88 21.5s-30 35.5 -30 63.5h-211l-2 -6c-2.66699 -50.667 10.166 -94 38.499 -130s68 -63.667 119 -83
s110.167 -29 177.5 -29c103.333 0 184.666 20.667 243.999 62s89 99.666 89 174.999c0 92 -48.667 154.333 -146 187c40.667 16 72.834 39.167 96.501 69.5s35.5 63.833 35.5 100.5c0 73.333 -30 129.833 -90 169.5s-141 59.5 -243 59.5
c-90.667 0 -165.667 -20.667 -225 -62s-87 -96.666 -83 -165.999l2 -6h211c0 19.333 8.83301 36 26.5 50s42.834 21 75.501 21c34 0 59.667 -8 77 -24s26 -36 26 -60c0 -61.333 -39.333 -92 -118 -92z" />
    <glyph glyph-name="acute" unicode="&#xb4;" horiz-adv-x="619" 
d="M40 1287l203 273h334l2 -6l-278 -267h-254h-7z" />
    <glyph glyph-name="uni00B5" unicode="&#xb5;" horiz-adv-x="1357" 
d="M206 -416l-0.000976562 1276l-155 31v191h155h320v-620c0 -90.667 13.833 -152.334 41.5 -185.001s69.834 -49 126.501 -49c46 0 84.667 8.33301 116 25s56 41 74 73v534l-154 31v191h474v-861l134 -31v-190h-434l-6 82c-26.667 -34.667 -58.167 -60.5 -94.5 -77.5
s-77.833 -25.5 -124.5 -25.5c-27.333 0 -54 3 -80 9s-50.333 14.667 -73 26v-430h-320z" />
    <glyph glyph-name="paragraph" unicode="&#xb6;" horiz-adv-x="1139" 
d="M467 0v190.001l154 31v299h-83c-103.333 0 -191.666 19.667 -264.999 59s-129.5 94.166 -168.5 164.499s-58.5 151.833 -58.5 244.5c0 92 19.5 173.167 58.5 243.5s95.167 125.333 168.5 165s161.666 59.5 264.999 59.5h557v-191l-152 -31v-1013l152 -31v-190h-628z" />
    <glyph glyph-name="periodcentered" unicode="&#xb7;" horiz-adv-x="565" 
d="M141 552v273h320v-273h-320z" />
    <glyph glyph-name="cedilla" unicode="&#xb8;" horiz-adv-x="510" 
d="M67 -467l-7 175.998c37.333 0 66.833 6 88.5 18s32.5 31 32.5 57c0 27.333 -11.5 46.5 -34.5 57.5s-58.5 17.5 -106.5 19.5l32 153h239l-12 -69c44.667 -7.33301 82.167 -24.166 112.5 -50.499s45.5 -65.166 45.5 -116.499c0 -74 -34 -133.333 -102 -178
s-164 -67 -288 -67z" />
    <glyph glyph-name="uni00B9" unicode="&#xb9;" horiz-adv-x="532" 
d="M453 665v812l-349 -23v-167h127v-622h222z" />
    <glyph glyph-name="ordmasculine" unicode="&#xba;" horiz-adv-x="905" 
d="M453 691c-106 0 -190.333 30.833 -253 92.5s-94 142.167 -94 241.5v117c0 98.667 31.333 179.167 94 241.5s146.334 93.5 251.001 93.5c105.333 0 189.666 -31.167 252.999 -93.5s95 -142.833 95 -241.5v-117c0 -99.333 -31.333 -179.833 -94 -241.5
s-146.667 -92.5 -252 -92.5zM453 838c55.333 0 97.667 17 127 51s44 79.333 44 136v117c0 55.333 -14.833 100.166 -44.5 134.499s-72.5 51.5 -128.5 51.5s-98.333 -17.167 -127 -51.5s-43 -79.166 -43 -134.499v-117c0 -56 14.667 -101.167 44 -135.5s72 -51.5 128 -51.5z
" />
    <glyph glyph-name="guillemotright" unicode="&#xbb;" horiz-adv-x="984" 
d="M52 150l233 400l-233 401h199l274 -391v-19l-274 -391h-199zM477 150l233 400l-233 401h199l274 -391v-19l-274 -391h-199z" />
    <glyph glyph-name="onequarter" unicode="&#xbc;" horiz-adv-x="1403" 
d="M224 664v622h-127v167l347 23v-812h-220zM367 116l-151 78l711 1138l151 -78zM1102 0v135h-409l-14 134l423 532h223v-500h94v-166h-94v-135h-223zM904 301h198v240l-6 2l-13 -19z" />
    <glyph glyph-name="onehalf" unicode="&#xbd;" horiz-adv-x="1450" 
d="M359 116l-151 78l711 1138l151 -78zM205 664v622h-127v167l347 23v-812h-220zM797 0l-0.000976562 162.997l313 248c38 32 62.333 59.333 73 82s16 44.334 16 65.001c0 26.667 -7.33301 48.5 -22 65.5s-37.667 25.5 -69 25.5c-33.333 0 -58.666 -9.66699 -75.999 -29
s-26 -44.666 -26 -75.999h-213l-2 6c-2.66699 48.667 9.33301 92.667 36 132s64.667 70.833 114 94.5s107.333 35.5 174 35.5c98 0 173.5 -21.333 226.5 -64s79.5 -101.667 79.5 -177c0 -39.333 -8.33301 -74.666 -25 -105.999s-42.5 -63.833 -77.5 -97.5
s-80.5 -73.5 -136.5 -119.5l-96 -79l2 -6h342v-163h-633z" />
    <glyph glyph-name="threequarters" unicode="&#xbe;" horiz-adv-x="1618" 
d="M593 116l-151 78l711 1138l151 -78zM1288 0v135h-409l-14 134l423 532h223v-500h94v-166h-94v-135h-223zM1090 301h198v240l-6 2l-13 -19zM399 656c-67.333 0 -126.667 9.66992 -178 29.0029s-91 47 -119 83s-40.667 79.333 -38 130l2 6h211c0 -28 10 -49.167 30 -63.5
s48 -21.5 84 -21.5c38 0 67.333 7.5 88 22.5s31 36.167 31 63.5c0 31.333 -11.5 56 -34.5 74s-55.833 27 -98.5 27h-105v134h105c78.667 0 118 29.667 118 89c0 25.333 -8.5 46.166 -25.5 62.499s-43.167 24.5 -78.5 24.5c-32 0 -56.833 -7 -74.5 -21
s-26.5 -30.667 -26.5 -50h-211l-2 6c-4 69.333 24.167 124.666 84.5 165.999s138.5 62 234.5 62c96.667 0 174.5 -19.5 233.5 -58.5s88.5 -92.833 88.5 -161.5c0 -41.333 -11.833 -77.5 -35.5 -108.5s-55.834 -54.5 -96.501 -70.5c97.333 -32.667 146 -96.334 146 -191.001
c0 -73.333 -29.667 -130.5 -89 -171.5s-140.666 -61.5 -243.999 -61.5z" />
    <glyph glyph-name="questiondown" unicode="&#xbf;" horiz-adv-x="962" 
d="M728 667c0 -48.667 -3.33398 -89.6689 -10.001 -123.002s-17.5 -63 -32.5 -89s-36 -51.667 -63 -77s-61.167 -54 -102.5 -86c-30.667 -23.333 -57 -49 -79 -77s-39 -57.5 -51 -88.5s-18 -63.167 -18 -96.5c0 -53.333 14.833 -95.166 44.5 -125.499
s71.167 -45.5 124.5 -45.5c44.667 0 82.834 12.167 114.501 36.5s47.834 61.833 48.501 112.5h313l2 -6c1.33301 -84.667 -18 -156.5 -58 -215.5s-96.167 -103.833 -168.5 -134.5s-155.833 -46 -250.5 -46c-154 0 -274.333 37.333 -361 112s-130 175.667 -130 303
c0 58.667 11.5 112.834 34.5 162.501s54.167 96 93.5 139s83.666 84.167 132.999 123.5c26.667 20 46.667 40 60 60s22.5 42.833 27.5 68.5s7.5 56.5 7.5 92.5h321zM727.999 1083v-271h-319v271h319z" />
    <glyph glyph-name="Agrave" unicode="&#xc0;" horiz-adv-x="1506" 
d="M32 0v190l103 15l449 1251h339l448 -1251l103 -15v-190h-520v190l98 18l-54 179h-490l-53 -179l97 -18v-190h-520zM579 618h346l-155 470l-16 47h-6l-16 -52zM945 1565h-7h-254l-278 267l2 6h333z" />
    <glyph glyph-name="Aacute" unicode="&#xc1;" horiz-adv-x="1506" 
d="M32 0v190l103 15l449 1251h339l448 -1251l103 -15v-190h-520v190l98 18l-54 179h-490l-53 -179l97 -18v-190h-520zM579 618h346l-155 470l-16 47h-6l-16 -52zM562 1565l203 273h334l2 -6l-278 -267h-254h-7z" />
    <glyph glyph-name="Acircumflex" unicode="&#xc2;" horiz-adv-x="1506" 
d="M32 0v190l103 15l449 1251h339l448 -1251l103 -15v-190h-520v190l98 18l-54 179h-490l-53 -179l97 -18v-190h-520zM579 618h346l-155 470l-16 47h-6l-16 -52zM375 1567v26l257 245h246l255 -249v-22h-249l-130 143l-134 -143h-245z" />
    <glyph glyph-name="Atilde" unicode="&#xc3;" horiz-adv-x="1506" 
d="M32 0v190l103 15l449 1251h339l448 -1251l103 -15v-190h-520v190l98 18l-54 179h-490l-53 -179l97 -18v-190h-520zM579 618h346l-155 470l-16 47h-6l-16 -52zM535 1555l-165 44c0 46 11 88.5 33 127.5s50.833 70.167 86.5 93.5s73.834 35 114.501 35
c33.333 0 67.333 -7.83301 102 -23.5s67.667 -31.5 99 -47.5s58.333 -24.333 81 -25c27.333 1.33301 48.5 12 63.5 32s22.5 45.667 22.5 77l165 -47c0 -47.333 -10.833 -90.333 -32.5 -129s-50.334 -69.5 -86.001 -92.5s-74.5 -34.5 -116.5 -34.5
c-35.333 0 -70.5 8 -105.5 24s-67.5 32.167 -97.5 48.5s-56.333 24.5 -79 24.5c-27.333 0 -48.333 -10.667 -63 -32s-22 -46.333 -22 -75z" />
    <glyph glyph-name="Adieresis" unicode="&#xc4;" horiz-adv-x="1506" 
d="M32 0v190l103 15l449 1251h339l448 -1251l103 -15v-190h-520v190l98 18l-54 179h-490l-53 -179l97 -18v-190h-520zM579 618h346l-155 470l-16 47h-6l-16 -52zM832 1577v261h304v-261h-304zM372 1577v261h304v-261h-304z" />
    <glyph glyph-name="Aring" unicode="&#xc5;" horiz-adv-x="1506" 
d="M32 0v190l103 15l449 1251h339l448 -1251l103 -15v-190h-520v190l98 18l-54 179h-490l-53 -179l97 -18v-190h-520zM579 618h346l-155 470l-16 47h-6l-16 -52zM756 1507c-69.333 0 -127.168 20.667 -173.501 62s-69.5 94.333 -69.5 159c0 63.333 23.333 116.5 70 159.5
s104.334 64.5 173.001 64.5c67.333 0 124 -21.667 170 -65s69 -96.333 69 -159c0 -64.667 -23 -117.667 -69 -159s-102.667 -62 -170 -62zM755.998 1633c27.333 0 49.166 8.5 65.499 25.5s24.5 40.167 24.5 69.5c0 28.667 -8.16699 51.834 -24.5 69.501
s-38.166 26.5 -65.499 26.5s-50 -8.83301 -68 -26.5s-27 -40.834 -27 -69.501s8.83301 -51.667 26.5 -69s40.5 -26 68.5 -26z" />
    <glyph glyph-name="AE" unicode="&#xc6;" horiz-adv-x="2091" 
d="M70 0v190l139 20l672 1246h1056v-383h-241l-11 133h-339l15 -335h493v-250h-483l16 -372h361l11 133h240v-382h-1079v190l148 28l-6 137h-415l-76 -151l87 -14v-190h-588zM767 599h284l-22 505h-5l-11 -23z" />
    <glyph glyph-name="Ccedilla" unicode="&#xc7;" horiz-adv-x="1330" 
d="M752 -21c-140 0 -263.335 28.833 -370.002 86.5s-189.667 140 -249 247s-89 235.5 -89 385.5v59c0 140 27.833 264.167 83.5 372.5s135.5 193.333 239.5 255s227.333 92.5 370 92.5c100 0 194.5 -13.667 283.5 -41s170.5 -72 244.5 -134v-363h-237l-32 218
c-22.667 15.333 -46.667 28.666 -72 39.999s-52.666 20 -81.999 26s-61 9 -95 9c-78 0 -145.667 -19 -203 -57s-101.5 -92.167 -132.5 -162.5s-46.5 -154.833 -46.5 -253.5v-61c0 -95.333 16 -178.666 48 -249.999s77.5 -126.666 136.5 -165.999s128.167 -59 207.5 -59
c40.667 0 81.667 4.5 123 13.5s80 20.833 116 35.5l33 205h236v-357c-57.333 -38.667 -129.666 -71.834 -216.999 -99.501s-186 -41.5 -296 -41.5zM595.998 -467l-7 175.998c37.333 0 66.833 6 88.5 18s32.5 31 32.5 57c0 27.333 -11.5 46.5 -34.5 57.5
s-58.5 17.5 -106.5 19.5l32 153h239l-12 -69c44.667 -7.33301 82.167 -24.166 112.5 -50.499s45.5 -65.166 45.5 -116.499c0 -74 -34 -133.333 -102 -178s-164 -67 -288 -67z" />
    <glyph glyph-name="Egrave" unicode="&#xc8;" horiz-adv-x="1308" 
d="M48 0v190l153 31v1013l-153 31v191h1147v-407h-245l-11 160h-416v-333h478v-247h-478v-382h438l11 166h241v-413h-1165zM846 1565h-7h-254l-278 267l2 6h333z" />
    <glyph glyph-name="Eacute" unicode="&#xc9;" horiz-adv-x="1308" 
d="M48 0v190l153 31v1013l-153 31v191h1147v-407h-245l-11 160h-416v-333h478v-247h-478v-382h438l11 166h241v-413h-1165zM463 1565l203 273h334l2 -6l-278 -267h-254h-7z" />
    <glyph glyph-name="Ecircumflex" unicode="&#xca;" horiz-adv-x="1308" 
d="M48 0v190l153 31v1013l-153 31v191h1147v-407h-245l-11 160h-416v-333h478v-247h-478v-382h438l11 166h241v-413h-1165zM276 1567v26l257 245h246l255 -249v-22h-249l-130 143l-134 -143h-245z" />
    <glyph glyph-name="Edieresis" unicode="&#xcb;" horiz-adv-x="1308" 
d="M48 0v190l153 31v1013l-153 31v191h1147v-407h-245l-11 160h-416v-333h478v-247h-478v-382h438l11 166h241v-413h-1165zM733 1577v261h304v-261h-304zM273 1577v261h304v-261h-304z" />
    <glyph glyph-name="Igrave" unicode="&#xcc;" horiz-adv-x="723" 
d="M48 0v190l153 31v1013l-153 31v191h627v-191l-153 -31v-1013l153 -31v-190h-627zM554 1565h-7h-254l-278 267l2 6h333z" />
    <glyph glyph-name="Iacute" unicode="&#xcd;" horiz-adv-x="723" 
d="M48 0v190l153 31v1013l-153 31v191h627v-191l-153 -31v-1013l153 -31v-190h-627zM171 1565l203 273h334l2 -6l-278 -267h-254h-7z" />
    <glyph glyph-name="Icircumflex" unicode="&#xce;" horiz-adv-x="723" 
d="M48 0v190l153 31v1013l-153 31v191h627v-191l-153 -31v-1013l153 -31v-190h-627zM-17 1567v26l257 245h246l255 -249v-22h-249l-130 143l-134 -143h-245z" />
    <glyph glyph-name="Idieresis" unicode="&#xcf;" horiz-adv-x="723" 
d="M48 0v190l153 31v1013l-153 31v191h627v-191l-153 -31v-1013l153 -31v-190h-627zM440 1577v261h304v-261h-304zM-20 1577v261h304v-261h-304z" />
    <glyph glyph-name="Eth" unicode="&#xd0;" horiz-adv-x="1448" 
d="M48 0v190l155 35v1004l-155 36v191h155h505c131.333 0 247 -30.5 347 -91.5s178.333 -145.333 235 -253s85 -231.5 85 -371.5v-25c0 -139.333 -28 -262.833 -84 -370.5s-134 -192 -234 -253s-215.667 -91.5 -347 -91.5h-662zM524 245l170 0.00195312
c77.333 0 142.5 19.833 195.5 59.5s93.333 95 121 166s41.5 152.5 41.5 244.5v26c0 93.333 -13.833 175.166 -41.5 245.499s-68 125.166 -121 164.499s-118.167 59 -195.5 59h-170v-965zM34 662.002v155h677v-155h-677z" />
    <glyph glyph-name="Ntilde" unicode="&#xd1;" horiz-adv-x="1607" 
d="M47 0v190l153 31v1013l-153 31v191h153h327l609 -971l6 1v748l-189 31v191h475h153v-191l-153 -31v-1234h-315l-621 956l-6 -1v-734l190 -31v-190h-629zM586 1555l-165 44c0 46 11 88.5 33 127.5s50.833 70.167 86.5 93.5s73.834 35 114.501 35
c33.333 0 67.333 -7.83301 102 -23.5s67.667 -31.5 99 -47.5s58.333 -24.333 81 -25c27.333 1.33301 48.5 12 63.5 32s22.5 45.667 22.5 77l165 -47c0 -47.333 -10.833 -90.333 -32.5 -129s-50.334 -69.5 -86.001 -92.5s-74.5 -34.5 -116.5 -34.5
c-35.333 0 -70.5 8 -105.5 24s-67.5 32.167 -97.5 48.5s-56.333 24.5 -79 24.5c-27.333 0 -48.333 -10.667 -63 -32s-22 -46.333 -22 -75z" />
    <glyph glyph-name="Ograve" unicode="&#xd2;" horiz-adv-x="1476" 
d="M738 -21c-99.333 0 -190.169 18.333 -272.502 55s-153.666 88.334 -213.999 155.001s-106.666 144.834 -138.999 234.501s-48.5 187.5 -48.5 293.5v23c0 105.333 16.167 202.666 48.5 291.999s78.5 167.333 138.5 234s131 118.5 213 155.5s172.667 55.5 272 55.5
s190.333 -18.5 273 -55.5s154.667 -88.833 216 -155.5s108.833 -144.667 142.5 -234s50.5 -186.666 50.5 -291.999v-23c0 -106 -16.833 -203.833 -50.5 -293.5s-81 -167.834 -142 -234.501s-133 -118.334 -216 -155.001s-173.5 -55 -271.5 -55zM737.997 225
c78 0 143.668 20.499 197.001 61.499s93.833 98.333 121.5 172s41.5 159.834 41.5 258.501v25c0 96.667 -14 181.5 -42 254.5s-68.667 130.167 -122 171.5s-119.333 62 -198 62c-79.333 0 -145 -20.333 -197 -61s-90.667 -97.5 -116 -170.5s-38 -158.5 -38 -256.5v-25
c0 -98 12.833 -184 38.5 -258s64.667 -131.5 117 -172.5s118.166 -61.5 197.499 -61.5zM929.998 1565h-7h-254l-278 267l2 6h333z" />
    <glyph glyph-name="Oacute" unicode="&#xd3;" horiz-adv-x="1476" 
d="M738 -21c-99.333 0 -190.169 18.333 -272.502 55s-153.666 88.334 -213.999 155.001s-106.666 144.834 -138.999 234.501s-48.5 187.5 -48.5 293.5v23c0 105.333 16.167 202.666 48.5 291.999s78.5 167.333 138.5 234s131 118.5 213 155.5s172.667 55.5 272 55.5
s190.333 -18.5 273 -55.5s154.667 -88.833 216 -155.5s108.833 -144.667 142.5 -234s50.5 -186.666 50.5 -291.999v-23c0 -106 -16.833 -203.833 -50.5 -293.5s-81 -167.834 -142 -234.501s-133 -118.334 -216 -155.001s-173.5 -55 -271.5 -55zM737.997 225
c78 0 143.668 20.499 197.001 61.499s93.833 98.333 121.5 172s41.5 159.834 41.5 258.501v25c0 96.667 -14 181.5 -42 254.5s-68.667 130.167 -122 171.5s-119.333 62 -198 62c-79.333 0 -145 -20.333 -197 -61s-90.667 -97.5 -116 -170.5s-38 -158.5 -38 -256.5v-25
c0 -98 12.833 -184 38.5 -258s64.667 -131.5 117 -172.5s118.166 -61.5 197.499 -61.5zM546.998 1565l203 273h334l2 -6l-278 -267h-254h-7z" />
    <glyph glyph-name="Ocircumflex" unicode="&#xd4;" horiz-adv-x="1476" 
d="M738 -21c-99.333 0 -190.169 18.333 -272.502 55s-153.666 88.334 -213.999 155.001s-106.666 144.834 -138.999 234.501s-48.5 187.5 -48.5 293.5v23c0 105.333 16.167 202.666 48.5 291.999s78.5 167.333 138.5 234s131 118.5 213 155.5s172.667 55.5 272 55.5
s190.333 -18.5 273 -55.5s154.667 -88.833 216 -155.5s108.833 -144.667 142.5 -234s50.5 -186.666 50.5 -291.999v-23c0 -106 -16.833 -203.833 -50.5 -293.5s-81 -167.834 -142 -234.501s-133 -118.334 -216 -155.001s-173.5 -55 -271.5 -55zM737.997 225
c78 0 143.668 20.499 197.001 61.499s93.833 98.333 121.5 172s41.5 159.834 41.5 258.501v25c0 96.667 -14 181.5 -42 254.5s-68.667 130.167 -122 171.5s-119.333 62 -198 62c-79.333 0 -145 -20.333 -197 -61s-90.667 -97.5 -116 -170.5s-38 -158.5 -38 -256.5v-25
c0 -98 12.833 -184 38.5 -258s64.667 -131.5 117 -172.5s118.166 -61.5 197.499 -61.5zM358.998 1567v26l257 245h246l255 -249v-22h-249l-130 143l-134 -143h-245z" />
    <glyph glyph-name="Otilde" unicode="&#xd5;" horiz-adv-x="1476" 
d="M738 -21c-99.333 0 -190.169 18.333 -272.502 55s-153.666 88.334 -213.999 155.001s-106.666 144.834 -138.999 234.501s-48.5 187.5 -48.5 293.5v23c0 105.333 16.167 202.666 48.5 291.999s78.5 167.333 138.5 234s131 118.5 213 155.5s172.667 55.5 272 55.5
s190.333 -18.5 273 -55.5s154.667 -88.833 216 -155.5s108.833 -144.667 142.5 -234s50.5 -186.666 50.5 -291.999v-23c0 -106 -16.833 -203.833 -50.5 -293.5s-81 -167.834 -142 -234.501s-133 -118.334 -216 -155.001s-173.5 -55 -271.5 -55zM737.997 225
c78 0 143.668 20.499 197.001 61.499s93.833 98.333 121.5 172s41.5 159.834 41.5 258.501v25c0 96.667 -14 181.5 -42 254.5s-68.667 130.167 -122 171.5s-119.333 62 -198 62c-79.333 0 -145 -20.333 -197 -61s-90.667 -97.5 -116 -170.5s-38 -158.5 -38 -256.5v-25
c0 -98 12.833 -184 38.5 -258s64.667 -131.5 117 -172.5s118.166 -61.5 197.499 -61.5zM519.998 1555l-165 44c0 46 11 88.5 33 127.5s50.833 70.167 86.5 93.5s73.834 35 114.501 35c33.333 0 67.333 -7.83301 102 -23.5s67.667 -31.5 99 -47.5s58.333 -24.333 81 -25
c27.333 1.33301 48.5 12 63.5 32s22.5 45.667 22.5 77l165 -47c0 -47.333 -10.833 -90.333 -32.5 -129s-50.334 -69.5 -86.001 -92.5s-74.5 -34.5 -116.5 -34.5c-35.333 0 -70.5 8 -105.5 24s-67.5 32.167 -97.5 48.5s-56.333 24.5 -79 24.5
c-27.333 0 -48.333 -10.667 -63 -32s-22 -46.333 -22 -75z" />
    <glyph glyph-name="Odieresis" unicode="&#xd6;" horiz-adv-x="1476" 
d="M738 -21c-99.333 0 -190.169 18.333 -272.502 55s-153.666 88.334 -213.999 155.001s-106.666 144.834 -138.999 234.501s-48.5 187.5 -48.5 293.5v23c0 105.333 16.167 202.666 48.5 291.999s78.5 167.333 138.5 234s131 118.5 213 155.5s172.667 55.5 272 55.5
s190.333 -18.5 273 -55.5s154.667 -88.833 216 -155.5s108.833 -144.667 142.5 -234s50.5 -186.666 50.5 -291.999v-23c0 -106 -16.833 -203.833 -50.5 -293.5s-81 -167.834 -142 -234.501s-133 -118.334 -216 -155.001s-173.5 -55 -271.5 -55zM737.997 225
c78 0 143.668 20.499 197.001 61.499s93.833 98.333 121.5 172s41.5 159.834 41.5 258.501v25c0 96.667 -14 181.5 -42 254.5s-68.667 130.167 -122 171.5s-119.333 62 -198 62c-79.333 0 -145 -20.333 -197 -61s-90.667 -97.5 -116 -170.5s-38 -158.5 -38 -256.5v-25
c0 -98 12.833 -184 38.5 -258s64.667 -131.5 117 -172.5s118.166 -61.5 197.499 -61.5zM815.998 1577v261h304v-261h-304zM355.998 1577v261h304v-261h-304z" />
    <glyph glyph-name="multiply" unicode="&#xd7;" horiz-adv-x="1068" 
d="M241 202l-185 175l303 310l-303 309l185 175l296 -302l298 302l185 -175l-303 -309l303 -310l-185 -175l-298 302z" />
    <glyph glyph-name="Oslash" unicode="&#xd8;" horiz-adv-x="1476" 
d="M738 -21c-99.333 0 -190.169 18.333 -272.502 55s-153.666 88.334 -213.999 155.001s-106.666 144.834 -138.999 234.501s-48.5 187.5 -48.5 293.5v23c0 105.333 16.167 202.666 48.5 291.999s78.5 167.333 138.5 234s131 118.5 213 155.5s172.667 55.5 272 55.5
s190.333 -18.5 273 -55.5s154.667 -88.833 216 -155.5s108.833 -144.667 142.5 -234s50.5 -186.666 50.5 -291.999v-23c0 -106 -16.833 -203.833 -50.5 -293.5s-81 -167.834 -142 -234.501s-133 -118.334 -216 -155.001s-173.5 -55 -271.5 -55zM737.997 225
c78 0 143.668 20.499 197.001 61.499s93.833 98.333 121.5 172s41.5 159.834 41.5 258.501v25c0 96.667 -14 181.5 -42 254.5s-68.667 130.167 -122 171.5s-119.333 62 -198 62c-79.333 0 -145 -20.333 -197 -61s-90.667 -97.5 -116 -170.5s-38 -158.5 -38 -256.5v-25
c0 -98 12.833 -184 38.5 -258s64.667 -131.5 117 -172.5s118.166 -61.5 197.499 -61.5zM175.998 -83.001l935 1615h188l-935 -1615h-188z" />
    <glyph glyph-name="Ugrave" unicode="&#xd9;" horiz-adv-x="1565" 
d="M782 -21c-120 0 -225.167 19.998 -315.5 59.998s-160.333 98.667 -210 176s-74.5 171 -74.5 281v738l-152 31v191h627v-191l-153 -31v-738c0 -61.333 11 -112.166 33 -152.499s53.667 -70.333 95 -90s91 -29.5 149 -29.5c60 0 110.833 9.83301 152.5 29.5
s73.5 49.667 95.5 90s33 91.166 33 152.499v738l-152 31v191h627v-191l-153 -31v-738c0 -109.333 -25.333 -202.666 -76 -279.999s-121 -136.166 -211 -176.499s-195 -60.5 -315 -60.5zM974 1565h-7h-254l-278 267l2 6h333z" />
    <glyph glyph-name="Uacute" unicode="&#xda;" horiz-adv-x="1565" 
d="M782 -21c-120 0 -225.167 19.998 -315.5 59.998s-160.333 98.667 -210 176s-74.5 171 -74.5 281v738l-152 31v191h627v-191l-153 -31v-738c0 -61.333 11 -112.166 33 -152.499s53.667 -70.333 95 -90s91 -29.5 149 -29.5c60 0 110.833 9.83301 152.5 29.5
s73.5 49.667 95.5 90s33 91.166 33 152.499v738l-152 31v191h627v-191l-153 -31v-738c0 -109.333 -25.333 -202.666 -76 -279.999s-121 -136.166 -211 -176.499s-195 -60.5 -315 -60.5zM591 1565l203 273h334l2 -6l-278 -267h-254h-7z" />
    <glyph glyph-name="Ucircumflex" unicode="&#xdb;" horiz-adv-x="1565" 
d="M782 -21c-120 0 -225.167 19.998 -315.5 59.998s-160.333 98.667 -210 176s-74.5 171 -74.5 281v738l-152 31v191h627v-191l-153 -31v-738c0 -61.333 11 -112.166 33 -152.499s53.667 -70.333 95 -90s91 -29.5 149 -29.5c60 0 110.833 9.83301 152.5 29.5
s73.5 49.667 95.5 90s33 91.166 33 152.499v738l-152 31v191h627v-191l-153 -31v-738c0 -109.333 -25.333 -202.666 -76 -279.999s-121 -136.166 -211 -176.499s-195 -60.5 -315 -60.5zM404 1567v26l257 245h246l255 -249v-22h-249l-130 143l-134 -143h-245z" />
    <glyph glyph-name="Udieresis" unicode="&#xdc;" horiz-adv-x="1565" 
d="M782 -21c-120 0 -225.167 19.998 -315.5 59.998s-160.333 98.667 -210 176s-74.5 171 -74.5 281v738l-152 31v191h627v-191l-153 -31v-738c0 -61.333 11 -112.166 33 -152.499s53.667 -70.333 95 -90s91 -29.5 149 -29.5c60 0 110.833 9.83301 152.5 29.5
s73.5 49.667 95.5 90s33 91.166 33 152.499v738l-152 31v191h627v-191l-153 -31v-738c0 -109.333 -25.333 -202.666 -76 -279.999s-121 -136.166 -211 -176.499s-195 -60.5 -315 -60.5zM861 1577v261h304v-261h-304zM401 1577v261h304v-261h-304z" />
    <glyph glyph-name="Yacute" unicode="&#xdd;" horiz-adv-x="1522" 
d="M447 0v190l153 31v269l-427 755l-146 20v191h605v-191l-104 -16l221 -433l22 -48h8l23 46l251 435l-155 16v191h593v-191l-148 -20l-423 -730v-294l154 -31v-190h-627zM570 1565l203 273h334l2 -6l-278 -267h-254h-7z" />
    <glyph glyph-name="Thorn" unicode="&#xde;" horiz-adv-x="1296" 
d="M66 0v190l154 31v1013l-154 31v191h476h153v-191l-153 -31v-74h189c170.667 0 303.334 -39 398.001 -117s142 -180 142 -306c0 -126.667 -47.333 -229 -142 -307s-227.334 -117 -398.001 -117h-189v-92l153 -31v-190h-629zM542 552l189 -0.000976562
c48.667 0 89.167 8 121.5 24s56.5 37.833 72.5 65.5s24 58.834 24 93.501c0 35.333 -8 67 -24 95s-40.167 50.167 -72.5 66.5s-72.833 24.5 -121.5 24.5h-189v-369z" />
    <glyph glyph-name="germandbls" unicode="&#xdf;" horiz-adv-x="1331" 
d="M842 -21c-32.667 0 -65.334 2.00098 -98.001 6.00098s-62.5 9.83301 -89.5 17.5s-48.833 17.167 -65.5 28.5l58 242c22.667 -13.333 50.667 -24.833 84 -34.5s70 -14.5 110 -14.5c44 0 79.333 12 106 36s40 56 40 96c0 30 -9.5 59.5 -28.5 88.5s-42.667 58.167 -71 87.5
l-85 91c-28.333 31.333 -52.166 64.666 -71.499 99.999s-29 73.666 -29 114.999c0 30 5 60.333 15 91s21.833 61.334 35.5 92.001s25.334 61 35.001 91s14.5 59 14.5 87c0 38.667 -11.333 71.167 -34 97.5s-55 39.5 -97 39.5c-50.667 0 -90.334 -19.833 -119.001 -59.5
s-43 -92.834 -43 -159.501v-1117h-475v190l152 31v894c0 100 19.833 184.667 59.5 254s95.834 122 168.501 158s159 54 259 54c88 0 165.667 -15.167 233 -45.5s120.333 -73.5 159 -129.5s58 -122 58 -198c0 -36.667 -5.16699 -71.167 -15.5 -103.5s-22 -62.666 -35 -90.999
s-24.5 -55.5 -34.5 -81.5s-15 -50.667 -15 -74c0 -31.333 9.5 -60.166 28.5 -86.499s42.667 -52.5 71 -78.5s56.666 -54.333 84.999 -85s52 -66.334 71 -107.001s28.5 -89 28.5 -145c0 -82.667 -17.5 -152 -52.5 -208s-87 -98.167 -156 -126.5s-154.5 -42.5 -256.5 -42.5z
" />
    <glyph glyph-name="agrave" unicode="&#xe0;" horiz-adv-x="1160" 
d="M426 -21c-106.667 0 -192.168 29.3291 -256.501 87.9961s-96.5 137.334 -96.5 236.001c0 67.333 18.167 127 54.5 179s90.833 92.667 163.5 122s163 44 271 44h129v72c0 47.333 -13.833 86.833 -41.5 118.5s-69.834 47.5 -126.501 47.5
c-27.333 0 -52.166 -3.5 -74.499 -10.5s-42.5 -16.5 -60.5 -28.5l-23 -140h-229l-4 290c58.667 30 121.334 55 188.001 75s141 30 223 30c144 0 258.167 -33.333 342.5 -100s126.5 -162 126.5 -286v-422c0 -15.333 0.166992 -30.166 0.5 -44.499
s1.83301 -28.166 4.5 -41.499l114 -18v-190h-385c-8 15.333 -16.5 33.333 -25.5 54s-15.167 41.334 -18.5 62.001c-33.333 -42 -72 -75.333 -116 -100s-97.333 -37 -160 -37zM517.999 210.996c33.333 0 65.5 7.16797 96.5 21.501s56.5 34.166 76.5 59.499v164h-127
c-55.333 0 -97.833 -12.5 -127.5 -37.5s-44.5 -56.5 -44.5 -94.5c0 -35.333 11.5 -63 34.5 -83s53.5 -30 91.5 -30zM741.999 1287h-7h-254l-278 267l2 6h333z" />
    <glyph glyph-name="aacute" unicode="&#xe1;" horiz-adv-x="1160" 
d="M426 -21c-106.667 0 -192.168 29.3291 -256.501 87.9961s-96.5 137.334 -96.5 236.001c0 67.333 18.167 127 54.5 179s90.833 92.667 163.5 122s163 44 271 44h129v72c0 47.333 -13.833 86.833 -41.5 118.5s-69.834 47.5 -126.501 47.5
c-27.333 0 -52.166 -3.5 -74.499 -10.5s-42.5 -16.5 -60.5 -28.5l-23 -140h-229l-4 290c58.667 30 121.334 55 188.001 75s141 30 223 30c144 0 258.167 -33.333 342.5 -100s126.5 -162 126.5 -286v-422c0 -15.333 0.166992 -30.166 0.5 -44.499
s1.83301 -28.166 4.5 -41.499l114 -18v-190h-385c-8 15.333 -16.5 33.333 -25.5 54s-15.167 41.334 -18.5 62.001c-33.333 -42 -72 -75.333 -116 -100s-97.333 -37 -160 -37zM517.999 210.996c33.333 0 65.5 7.16797 96.5 21.501s56.5 34.166 76.5 59.499v164h-127
c-55.333 0 -97.833 -12.5 -127.5 -37.5s-44.5 -56.5 -44.5 -94.5c0 -35.333 11.5 -63 34.5 -83s53.5 -30 91.5 -30zM359.999 1287l203 273h334l2 -6l-278 -267h-254h-7z" />
    <glyph glyph-name="acircumflex" unicode="&#xe2;" horiz-adv-x="1160" 
d="M426 -21c-106.667 0 -192.168 29.3291 -256.501 87.9961s-96.5 137.334 -96.5 236.001c0 67.333 18.167 127 54.5 179s90.833 92.667 163.5 122s163 44 271 44h129v72c0 47.333 -13.833 86.833 -41.5 118.5s-69.834 47.5 -126.501 47.5
c-27.333 0 -52.166 -3.5 -74.499 -10.5s-42.5 -16.5 -60.5 -28.5l-23 -140h-229l-4 290c58.667 30 121.334 55 188.001 75s141 30 223 30c144 0 258.167 -33.333 342.5 -100s126.5 -162 126.5 -286v-422c0 -15.333 0.166992 -30.166 0.5 -44.499
s1.83301 -28.166 4.5 -41.499l114 -18v-190h-385c-8 15.333 -16.5 33.333 -25.5 54s-15.167 41.334 -18.5 62.001c-33.333 -42 -72 -75.333 -116 -100s-97.333 -37 -160 -37zM517.999 210.996c33.333 0 65.5 7.16797 96.5 21.501s56.5 34.166 76.5 59.499v164h-127
c-55.333 0 -97.833 -12.5 -127.5 -37.5s-44.5 -56.5 -44.5 -94.5c0 -35.333 11.5 -63 34.5 -83s53.5 -30 91.5 -30zM171.999 1289v26l257 245h246l255 -249v-22h-249l-130 143l-134 -143h-245z" />
    <glyph glyph-name="atilde" unicode="&#xe3;" horiz-adv-x="1160" 
d="M426 -21c-106.667 0 -192.168 29.3291 -256.501 87.9961s-96.5 137.334 -96.5 236.001c0 67.333 18.167 127 54.5 179s90.833 92.667 163.5 122s163 44 271 44h129v72c0 47.333 -13.833 86.833 -41.5 118.5s-69.834 47.5 -126.501 47.5
c-27.333 0 -52.166 -3.5 -74.499 -10.5s-42.5 -16.5 -60.5 -28.5l-23 -140h-229l-4 290c58.667 30 121.334 55 188.001 75s141 30 223 30c144 0 258.167 -33.333 342.5 -100s126.5 -162 126.5 -286v-422c0 -15.333 0.166992 -30.166 0.5 -44.499
s1.83301 -28.166 4.5 -41.499l114 -18v-190h-385c-8 15.333 -16.5 33.333 -25.5 54s-15.167 41.334 -18.5 62.001c-33.333 -42 -72 -75.333 -116 -100s-97.333 -37 -160 -37zM517.999 210.996c33.333 0 65.5 7.16797 96.5 21.501s56.5 34.166 76.5 59.499v164h-127
c-55.333 0 -97.833 -12.5 -127.5 -37.5s-44.5 -56.5 -44.5 -94.5c0 -35.333 11.5 -63 34.5 -83s53.5 -30 91.5 -30zM332.999 1277l-165 44c0 46 11 88.5 33 127.5s50.833 70.167 86.5 93.5s73.834 35 114.501 35c33.333 0 67.333 -7.83301 102 -23.5s67.667 -31.5 99 -47.5
s58.333 -24.333 81 -25c27.333 1.33301 48.5 12 63.5 32s22.5 45.667 22.5 77l165 -47c0 -47.333 -10.833 -90.333 -32.5 -129s-50.334 -69.5 -86.001 -92.5s-74.5 -34.5 -116.5 -34.5c-35.333 0 -70.5 8 -105.5 24s-67.5 32.167 -97.5 48.5s-56.333 24.5 -79 24.5
c-27.333 0 -48.333 -10.667 -63 -32s-22 -46.333 -22 -75z" />
    <glyph glyph-name="adieresis" unicode="&#xe4;" horiz-adv-x="1160" 
d="M426 -21c-106.667 0 -192.168 29.3291 -256.501 87.9961s-96.5 137.334 -96.5 236.001c0 67.333 18.167 127 54.5 179s90.833 92.667 163.5 122s163 44 271 44h129v72c0 47.333 -13.833 86.833 -41.5 118.5s-69.834 47.5 -126.501 47.5
c-27.333 0 -52.166 -3.5 -74.499 -10.5s-42.5 -16.5 -60.5 -28.5l-23 -140h-229l-4 290c58.667 30 121.334 55 188.001 75s141 30 223 30c144 0 258.167 -33.333 342.5 -100s126.5 -162 126.5 -286v-422c0 -15.333 0.166992 -30.166 0.5 -44.499
s1.83301 -28.166 4.5 -41.499l114 -18v-190h-385c-8 15.333 -16.5 33.333 -25.5 54s-15.167 41.334 -18.5 62.001c-33.333 -42 -72 -75.333 -116 -100s-97.333 -37 -160 -37zM517.999 210.996c33.333 0 65.5 7.16797 96.5 21.501s56.5 34.166 76.5 59.499v164h-127
c-55.333 0 -97.833 -12.5 -127.5 -37.5s-44.5 -56.5 -44.5 -94.5c0 -35.333 11.5 -63 34.5 -83s53.5 -30 91.5 -30zM628.999 1299v261h304v-261h-304zM168.999 1299v261h304v-261h-304z" />
    <glyph glyph-name="aring" unicode="&#xe5;" horiz-adv-x="1160" 
d="M426 -21c-106.667 0 -192.168 29.3291 -256.501 87.9961s-96.5 137.334 -96.5 236.001c0 67.333 18.167 127 54.5 179s90.833 92.667 163.5 122s163 44 271 44h129v72c0 47.333 -13.833 86.833 -41.5 118.5s-69.834 47.5 -126.501 47.5
c-27.333 0 -52.166 -3.5 -74.499 -10.5s-42.5 -16.5 -60.5 -28.5l-23 -140h-229l-4 290c58.667 30 121.334 55 188.001 75s141 30 223 30c144 0 258.167 -33.333 342.5 -100s126.5 -162 126.5 -286v-422c0 -15.333 0.166992 -30.166 0.5 -44.499
s1.83301 -28.166 4.5 -41.499l114 -18v-190h-385c-8 15.333 -16.5 33.333 -25.5 54s-15.167 41.334 -18.5 62.001c-33.333 -42 -72 -75.333 -116 -100s-97.333 -37 -160 -37zM517.999 210.996c33.333 0 65.5 7.16797 96.5 21.501s56.5 34.166 76.5 59.499v164h-127
c-55.333 0 -97.833 -12.5 -127.5 -37.5s-44.5 -56.5 -44.5 -94.5c0 -35.333 11.5 -63 34.5 -83s53.5 -30 91.5 -30zM552.999 1229c-69.333 0 -127.168 20.667 -173.501 62s-69.5 94.333 -69.5 159c0 63.333 23.333 116.5 70 159.5s104.334 64.5 173.001 64.5
c67.333 0 124 -21.667 170 -65s69 -96.333 69 -159c0 -64.667 -23 -117.667 -69 -159s-102.667 -62 -170 -62zM552.997 1355c27.333 0 49.166 8.5 65.499 25.5s24.5 40.167 24.5 69.5c0 28.667 -8.16699 51.834 -24.5 69.501s-38.166 26.5 -65.499 26.5
s-50 -8.83301 -68 -26.5s-27 -40.834 -27 -69.501s8.83301 -51.667 26.5 -69s40.5 -26 68.5 -26z" />
    <glyph glyph-name="ae" unicode="&#xe6;" horiz-adv-x="1715" 
d="M452 -21c-118.667 0 -211.503 29.3311 -278.503 87.998s-100.5 137.667 -100.5 237c0 68 18.167 127.833 54.5 179.5s90.833 92.167 163.5 121.5s163 44 271 44h129v71c0 47.333 -13.833 86.833 -41.5 118.5s-69.834 47.5 -126.501 47.5
c-27.333 0 -52.166 -3.5 -74.499 -10.5s-42.5 -16.5 -60.5 -28.5l-23 -140h-229l-4 290c58.667 30 121.334 55 188.001 75s141 30 223 30c70.667 0 134 -10.667 190 -32s102.333 -53.666 139 -96.999c28 29.333 58.333 53.5 91 72.5s67.834 33.167 105.501 42.5
s77.834 14 120.501 14c94 0 175.167 -20 243.5 -60s120.833 -96.667 157.5 -170s55 -160 55 -260v-170h-632l-2 -7c4 -64.667 25.167 -116 63.5 -154s96.833 -57 175.5 -57c56.667 0 105 6.16699 145 18.5s86 30.833 138 55.5l80 -199c-43.333 -32 -102 -60 -176 -84
s-151.667 -36 -233 -36c-162.667 0 -288.667 50 -378 150c-48 -47.333 -102.333 -84.166 -163 -110.499s-131 -39.5 -211 -39.5zM518.997 210.998c24 0 48 3.83301 72 11.5s46.5 18.667 67.5 33s38.5 31.5 52.5 51.5c-7.33301 23.333 -12.5 47.333 -15.5 72
s-4.5 47.334 -4.5 68.001v9h-127c-55.333 0 -97.833 -12.333 -127.5 -37s-44.5 -56 -44.5 -94c0 -34.667 11.5 -62.334 34.5 -83.001s53.833 -31 92.5 -31zM1014 644.998l318 -0.00195312v28c0 56.667 -13.667 101.334 -41 134.001s-65 49 -113 49
c-32 0 -60 -8.33301 -84 -25s-43 -40.167 -57 -70.5s-22.333 -67.166 -25 -110.499z" />
    <glyph glyph-name="ccedilla" unicode="&#xe7;" horiz-adv-x="1087" 
d="M574 -21c-105.333 0 -196.167 23.4971 -272.5 70.4971s-135.166 111.667 -176.499 194s-62 176.5 -62 282.5v27c0 107.333 21.167 202.333 63.5 285s101.5 147.334 177.5 194.001s165.333 70 268 70c100 0 186.167 -15.333 258.5 -46s129.833 -64.667 172.5 -102l-4 -326
h-240l-41 195c-13.333 14 -30.833 25.167 -52.5 33.5s-42.167 12.5 -61.5 12.5c-52 0 -94 -12 -126 -36s-55.5 -59.333 -70.5 -106s-22.5 -104.667 -22.5 -174v-27c0 -72.667 9 -131 27 -175s41.667 -76.167 71 -96.5s60.666 -30.5 93.999 -30.5c46.667 0 83.667 12 111 36
s47 58.667 59 104h271l4 -6c-13.333 -81.333 -37 -150.166 -71 -206.499s-81.333 -99.166 -142 -128.499s-139 -44 -235 -44zM427.999 -467.003l-7 175.998c37.333 0 66.833 6 88.5 18s32.5 31 32.5 57c0 27.333 -11.5 46.5 -34.5 57.5s-58.5 17.5 -106.5 19.5l32 153h239
l-12 -69c44.667 -7.33301 82.167 -24.166 112.5 -50.499s45.5 -65.166 45.5 -116.499c0 -74 -34 -133.333 -102 -178s-164 -67 -288 -67z" />
    <glyph glyph-name="egrave" unicode="&#xe8;" horiz-adv-x="1084" 
d="M586 -21c-105.333 0 -197.001 22.833 -275.001 68.5s-138.5 108.334 -181.5 188.001s-64.5 170.167 -64.5 271.5v38c0 108.667 19.667 205 59 289s96 149.833 170 197.5s162.667 71.167 266 70.5c98 0 180.667 -19 248 -57s118.5 -93.5 153.5 -166.5
s52.5 -161.833 52.5 -266.5v-170h-616l-1 -7c4.66699 -40.667 16.334 -76.834 35.001 -108.501s44.834 -56.667 78.501 -75s74.834 -27.5 123.501 -27.5c49.333 0 96.5 6 141.5 18s90.833 30.333 137.5 55l79 -196c-46.667 -34.667 -104.334 -63.667 -173.001 -87
s-146.334 -35 -233.001 -35zM399.999 647l318 -0.000976562v26c0 40.667 -5 75.5 -15 104.5s-26 51.167 -48 66.5s-51.333 23 -88 23c-37.333 0 -67.833 -9.33301 -91.5 -28s-41.667 -44.167 -54 -76.5s-20.833 -69.166 -25.5 -110.499zM744.999 1287h-7h-254l-278 267l2 6
h333z" />
    <glyph glyph-name="eacute" unicode="&#xe9;" horiz-adv-x="1084" 
d="M586 -21c-105.333 0 -197.001 22.833 -275.001 68.5s-138.5 108.334 -181.5 188.001s-64.5 170.167 -64.5 271.5v38c0 108.667 19.667 205 59 289s96 149.833 170 197.5s162.667 71.167 266 70.5c98 0 180.667 -19 248 -57s118.5 -93.5 153.5 -166.5
s52.5 -161.833 52.5 -266.5v-170h-616l-1 -7c4.66699 -40.667 16.334 -76.834 35.001 -108.501s44.834 -56.667 78.501 -75s74.834 -27.5 123.501 -27.5c49.333 0 96.5 6 141.5 18s90.833 30.333 137.5 55l79 -196c-46.667 -34.667 -104.334 -63.667 -173.001 -87
s-146.334 -35 -233.001 -35zM399.999 647l318 -0.000976562v26c0 40.667 -5 75.5 -15 104.5s-26 51.167 -48 66.5s-51.333 23 -88 23c-37.333 0 -67.833 -9.33301 -91.5 -28s-41.667 -44.167 -54 -76.5s-20.833 -69.166 -25.5 -110.499zM361.999 1287l203 273h334l2 -6
l-278 -267h-254h-7z" />
    <glyph glyph-name="ecircumflex" unicode="&#xea;" horiz-adv-x="1084" 
d="M586 -21c-105.333 0 -197.001 22.833 -275.001 68.5s-138.5 108.334 -181.5 188.001s-64.5 170.167 -64.5 271.5v38c0 108.667 19.667 205 59 289s96 149.833 170 197.5s162.667 71.167 266 70.5c98 0 180.667 -19 248 -57s118.5 -93.5 153.5 -166.5
s52.5 -161.833 52.5 -266.5v-170h-616l-1 -7c4.66699 -40.667 16.334 -76.834 35.001 -108.501s44.834 -56.667 78.501 -75s74.834 -27.5 123.501 -27.5c49.333 0 96.5 6 141.5 18s90.833 30.333 137.5 55l79 -196c-46.667 -34.667 -104.334 -63.667 -173.001 -87
s-146.334 -35 -233.001 -35zM399.999 647l318 -0.000976562v26c0 40.667 -5 75.5 -15 104.5s-26 51.167 -48 66.5s-51.333 23 -88 23c-37.333 0 -67.833 -9.33301 -91.5 -28s-41.667 -44.167 -54 -76.5s-20.833 -69.166 -25.5 -110.499zM174.999 1289v26l257 245h246
l255 -249v-22h-249l-130 143l-134 -143h-245z" />
    <glyph glyph-name="edieresis" unicode="&#xeb;" horiz-adv-x="1084" 
d="M586 -21c-105.333 0 -197.001 22.833 -275.001 68.5s-138.5 108.334 -181.5 188.001s-64.5 170.167 -64.5 271.5v38c0 108.667 19.667 205 59 289s96 149.833 170 197.5s162.667 71.167 266 70.5c98 0 180.667 -19 248 -57s118.5 -93.5 153.5 -166.5
s52.5 -161.833 52.5 -266.5v-170h-616l-1 -7c4.66699 -40.667 16.334 -76.834 35.001 -108.501s44.834 -56.667 78.501 -75s74.834 -27.5 123.501 -27.5c49.333 0 96.5 6 141.5 18s90.833 30.333 137.5 55l79 -196c-46.667 -34.667 -104.334 -63.667 -173.001 -87
s-146.334 -35 -233.001 -35zM399.999 647l318 -0.000976562v26c0 40.667 -5 75.5 -15 104.5s-26 51.167 -48 66.5s-51.333 23 -88 23c-37.333 0 -67.833 -9.33301 -91.5 -28s-41.667 -44.167 -54 -76.5s-20.833 -69.166 -25.5 -110.499zM631.999 1299v261h304v-261h-304z
M171.999 1299v261h304v-261h-304z" />
    <glyph glyph-name="igrave" unicode="&#xec;" horiz-adv-x="664" 
d="M50 0v190l134 31v639l-153 31v191h474v-861l134 -31v-190h-589zM532 1287h-7h-254l-278 267l2 6h333z" />
    <glyph glyph-name="iacute" unicode="&#xed;" horiz-adv-x="664" 
d="M50 0v190l134 31v639l-153 31v191h474v-861l134 -31v-190h-589zM149 1287l203 273h334l2 -6l-278 -267h-254h-7z" />
    <glyph glyph-name="icircumflex" unicode="&#xee;" horiz-adv-x="664" 
d="M50 0v190l134 31v639l-153 31v191h474v-861l134 -31v-190h-589zM-39 1289v26l257 245h246l255 -249v-22h-249l-130 143l-134 -143h-245z" />
    <glyph glyph-name="idieresis" unicode="&#xef;" horiz-adv-x="664" 
d="M50 0v190l134 31v639l-153 31v191h474v-861l134 -31v-190h-589zM418 1299v261h304v-261h-304zM-42 1299v261h304v-261h-304z" />
    <glyph glyph-name="eth" unicode="&#xf0;" horiz-adv-x="1225" 
d="M605 -21c-108.667 0 -204.333 21.6631 -287 64.9961s-147.167 102.833 -193.5 178.5s-69.5 161.834 -69.5 258.501c0 96 19.667 180.333 59 253s96.166 129 170.499 169s162.833 60 265.5 60c51.333 0 99.333 -6.16699 144 -18.5s83.667 -30.166 117 -53.499l4 3
c-13.333 46 -32.666 88.833 -57.999 128.5s-55.333 76.5 -90 110.5l-218 -121l-79 117l174 95c-23.333 12 -47 22.833 -71 32.5s-48 18.167 -72 25.5l103 235c58.667 -13.333 115 -31.833 169 -55.5s104.667 -52.167 152 -85.5l199 112l77 -117l-164 -90
c74 -77.333 131.167 -167.666 171.5 -270.999s60.5 -217 60.5 -341v-69c0 -121.333 -24.667 -228.666 -74 -321.999s-116.5 -166.5 -201.5 -219.5s-181.167 -79.5 -288.5 -79.5zM601.001 223.996c52.667 0 97.334 16.167 134.001 48.5s64.667 76.666 84 132.999
s29 121.166 29 194.499v31v25c-22 22.667 -52.833 41.334 -92.5 56.001s-84.5 22 -134.5 22c-53.333 0 -98.5 -10.667 -135.5 -32s-64.833 -51.166 -83.5 -89.499s-28 -83.5 -28 -135.5c0 -48.667 9.66699 -92.167 29 -130.5s46.166 -68.333 80.499 -90
s73.5 -32.5 117.5 -32.5z" />
    <glyph glyph-name="ntilde" unicode="&#xf1;" horiz-adv-x="1296" 
d="M45 0l-0.00390625 190.001l133 31v639l-153 31v191h455l12 -153c36 54.667 80.5 97.167 133.5 127.5s112.833 45.5 179.5 45.5c104.667 0 186.834 -34.333 246.501 -103s89.5 -177 89.5 -325v-453l133 -31v-190h-569v190l114 31v453
c0 65.333 -13.167 111.666 -39.5 138.999s-64.166 41 -113.499 41c-37.333 0 -69.666 -7.33301 -96.999 -22s-50.666 -36 -69.999 -64v-547l104 -31v-190h-558zM430.996 1277l-165 44c0 46 11 88.5 33 127.5s50.833 70.167 86.5 93.5s73.834 35 114.501 35
c33.333 0 67.333 -7.83301 102 -23.5s67.667 -31.5 99 -47.5s58.333 -24.333 81 -25c27.333 1.33301 48.5 12 63.5 32s22.5 45.667 22.5 77l165 -47c0 -47.333 -10.833 -90.333 -32.5 -129s-50.334 -69.5 -86.001 -92.5s-74.5 -34.5 -116.5 -34.5
c-35.333 0 -70.5 8 -105.5 24s-67.5 32.167 -97.5 48.5s-56.333 24.5 -79 24.5c-27.333 0 -48.333 -10.667 -63 -32s-22 -46.333 -22 -75z" />
    <glyph glyph-name="ograve" unicode="&#xf2;" horiz-adv-x="1164" 
d="M584 -21c-109.333 0 -202.832 23.1689 -280.499 69.502s-137.167 111 -178.5 194s-62 179.167 -62 288.5v20c0 108 20.667 203.333 62 286s100.666 147.5 177.999 194.5s170.333 70.5 279 70.5c109.333 0 202.5 -23.333 279.5 -70s136.167 -111.334 177.5 -194.001
s62 -178.334 62 -287.001v-20c0 -108.667 -20.667 -204.5 -62 -287.5s-100.5 -147.833 -177.5 -194.5s-169.5 -70 -277.5 -70zM584.001 224.002c46.667 0 84.332 12.667 112.999 38s49.834 61 63.501 107s20.5 100 20.5 162v20c0 60.667 -6.83301 113.834 -20.5 159.501
s-35 81.334 -64 107.001s-67.167 38.5 -114.5 38.5c-46.667 0 -84.5 -12.833 -113.5 -38.5s-50.167 -61.334 -63.5 -107.001s-20 -98.834 -20 -159.501v-20c0 -62.667 6.66699 -117 20 -163s34.5 -81.5 63.5 -106.5s67.5 -37.5 115.5 -37.5zM773.999 1287h-7h-254l-278 267
l2 6h333z" />
    <glyph glyph-name="oacute" unicode="&#xf3;" horiz-adv-x="1164" 
d="M584 -21c-109.333 0 -202.832 23.1689 -280.499 69.502s-137.167 111 -178.5 194s-62 179.167 -62 288.5v20c0 108 20.667 203.333 62 286s100.666 147.5 177.999 194.5s170.333 70.5 279 70.5c109.333 0 202.5 -23.333 279.5 -70s136.167 -111.334 177.5 -194.001
s62 -178.334 62 -287.001v-20c0 -108.667 -20.667 -204.5 -62 -287.5s-100.5 -147.833 -177.5 -194.5s-169.5 -70 -277.5 -70zM584.001 224.002c46.667 0 84.332 12.667 112.999 38s49.834 61 63.501 107s20.5 100 20.5 162v20c0 60.667 -6.83301 113.834 -20.5 159.501
s-35 81.334 -64 107.001s-67.167 38.5 -114.5 38.5c-46.667 0 -84.5 -12.833 -113.5 -38.5s-50.167 -61.334 -63.5 -107.001s-20 -98.834 -20 -159.501v-20c0 -62.667 6.66699 -117 20 -163s34.5 -81.5 63.5 -106.5s67.5 -37.5 115.5 -37.5zM391.999 1287l203 273h334l2 -6
l-278 -267h-254h-7z" />
    <glyph glyph-name="ocircumflex" unicode="&#xf4;" horiz-adv-x="1164" 
d="M584 -21c-109.333 0 -202.832 23.1689 -280.499 69.502s-137.167 111 -178.5 194s-62 179.167 -62 288.5v20c0 108 20.667 203.333 62 286s100.666 147.5 177.999 194.5s170.333 70.5 279 70.5c109.333 0 202.5 -23.333 279.5 -70s136.167 -111.334 177.5 -194.001
s62 -178.334 62 -287.001v-20c0 -108.667 -20.667 -204.5 -62 -287.5s-100.5 -147.833 -177.5 -194.5s-169.5 -70 -277.5 -70zM584.001 224.002c46.667 0 84.332 12.667 112.999 38s49.834 61 63.501 107s20.5 100 20.5 162v20c0 60.667 -6.83301 113.834 -20.5 159.501
s-35 81.334 -64 107.001s-67.167 38.5 -114.5 38.5c-46.667 0 -84.5 -12.833 -113.5 -38.5s-50.167 -61.334 -63.5 -107.001s-20 -98.834 -20 -159.501v-20c0 -62.667 6.66699 -117 20 -163s34.5 -81.5 63.5 -106.5s67.5 -37.5 115.5 -37.5zM203.999 1289v26l257 245h246
l255 -249v-22h-249l-130 143l-134 -143h-245z" />
    <glyph glyph-name="otilde" unicode="&#xf5;" horiz-adv-x="1164" 
d="M584 -21c-109.333 0 -202.832 23.1689 -280.499 69.502s-137.167 111 -178.5 194s-62 179.167 -62 288.5v20c0 108 20.667 203.333 62 286s100.666 147.5 177.999 194.5s170.333 70.5 279 70.5c109.333 0 202.5 -23.333 279.5 -70s136.167 -111.334 177.5 -194.001
s62 -178.334 62 -287.001v-20c0 -108.667 -20.667 -204.5 -62 -287.5s-100.5 -147.833 -177.5 -194.5s-169.5 -70 -277.5 -70zM584.001 224.002c46.667 0 84.332 12.667 112.999 38s49.834 61 63.501 107s20.5 100 20.5 162v20c0 60.667 -6.83301 113.834 -20.5 159.501
s-35 81.334 -64 107.001s-67.167 38.5 -114.5 38.5c-46.667 0 -84.5 -12.833 -113.5 -38.5s-50.167 -61.334 -63.5 -107.001s-20 -98.834 -20 -159.501v-20c0 -62.667 6.66699 -117 20 -163s34.5 -81.5 63.5 -106.5s67.5 -37.5 115.5 -37.5zM364.999 1277l-165 44
c0 46 11 88.5 33 127.5s50.833 70.167 86.5 93.5s73.834 35 114.501 35c33.333 0 67.333 -7.83301 102 -23.5s67.667 -31.5 99 -47.5s58.333 -24.333 81 -25c27.333 1.33301 48.5 12 63.5 32s22.5 45.667 22.5 77l165 -47c0 -47.333 -10.833 -90.333 -32.5 -129
s-50.334 -69.5 -86.001 -92.5s-74.5 -34.5 -116.5 -34.5c-35.333 0 -70.5 8 -105.5 24s-67.5 32.167 -97.5 48.5s-56.333 24.5 -79 24.5c-27.333 0 -48.333 -10.667 -63 -32s-22 -46.333 -22 -75z" />
    <glyph glyph-name="odieresis" unicode="&#xf6;" horiz-adv-x="1164" 
d="M584 -21c-109.333 0 -202.832 23.1689 -280.499 69.502s-137.167 111 -178.5 194s-62 179.167 -62 288.5v20c0 108 20.667 203.333 62 286s100.666 147.5 177.999 194.5s170.333 70.5 279 70.5c109.333 0 202.5 -23.333 279.5 -70s136.167 -111.334 177.5 -194.001
s62 -178.334 62 -287.001v-20c0 -108.667 -20.667 -204.5 -62 -287.5s-100.5 -147.833 -177.5 -194.5s-169.5 -70 -277.5 -70zM584.001 224.002c46.667 0 84.332 12.667 112.999 38s49.834 61 63.501 107s20.5 100 20.5 162v20c0 60.667 -6.83301 113.834 -20.5 159.501
s-35 81.334 -64 107.001s-67.167 38.5 -114.5 38.5c-46.667 0 -84.5 -12.833 -113.5 -38.5s-50.167 -61.334 -63.5 -107.001s-20 -98.834 -20 -159.501v-20c0 -62.667 6.66699 -117 20 -163s34.5 -81.5 63.5 -106.5s67.5 -37.5 115.5 -37.5zM660.999 1299v261h304v-261h-304
zM200.999 1299v261h304v-261h-304z" />
    <glyph glyph-name="divide" unicode="&#xf7;" horiz-adv-x="1129" 
d="M51 565v239h1036v-239h-1036zM410 159v243h320v-243h-320zM410 965v242h320v-242h-320z" />
    <glyph glyph-name="oslash" unicode="&#xf8;" horiz-adv-x="1164" 
d="M584 -21c-109.333 0 -202.832 23.1689 -280.499 69.502s-137.167 111 -178.5 194s-62 179.167 -62 288.5v20c0 108 20.667 203.333 62 286s100.666 147.5 177.999 194.5s170.333 70.5 279 70.5c109.333 0 202.5 -23.333 279.5 -70s136.167 -111.334 177.5 -194.001
s62 -178.334 62 -287.001v-20c0 -108.667 -20.667 -204.5 -62 -287.5s-100.5 -147.833 -177.5 -194.5s-169.5 -70 -277.5 -70zM584.001 224.002c46.667 0 84.332 12.667 112.999 38s49.834 61 63.501 107s20.5 100 20.5 162v20c0 60.667 -6.83301 113.834 -20.5 159.501
s-35 81.334 -64 107.001s-67.167 38.5 -114.5 38.5c-46.667 0 -84.5 -12.833 -113.5 -38.5s-50.167 -61.334 -63.5 -107.001s-20 -98.834 -20 -159.501v-20c0 -62.667 6.66699 -117 20 -163s34.5 -81.5 63.5 -106.5s67.5 -37.5 115.5 -37.5zM164.999 -138.998l663 1360h172
l-662 -1360h-173z" />
    <glyph glyph-name="ugrave" unicode="&#xf9;" horiz-adv-x="1284" 
d="M513 -21c-113.333 0 -202.168 35.834 -266.501 107.501s-96.5 182.5 -96.5 332.5v441l-117 31v191h117h322v-665c0 -65.333 12.167 -113.333 36.5 -144s61.5 -46 111.5 -46c34.667 0 66.667 6.66699 96 20s54.333 32.666 75 57.999v555l-123 31v191h123h322v-861l133 -31
v-190h-414l-21 130c-34.667 -48.667 -77.167 -86 -127.5 -112s-107.166 -39 -170.499 -39zM827.998 1287h-7h-254l-278 267l2 6h333z" />
    <glyph glyph-name="uacute" unicode="&#xfa;" horiz-adv-x="1284" 
d="M513 -21c-113.333 0 -202.168 35.834 -266.501 107.501s-96.5 182.5 -96.5 332.5v441l-117 31v191h117h322v-665c0 -65.333 12.167 -113.333 36.5 -144s61.5 -46 111.5 -46c34.667 0 66.667 6.66699 96 20s54.333 32.666 75 57.999v555l-123 31v191h123h322v-861l133 -31
v-190h-414l-21 130c-34.667 -48.667 -77.167 -86 -127.5 -112s-107.166 -39 -170.499 -39zM444.998 1287l203 273h334l2 -6l-278 -267h-254h-7z" />
    <glyph glyph-name="ucircumflex" unicode="&#xfb;" horiz-adv-x="1284" 
d="M513 -21c-113.333 0 -202.168 35.834 -266.501 107.501s-96.5 182.5 -96.5 332.5v441l-117 31v191h117h322v-665c0 -65.333 12.167 -113.333 36.5 -144s61.5 -46 111.5 -46c34.667 0 66.667 6.66699 96 20s54.333 32.666 75 57.999v555l-123 31v191h123h322v-861l133 -31
v-190h-414l-21 130c-34.667 -48.667 -77.167 -86 -127.5 -112s-107.166 -39 -170.499 -39zM257.998 1289v26l257 245h246l255 -249v-22h-249l-130 143l-134 -143h-245z" />
    <glyph glyph-name="udieresis" unicode="&#xfc;" horiz-adv-x="1284" 
d="M513 -21c-113.333 0 -202.168 35.834 -266.501 107.501s-96.5 182.5 -96.5 332.5v441l-117 31v191h117h322v-665c0 -65.333 12.167 -113.333 36.5 -144s61.5 -46 111.5 -46c34.667 0 66.667 6.66699 96 20s54.333 32.666 75 57.999v555l-123 31v191h123h322v-861l133 -31
v-190h-414l-21 130c-34.667 -48.667 -77.167 -86 -127.5 -112s-107.166 -39 -170.499 -39zM714.998 1299v261h304v-261h-304zM254.998 1299v261h304v-261h-304z" />
    <glyph glyph-name="yacute" unicode="&#xfd;" horiz-adv-x="1314" 
d="M379 -437c-27.333 0 -56.001 2.33301 -86.001 7s-59.333 11.334 -88 20.001l38 232c12.667 -2.66699 26 -4.83398 40 -6.50098s27 -2.5 39 -2.5c42.667 0 79.834 9.33301 111.501 28s53.167 46.667 64.5 84l17 53l-355 893l-139 20v191h612v-191l-133 -20l157 -458
l12 -33h6l186 494l-127 17v191h563v-191l-125 -17l-409 -1034c-19.333 -48.667 -44.833 -94.167 -76.5 -136.5s-72.5 -76.333 -122.5 -102s-111.667 -38.5 -185 -38.5zM470.999 1287l203 273h334l2 -6l-278 -267h-254h-7z" />
    <glyph glyph-name="thorn" unicode="&#xfe;" horiz-adv-x="1247" 
d="M57 -416l-0.000976562 191l133 31v1532l-153 31v191h474v-589c30 42 66 74.333 108 97s92.333 34 151 34c86.667 0 160.834 -23.667 222.501 -71s109 -113.5 142 -198.5s49.5 -183.833 49.5 -296.5v-21c0 -107.333 -16.667 -201.333 -50 -282s-81 -143.167 -143 -187.5
s-136.667 -66.5 -224 -66.5c-56 0 -105.167 10.167 -147.5 30.5s-78.5 50.5 -108.5 90.5v-294l134 -31v-191h-588zM668.999 224c70 0 119.668 25.8311 149.001 77.498s44 122.834 44 213.501v21c0 63.333 -6.66699 118.833 -20 166.5s-34.333 84.834 -63 111.501
s-66 40 -112 40c-34 0 -64.667 -7.66699 -92 -23s-48.666 -38.333 -63.999 -69v-458c15.333 -26 36.666 -45.833 63.999 -59.5s58.666 -20.5 93.999 -20.5z" />
    <glyph glyph-name="ydieresis" unicode="&#xff;" horiz-adv-x="1314" 
d="M379 -437c-27.333 0 -56.001 2.33301 -86.001 7s-59.333 11.334 -88 20.001l38 232c12.667 -2.66699 26 -4.83398 40 -6.50098s27 -2.5 39 -2.5c42.667 0 79.834 9.33301 111.501 28s53.167 46.667 64.5 84l17 53l-355 893l-139 20v191h612v-191l-133 -20l157 -458
l12 -33h6l186 494l-127 17v191h563v-191l-125 -17l-409 -1034c-19.333 -48.667 -44.833 -94.167 -76.5 -136.5s-72.5 -76.333 -122.5 -102s-111.667 -38.5 -185 -38.5zM739.999 1299v261h304v-261h-304zM279.999 1299v261h304v-261h-304z" />
    <glyph glyph-name="Amacron" unicode="&#x100;" horiz-adv-x="1506" 
d="M32 0v190l103 15l449 1251h339l448 -1251l103 -15v-190h-520v190l98 18l-54 179h-490l-53 -179l97 -18v-190h-520zM579 618h346l-155 470l-16 47h-6l-16 -52zM386 1578v185h734v-185h-734z" />
    <glyph glyph-name="amacron" unicode="&#x101;" horiz-adv-x="1160" 
d="M426 -21c-106.667 0 -192.168 29.3291 -256.501 87.9961s-96.5 137.334 -96.5 236.001c0 67.333 18.167 127 54.5 179s90.833 92.667 163.5 122s163 44 271 44h129v72c0 47.333 -13.833 86.833 -41.5 118.5s-69.834 47.5 -126.501 47.5
c-27.333 0 -52.166 -3.5 -74.499 -10.5s-42.5 -16.5 -60.5 -28.5l-23 -140h-229l-4 290c58.667 30 121.334 55 188.001 75s141 30 223 30c144 0 258.167 -33.333 342.5 -100s126.5 -162 126.5 -286v-422c0 -15.333 0.166992 -30.166 0.5 -44.499
s1.83301 -28.166 4.5 -41.499l114 -18v-190h-385c-8 15.333 -16.5 33.333 -25.5 54s-15.167 41.334 -18.5 62.001c-33.333 -42 -72 -75.333 -116 -100s-97.333 -37 -160 -37zM517.999 210.996c33.333 0 65.5 7.16797 96.5 21.501s56.5 34.166 76.5 59.499v164h-127
c-55.333 0 -97.833 -12.5 -127.5 -37.5s-44.5 -56.5 -44.5 -94.5c0 -35.333 11.5 -63 34.5 -83s53.5 -30 91.5 -30zM183.999 1300v185h734v-185h-734z" />
    <glyph glyph-name="Abreve" unicode="&#x102;" horiz-adv-x="1506" 
d="M32 0v190l103 15l449 1251h339l448 -1251l103 -15v-190h-520v190l98 18l-54 179h-490l-53 -179l97 -18v-190h-520zM579 618h346l-155 470l-16 47h-6l-16 -52zM755 1539c-111.333 0 -200 27.334 -266 82.001s-97 125 -93 211l2 6h213c0 -36 11.5 -66 34.5 -90
s59.5 -36 109.5 -36c48 0 83.5 11.667 106.5 35s34.5 53.666 34.5 90.999h214l2 -6c2.66699 -86 -28.5 -156.333 -93.5 -211s-152.833 -82 -263.5 -82z" />
    <glyph glyph-name="abreve" unicode="&#x103;" horiz-adv-x="1160" 
d="M426 -21c-106.667 0 -192.168 29.3291 -256.501 87.9961s-96.5 137.334 -96.5 236.001c0 67.333 18.167 127 54.5 179s90.833 92.667 163.5 122s163 44 271 44h129v72c0 47.333 -13.833 86.833 -41.5 118.5s-69.834 47.5 -126.501 47.5
c-27.333 0 -52.166 -3.5 -74.499 -10.5s-42.5 -16.5 -60.5 -28.5l-23 -140h-229l-4 290c58.667 30 121.334 55 188.001 75s141 30 223 30c144 0 258.167 -33.333 342.5 -100s126.5 -162 126.5 -286v-422c0 -15.333 0.166992 -30.166 0.5 -44.499
s1.83301 -28.166 4.5 -41.499l114 -18v-190h-385c-8 15.333 -16.5 33.333 -25.5 54s-15.167 41.334 -18.5 62.001c-33.333 -42 -72 -75.333 -116 -100s-97.333 -37 -160 -37zM517.999 210.996c33.333 0 65.5 7.16797 96.5 21.501s56.5 34.166 76.5 59.499v164h-127
c-55.333 0 -97.833 -12.5 -127.5 -37.5s-44.5 -56.5 -44.5 -94.5c0 -35.333 11.5 -63 34.5 -83s53.5 -30 91.5 -30zM551.999 1261c-111.333 0 -200 27.334 -266 82.001s-97 125 -93 211l2 6h213c0 -36 11.5 -66 34.5 -90s59.5 -36 109.5 -36c48 0 83.5 11.667 106.5 35
s34.5 53.666 34.5 90.999h214l2 -6c2.66699 -86 -28.5 -156.333 -93.5 -211s-152.833 -82 -263.5 -82z" />
    <glyph glyph-name="Aogonek" unicode="&#x104;" horiz-adv-x="1506" 
d="M32 0v190l103 15l449 1251h339l448 -1251l103 -15v-190h-520v190l98 18l-54 179h-490l-53 -179l97 -18v-190h-520zM579 618h346l-155 470l-16 47h-6l-16 -52zM1365 -421c-77.333 0 -140.333 19.3311 -189 57.998s-73 93 -73 163c0 48 17.333 95.833 52 143.5
s93.334 86.834 176.001 117.501l143 -61c-49.333 -28.667 -84.333 -55.667 -105 -81s-31 -52 -31 -80c0 -24 6.66699 -41.833 20 -53.5s34.666 -17.5 63.999 -17.5c15.333 0 29.333 1.33301 42 4s24.667 5.66699 36 9l36 -163c-22.667 -11.333 -47.667 -20.666 -75 -27.999
s-59.333 -11 -96 -11z" />
    <glyph glyph-name="aogonek" unicode="&#x105;" horiz-adv-x="1160" 
d="M426 -21c-106.667 0 -192.168 29.3291 -256.501 87.9961s-96.5 137.334 -96.5 236.001c0 67.333 18.167 127 54.5 179s90.833 92.667 163.5 122s163 44 271 44h129v72c0 47.333 -13.833 86.833 -41.5 118.5s-69.834 47.5 -126.501 47.5
c-27.333 0 -52.166 -3.5 -74.499 -10.5s-42.5 -16.5 -60.5 -28.5l-23 -140h-229l-4 290c58.667 30 121.334 55 188.001 75s141 30 223 30c144 0 258.167 -33.333 342.5 -100s126.5 -162 126.5 -286v-422c0 -15.333 0.166992 -30.166 0.5 -44.499
s1.83301 -28.166 4.5 -41.499l114 -18v-190h-385c-8 15.333 -16.5 33.333 -25.5 54s-15.167 41.334 -18.5 62.001c-33.333 -42 -72 -75.333 -116 -100s-97.333 -37 -160 -37zM517.999 210.996c33.333 0 65.5 7.16797 96.5 21.501s56.5 34.166 76.5 59.499v164h-127
c-55.333 0 -97.833 -12.5 -127.5 -37.5s-44.5 -56.5 -44.5 -94.5c0 -35.333 11.5 -63 34.5 -83s53.5 -30 91.5 -30zM1023 -421.003c-77.333 0 -140.333 19.3311 -189 57.998s-73 93 -73 163c0 48 17.333 95.833 52 143.5s93.334 86.834 176.001 117.501l143 -61
c-49.333 -28.667 -84.333 -55.667 -105 -81s-31 -52 -31 -80c0 -24 6.66699 -41.833 20 -53.5s34.666 -17.5 63.999 -17.5c15.333 0 29.333 1.33301 42 4s24.667 5.66699 36 9l36 -163c-22.667 -11.333 -47.667 -20.666 -75 -27.999s-59.333 -11 -96 -11z" />
    <glyph glyph-name="Cacute" unicode="&#x106;" horiz-adv-x="1330" 
d="M752 -21c-140 0 -263.335 28.833 -370.002 86.5s-189.667 140 -249 247s-89 235.5 -89 385.5v59c0 140 27.833 264.167 83.5 372.5s135.5 193.333 239.5 255s227.333 92.5 370 92.5c100 0 194.5 -13.667 283.5 -41s170.5 -72 244.5 -134v-363h-237l-32 218
c-22.667 15.333 -46.667 28.666 -72 39.999s-52.666 20 -81.999 26s-61 9 -95 9c-78 0 -145.667 -19 -203 -57s-101.5 -92.167 -132.5 -162.5s-46.5 -154.833 -46.5 -253.5v-61c0 -95.333 16 -178.666 48 -249.999s77.5 -126.666 136.5 -165.999s128.167 -59 207.5 -59
c40.667 0 81.667 4.5 123 13.5s80 20.833 116 35.5l33 205h236v-357c-57.333 -38.667 -129.666 -71.834 -216.999 -99.501s-186 -41.5 -296 -41.5zM529.998 1565l203 273h334l2 -6l-278 -267h-254h-7z" />
    <glyph glyph-name="cacute" unicode="&#x107;" horiz-adv-x="1087" 
d="M574 -21c-105.333 0 -196.167 23.4971 -272.5 70.4971s-135.166 111.667 -176.499 194s-62 176.5 -62 282.5v27c0 107.333 21.167 202.333 63.5 285s101.5 147.334 177.5 194.001s165.333 70 268 70c100 0 186.167 -15.333 258.5 -46s129.833 -64.667 172.5 -102l-4 -326
h-240l-41 195c-13.333 14 -30.833 25.167 -52.5 33.5s-42.167 12.5 -61.5 12.5c-52 0 -94 -12 -126 -36s-55.5 -59.333 -70.5 -106s-22.5 -104.667 -22.5 -174v-27c0 -72.667 9 -131 27 -175s41.667 -76.167 71 -96.5s60.666 -30.5 93.999 -30.5c46.667 0 83.667 12 111 36
s47 58.667 59 104h271l4 -6c-13.333 -81.333 -37 -150.166 -71 -206.499s-81.333 -99.166 -142 -128.499s-139 -44 -235 -44zM361.999 1287l203 273h334l2 -6l-278 -267h-254h-7z" />
    <glyph glyph-name="Ccircumflex" unicode="&#x108;" horiz-adv-x="1330" 
d="M752 -21c-140 0 -263.335 28.833 -370.002 86.5s-189.667 140 -249 247s-89 235.5 -89 385.5v59c0 140 27.833 264.167 83.5 372.5s135.5 193.333 239.5 255s227.333 92.5 370 92.5c100 0 194.5 -13.667 283.5 -41s170.5 -72 244.5 -134v-363h-237l-32 218
c-22.667 15.333 -46.667 28.666 -72 39.999s-52.666 20 -81.999 26s-61 9 -95 9c-78 0 -145.667 -19 -203 -57s-101.5 -92.167 -132.5 -162.5s-46.5 -154.833 -46.5 -253.5v-61c0 -95.333 16 -178.666 48 -249.999s77.5 -126.666 136.5 -165.999s128.167 -59 207.5 -59
c40.667 0 81.667 4.5 123 13.5s80 20.833 116 35.5l33 205h236v-357c-57.333 -38.667 -129.666 -71.834 -216.999 -99.501s-186 -41.5 -296 -41.5zM341.998 1567v26l257 245h246l255 -249v-22h-249l-130 143l-134 -143h-245z" />
    <glyph glyph-name="ccircumflex" unicode="&#x109;" horiz-adv-x="1087" 
d="M574 -21c-105.333 0 -196.167 23.4971 -272.5 70.4971s-135.166 111.667 -176.499 194s-62 176.5 -62 282.5v27c0 107.333 21.167 202.333 63.5 285s101.5 147.334 177.5 194.001s165.333 70 268 70c100 0 186.167 -15.333 258.5 -46s129.833 -64.667 172.5 -102l-4 -326
h-240l-41 195c-13.333 14 -30.833 25.167 -52.5 33.5s-42.167 12.5 -61.5 12.5c-52 0 -94 -12 -126 -36s-55.5 -59.333 -70.5 -106s-22.5 -104.667 -22.5 -174v-27c0 -72.667 9 -131 27 -175s41.667 -76.167 71 -96.5s60.666 -30.5 93.999 -30.5c46.667 0 83.667 12 111 36
s47 58.667 59 104h271l4 -6c-13.333 -81.333 -37 -150.166 -71 -206.499s-81.333 -99.166 -142 -128.499s-139 -44 -235 -44zM174.999 1289v26l257 245h246l255 -249v-22h-249l-130 143l-134 -143h-245z" />
    <glyph glyph-name="Cdotaccent" unicode="&#x10a;" horiz-adv-x="1330" 
d="M752 -21c-140 0 -263.335 28.833 -370.002 86.5s-189.667 140 -249 247s-89 235.5 -89 385.5v59c0 140 27.833 264.167 83.5 372.5s135.5 193.333 239.5 255s227.333 92.5 370 92.5c100 0 194.5 -13.667 283.5 -41s170.5 -72 244.5 -134v-363h-237l-32 218
c-22.667 15.333 -46.667 28.666 -72 39.999s-52.666 20 -81.999 26s-61 9 -95 9c-78 0 -145.667 -19 -203 -57s-101.5 -92.167 -132.5 -162.5s-46.5 -154.833 -46.5 -253.5v-61c0 -95.333 16 -178.666 48 -249.999s77.5 -126.666 136.5 -165.999s128.167 -59 207.5 -59
c40.667 0 81.667 4.5 123 13.5s80 20.833 116 35.5l33 205h236v-357c-57.333 -38.667 -129.666 -71.834 -216.999 -99.501s-186 -41.5 -296 -41.5zM554.998 1577v261h332v-261h-332z" />
    <glyph glyph-name="cdotaccent" unicode="&#x10b;" horiz-adv-x="1087" 
d="M574 -21c-105.333 0 -196.167 23.4971 -272.5 70.4971s-135.166 111.667 -176.499 194s-62 176.5 -62 282.5v27c0 107.333 21.167 202.333 63.5 285s101.5 147.334 177.5 194.001s165.333 70 268 70c100 0 186.167 -15.333 258.5 -46s129.833 -64.667 172.5 -102l-4 -326
h-240l-41 195c-13.333 14 -30.833 25.167 -52.5 33.5s-42.167 12.5 -61.5 12.5c-52 0 -94 -12 -126 -36s-55.5 -59.333 -70.5 -106s-22.5 -104.667 -22.5 -174v-27c0 -72.667 9 -131 27 -175s41.667 -76.167 71 -96.5s60.666 -30.5 93.999 -30.5c46.667 0 83.667 12 111 36
s47 58.667 59 104h271l4 -6c-13.333 -81.333 -37 -150.166 -71 -206.499s-81.333 -99.166 -142 -128.499s-139 -44 -235 -44zM387.999 1299v261h332v-261h-332z" />
    <glyph glyph-name="Ccaron" unicode="&#x10c;" horiz-adv-x="1330" 
d="M752 -21c-140 0 -263.335 28.833 -370.002 86.5s-189.667 140 -249 247s-89 235.5 -89 385.5v59c0 140 27.833 264.167 83.5 372.5s135.5 193.333 239.5 255s227.333 92.5 370 92.5c100 0 194.5 -13.667 283.5 -41s170.5 -72 244.5 -134v-363h-237l-32 218
c-22.667 15.333 -46.667 28.666 -72 39.999s-52.666 20 -81.999 26s-61 9 -95 9c-78 0 -145.667 -19 -203 -57s-101.5 -92.167 -132.5 -162.5s-46.5 -154.833 -46.5 -253.5v-61c0 -95.333 16 -178.666 48 -249.999s77.5 -126.666 136.5 -165.999s128.167 -59 207.5 -59
c40.667 0 81.667 4.5 123 13.5s80 20.833 116 35.5l33 205h236v-357c-57.333 -38.667 -129.666 -71.834 -216.999 -99.501s-186 -41.5 -296 -41.5zM1100 1838v-26l-258 -245h-246l-254 248v23h249l129 -143l135 143h245z" />
    <glyph glyph-name="ccaron" unicode="&#x10d;" horiz-adv-x="1087" 
d="M574 -21c-105.333 0 -196.167 23.4971 -272.5 70.4971s-135.166 111.667 -176.499 194s-62 176.5 -62 282.5v27c0 107.333 21.167 202.333 63.5 285s101.5 147.334 177.5 194.001s165.333 70 268 70c100 0 186.167 -15.333 258.5 -46s129.833 -64.667 172.5 -102l-4 -326
h-240l-41 195c-13.333 14 -30.833 25.167 -52.5 33.5s-42.167 12.5 -61.5 12.5c-52 0 -94 -12 -126 -36s-55.5 -59.333 -70.5 -106s-22.5 -104.667 -22.5 -174v-27c0 -72.667 9 -131 27 -175s41.667 -76.167 71 -96.5s60.666 -30.5 93.999 -30.5c46.667 0 83.667 12 111 36
s47 58.667 59 104h271l4 -6c-13.333 -81.333 -37 -150.166 -71 -206.499s-81.333 -99.166 -142 -128.499s-139 -44 -235 -44zM932.999 1560v-26l-258 -245h-246l-254 248v23h249l129 -143l135 143h245z" />
    <glyph glyph-name="Dcaron" unicode="&#x10e;" horiz-adv-x="1448" 
d="M48 0v190l155 35v1004l-155 36v191h155h505c131.333 0 247 -30.5 347 -91.5s178.333 -145.333 235 -253s85 -231.5 85 -371.5v-25c0 -139.333 -28 -262.833 -84 -370.5s-134 -192 -234 -253s-215.667 -91.5 -347 -91.5h-662zM524 245l170 0.00195312
c77.333 0 142.5 19.833 195.5 59.5s93.333 95 121 166s41.5 152.5 41.5 244.5v26c0 93.333 -13.833 175.166 -41.5 245.499s-68 125.166 -121 164.499s-118.167 59 -195.5 59h-170v-965zM1068 1838v-26l-258 -245h-246l-254 248v23h249l129 -143l135 143h245z" />
    <glyph glyph-name="dcaron" unicode="&#x10f;" horiz-adv-x="1212" 
d="M473 -21c-85.333 0 -158.666 22.167 -219.999 66.5s-108.333 106.833 -141 187.5s-49 174.667 -49 282v21c0 113.333 16.5 212.333 49.5 297s80 150.667 141 198s133.167 71 216.5 71c58.667 0 109.5 -11.833 152.5 -35.5s80.5 -57.167 112.5 -100.5v372l-154 31v191h154
h322v-1339l133 -31v-190h-412l-24 133c-33.333 -50.667 -72.833 -89 -118.5 -115s-99.834 -39 -162.501 -39zM571 227c34.667 0 66.1699 7.16895 94.5029 21.502s51.5 35.166 69.5 62.499v447c-18 30.667 -40.833 54.334 -68.5 71.001s-58.834 25 -93.501 25
c-44.667 0 -80.834 -13.333 -108.501 -40s-47.834 -63.834 -60.501 -111.501s-19 -103.167 -19 -166.5v-21c0 -90.667 14 -161.334 42 -212.001s76 -76 144 -76zM1266 1148l-150 94.999c20.667 32 36.5 64.333 47.5 97s16.5 74 16.5 124v96h266v-79
c0 -64 -17.5 -125.667 -52.5 -185s-77.5 -108.666 -127.5 -147.999z" />
    <glyph glyph-name="Dcroat" unicode="&#x110;" horiz-adv-x="1448" 
d="M48 0v190l155 35v1004l-155 36v191h155h505c131.333 0 247 -30.5 347 -91.5s178.333 -145.333 235 -253s85 -231.5 85 -371.5v-25c0 -139.333 -28 -262.833 -84 -370.5s-134 -192 -234 -253s-215.667 -91.5 -347 -91.5h-662zM524 245l170 0.00195312
c77.333 0 142.5 19.833 195.5 59.5s93.333 95 121 166s41.5 152.5 41.5 244.5v26c0 93.333 -13.833 175.166 -41.5 245.499s-68 125.166 -121 164.499s-118.167 59 -195.5 59h-170v-965zM34 662.002v155h677v-155h-677z" />
    <glyph glyph-name="dcroat" unicode="&#x111;" horiz-adv-x="1210" 
d="M473 -21c-85.333 0 -158.666 22.167 -219.999 66.5s-108.333 106.833 -141 187.5s-49 174.667 -49 282v21c0 113.333 16.5 212.333 49.5 297s80 150.667 141 198s133.167 71 216.5 71c58.667 0 109.5 -11.833 152.5 -35.5s80.5 -57.167 112.5 -100.5v372l-154 31v191h154
h322v-1339l133 -31v-190h-412l-24 133c-33.333 -50.667 -72.833 -89 -118.5 -115s-99.834 -39 -162.501 -39zM571 227c34.667 0 66.1699 7.16895 94.5029 21.502s51.5 35.166 69.5 62.499v447c-18 30.667 -40.833 54.334 -68.5 71.001s-58.834 25 -93.501 25
c-44.667 0 -80.834 -13.333 -108.501 -40s-47.834 -63.834 -60.501 -111.501s-19 -103.167 -19 -166.5v-21c0 -90.667 14 -161.334 42 -212.001s76 -76 144 -76zM534.003 1127v155h677v-155h-677z" />
    <glyph glyph-name="Emacron" unicode="&#x112;" horiz-adv-x="1308" 
d="M48 0v190l153 31v1013l-153 31v191h1147v-407h-245l-11 160h-416v-333h478v-247h-478v-382h438l11 166h241v-413h-1165zM287 1578v185h734v-185h-734z" />
    <glyph glyph-name="emacron" unicode="&#x113;" horiz-adv-x="1084" 
d="M586 -21c-105.333 0 -197.001 22.833 -275.001 68.5s-138.5 108.334 -181.5 188.001s-64.5 170.167 -64.5 271.5v38c0 108.667 19.667 205 59 289s96 149.833 170 197.5s162.667 71.167 266 70.5c98 0 180.667 -19 248 -57s118.5 -93.5 153.5 -166.5
s52.5 -161.833 52.5 -266.5v-170h-616l-1 -7c4.66699 -40.667 16.334 -76.834 35.001 -108.501s44.834 -56.667 78.501 -75s74.834 -27.5 123.501 -27.5c49.333 0 96.5 6 141.5 18s90.833 30.333 137.5 55l79 -196c-46.667 -34.667 -104.334 -63.667 -173.001 -87
s-146.334 -35 -233.001 -35zM399.999 647l318 -0.000976562v26c0 40.667 -5 75.5 -15 104.5s-26 51.167 -48 66.5s-51.333 23 -88 23c-37.333 0 -67.833 -9.33301 -91.5 -28s-41.667 -44.167 -54 -76.5s-20.833 -69.166 -25.5 -110.499zM185.999 1300v185h734v-185h-734z
" />
    <glyph glyph-name="Ebreve" unicode="&#x114;" horiz-adv-x="1308" 
d="M48 0v190l153 31v1013l-153 31v191h1147v-407h-245l-11 160h-416v-333h478v-247h-478v-382h438l11 166h241v-413h-1165zM656 1539c-111.333 0 -200 27.334 -266 82.001s-97 125 -93 211l2 6h213c0 -36 11.5 -66 34.5 -90s59.5 -36 109.5 -36c48 0 83.5 11.667 106.5 35
s34.5 53.666 34.5 90.999h214l2 -6c2.66699 -86 -28.5 -156.333 -93.5 -211s-152.833 -82 -263.5 -82z" />
    <glyph glyph-name="ebreve" unicode="&#x115;" horiz-adv-x="1084" 
d="M586 -21c-105.333 0 -197.001 22.833 -275.001 68.5s-138.5 108.334 -181.5 188.001s-64.5 170.167 -64.5 271.5v38c0 108.667 19.667 205 59 289s96 149.833 170 197.5s162.667 71.167 266 70.5c98 0 180.667 -19 248 -57s118.5 -93.5 153.5 -166.5
s52.5 -161.833 52.5 -266.5v-170h-616l-1 -7c4.66699 -40.667 16.334 -76.834 35.001 -108.501s44.834 -56.667 78.501 -75s74.834 -27.5 123.501 -27.5c49.333 0 96.5 6 141.5 18s90.833 30.333 137.5 55l79 -196c-46.667 -34.667 -104.334 -63.667 -173.001 -87
s-146.334 -35 -233.001 -35zM399.999 647l318 -0.000976562v26c0 40.667 -5 75.5 -15 104.5s-26 51.167 -48 66.5s-51.333 23 -88 23c-37.333 0 -67.833 -9.33301 -91.5 -28s-41.667 -44.167 -54 -76.5s-20.833 -69.166 -25.5 -110.499zM554.999 1261
c-111.333 0 -200 27.334 -266 82.001s-97 125 -93 211l2 6h213c0 -36 11.5 -66 34.5 -90s59.5 -36 109.5 -36c48 0 83.5 11.667 106.5 35s34.5 53.666 34.5 90.999h214l2 -6c2.66699 -86 -28.5 -156.333 -93.5 -211s-152.833 -82 -263.5 -82z" />
    <glyph glyph-name="Edotaccent" unicode="&#x116;" horiz-adv-x="1308" 
d="M48 0v190l153 31v1013l-153 31v191h1147v-407h-245l-11 160h-416v-333h478v-247h-478v-382h438l11 166h241v-413h-1165zM488 1577v261h332v-261h-332z" />
    <glyph glyph-name="edotaccent" unicode="&#x117;" horiz-adv-x="1084" 
d="M586 -21c-105.333 0 -197.001 22.833 -275.001 68.5s-138.5 108.334 -181.5 188.001s-64.5 170.167 -64.5 271.5v38c0 108.667 19.667 205 59 289s96 149.833 170 197.5s162.667 71.167 266 70.5c98 0 180.667 -19 248 -57s118.5 -93.5 153.5 -166.5
s52.5 -161.833 52.5 -266.5v-170h-616l-1 -7c4.66699 -40.667 16.334 -76.834 35.001 -108.501s44.834 -56.667 78.501 -75s74.834 -27.5 123.501 -27.5c49.333 0 96.5 6 141.5 18s90.833 30.333 137.5 55l79 -196c-46.667 -34.667 -104.334 -63.667 -173.001 -87
s-146.334 -35 -233.001 -35zM399.999 647l318 -0.000976562v26c0 40.667 -5 75.5 -15 104.5s-26 51.167 -48 66.5s-51.333 23 -88 23c-37.333 0 -67.833 -9.33301 -91.5 -28s-41.667 -44.167 -54 -76.5s-20.833 -69.166 -25.5 -110.499zM387.999 1299v261h332v-261h-332z
" />
    <glyph glyph-name="Eogonek" unicode="&#x118;" horiz-adv-x="1308" 
d="M48 0v190l153 31v1013l-153 31v191h1147v-407h-245l-11 160h-416v-333h478v-247h-478v-382h438l11 166h241v-413h-1165zM1105 -421c-77.333 0 -140.333 19.3311 -189 57.998s-73 93 -73 163c0 48 17.333 95.833 52 143.5s93.334 86.834 176.001 117.501l143 -61
c-49.333 -28.667 -84.333 -55.667 -105 -81s-31 -52 -31 -80c0 -24 6.66699 -41.833 20 -53.5s34.666 -17.5 63.999 -17.5c15.333 0 29.333 1.33301 42 4s24.667 5.66699 36 9l36 -163c-22.667 -11.333 -47.667 -20.666 -75 -27.999s-59.333 -11 -96 -11z" />
    <glyph glyph-name="eogonek" unicode="&#x119;" horiz-adv-x="1084" 
d="M586 -21c-105.333 0 -197.001 22.833 -275.001 68.5s-138.5 108.334 -181.5 188.001s-64.5 170.167 -64.5 271.5v38c0 108.667 19.667 205 59 289s96 149.833 170 197.5s162.667 71.167 266 70.5c98 0 180.667 -19 248 -57s118.5 -93.5 153.5 -166.5
s52.5 -161.833 52.5 -266.5v-170h-616l-1 -7c4.66699 -40.667 16.334 -76.834 35.001 -108.501s44.834 -56.667 78.501 -75s74.834 -27.5 123.501 -27.5c49.333 0 96.5 6 141.5 18s90.833 30.333 137.5 55l79 -196c-46.667 -34.667 -104.334 -63.667 -173.001 -87
s-146.334 -35 -233.001 -35zM399.999 647l318 -0.000976562v26c0 40.667 -5 75.5 -15 104.5s-26 51.167 -48 66.5s-51.333 23 -88 23c-37.333 0 -67.833 -9.33301 -91.5 -28s-41.667 -44.167 -54 -76.5s-20.833 -69.166 -25.5 -110.499zM787.999 -421.001
c-76.667 0 -139.664 19.999 -188.997 59.999s-74 95.667 -74 167c0 58.667 24 115.667 72 171s131 100.333 249 135l55 -64c-50.667 -30 -86.834 -60.5 -108.501 -91.5s-32.5 -65.167 -32.5 -102.5c0 -30 7 -51.833 21 -65.5s36.333 -20.5 67 -20.5
c15.333 0 29.5 1.33301 42.5 4s25.167 5.66699 36.5 9l36 -163c-22.667 -11.333 -47.834 -20.666 -75.501 -27.999s-60.834 -11 -99.501 -11z" />
    <glyph glyph-name="Ecaron" unicode="&#x11a;" horiz-adv-x="1308" 
d="M48 0v190l153 31v1013l-153 31v191h1147v-407h-245l-11 160h-416v-333h478v-247h-478v-382h438l11 166h241v-413h-1165zM1034 1838v-26l-258 -245h-246l-254 248v23h249l129 -143l135 143h245z" />
    <glyph glyph-name="ecaron" unicode="&#x11b;" horiz-adv-x="1084" 
d="M586 -21c-105.333 0 -197.001 22.833 -275.001 68.5s-138.5 108.334 -181.5 188.001s-64.5 170.167 -64.5 271.5v38c0 108.667 19.667 205 59 289s96 149.833 170 197.5s162.667 71.167 266 70.5c98 0 180.667 -19 248 -57s118.5 -93.5 153.5 -166.5
s52.5 -161.833 52.5 -266.5v-170h-616l-1 -7c4.66699 -40.667 16.334 -76.834 35.001 -108.501s44.834 -56.667 78.501 -75s74.834 -27.5 123.501 -27.5c49.333 0 96.5 6 141.5 18s90.833 30.333 137.5 55l79 -196c-46.667 -34.667 -104.334 -63.667 -173.001 -87
s-146.334 -35 -233.001 -35zM399.999 647l318 -0.000976562v26c0 40.667 -5 75.5 -15 104.5s-26 51.167 -48 66.5s-51.333 23 -88 23c-37.333 0 -67.833 -9.33301 -91.5 -28s-41.667 -44.167 -54 -76.5s-20.833 -69.166 -25.5 -110.499zM932.999 1560v-26l-258 -245h-246
l-254 248v23h249l129 -143l135 143h245z" />
    <glyph glyph-name="Gcircumflex" unicode="&#x11c;" horiz-adv-x="1382" 
d="M732 -21c-148 0 -273.665 29.667 -376.998 89s-182.166 141.833 -236.499 247.5s-81.5 227.834 -81.5 366.501v58c0 145.333 27 273.166 81 383.499s131.5 196.833 232.5 259.5s221.5 94 361.5 94c102 0 201 -14.833 297 -44.5s180 -74.834 252 -135.501v-332h-233
l-47 190c-24.667 22.667 -58.334 41.334 -101.001 56.001s-91.334 22 -146.001 22c-80.667 0 -149.167 -20.667 -205.5 -62s-99.166 -98.833 -128.499 -172.5s-44 -159.167 -44 -256.5v-60c0 -93.333 15 -174.333 45 -243s73.667 -122 131 -160s127.666 -57 210.999 -57
c46.667 0 91.167 4.66699 133.5 14s76.166 20 101.499 32v218l-186 18v223h508v-596c-71.333 -48.667 -154.5 -86.167 -249.5 -112.5s-201.167 -39.5 -318.5 -39.5zM312.002 1567v26l257 245h246l255 -249v-22h-249l-130 143l-134 -143h-245z" />
    <glyph glyph-name="gcircumflex" unicode="&#x11d;" horiz-adv-x="1211" 
d="M538 -437c-56 0 -119.169 6.99805 -189.502 20.998s-132.166 34.333 -185.499 61l55 225c49.333 -20.667 100.5 -36.667 153.5 -48s101.833 -17 146.5 -17c74.667 0 129.667 20.833 165 62.5s53 98.834 53 171.501v61c-31.333 -38.667 -67.666 -68.5 -108.999 -89.5
s-89 -31.5 -143 -31.5c-88 0 -163.5 22.167 -226.5 66.5s-111.167 106.833 -144.5 187.5s-50 174.667 -50 282v21c0 113.333 16.5 212.333 49.5 297s80.333 150.667 142 198s135.167 71 220.5 71c64 0 118.667 -13.667 164 -41s84 -65.666 116 -114.999l21 136h282v-1045
c0 -95.333 -21 -178.5 -63 -249.5s-101.833 -126.167 -179.5 -165.5s-170.167 -59 -277.5 -59zM576.998 226.998c34.667 0 65.499 6.50195 92.499 19.502s49.167 32.5 66.5 58.5v461c-16.667 28 -38.667 49.667 -66 65s-58.333 23 -93 23c-46 0 -83 -13.333 -111 -40
s-48.5 -63.834 -61.5 -111.501s-19.5 -103.167 -19.5 -166.5v-21c0 -90.667 14.333 -161.334 43 -212.001s78.334 -76 149.001 -76zM1019 856l-142 226h306v-191zM214.997 1289v26l257 245h246l255 -249v-22h-249l-130 143l-134 -143h-245z" />
    <glyph glyph-name="Gbreve" unicode="&#x11e;" horiz-adv-x="1382" 
d="M732 -21c-148 0 -273.665 29.667 -376.998 89s-182.166 141.833 -236.499 247.5s-81.5 227.834 -81.5 366.501v58c0 145.333 27 273.166 81 383.499s131.5 196.833 232.5 259.5s221.5 94 361.5 94c102 0 201 -14.833 297 -44.5s180 -74.834 252 -135.501v-332h-233
l-47 190c-24.667 22.667 -58.334 41.334 -101.001 56.001s-91.334 22 -146.001 22c-80.667 0 -149.167 -20.667 -205.5 -62s-99.166 -98.833 -128.499 -172.5s-44 -159.167 -44 -256.5v-60c0 -93.333 15 -174.333 45 -243s73.667 -122 131 -160s127.666 -57 210.999 -57
c46.667 0 91.167 4.66699 133.5 14s76.166 20 101.499 32v218l-186 18v223h508v-596c-71.333 -48.667 -154.5 -86.167 -249.5 -112.5s-201.167 -39.5 -318.5 -39.5zM692.002 1539c-111.333 0 -200 27.334 -266 82.001s-97 125 -93 211l2 6h213c0 -36 11.5 -66 34.5 -90
s59.5 -36 109.5 -36c48 0 83.5 11.667 106.5 35s34.5 53.666 34.5 90.999h214l2 -6c2.66699 -86 -28.5 -156.333 -93.5 -211s-152.833 -82 -263.5 -82z" />
    <glyph glyph-name="gbreve" unicode="&#x11f;" horiz-adv-x="1211" 
d="M538 -437c-56 0 -119.169 6.99805 -189.502 20.998s-132.166 34.333 -185.499 61l55 225c49.333 -20.667 100.5 -36.667 153.5 -48s101.833 -17 146.5 -17c74.667 0 129.667 20.833 165 62.5s53 98.834 53 171.501v61c-31.333 -38.667 -67.666 -68.5 -108.999 -89.5
s-89 -31.5 -143 -31.5c-88 0 -163.5 22.167 -226.5 66.5s-111.167 106.833 -144.5 187.5s-50 174.667 -50 282v21c0 113.333 16.5 212.333 49.5 297s80.333 150.667 142 198s135.167 71 220.5 71c64 0 118.667 -13.667 164 -41s84 -65.666 116 -114.999l21 136h282v-1045
c0 -95.333 -21 -178.5 -63 -249.5s-101.833 -126.167 -179.5 -165.5s-170.167 -59 -277.5 -59zM576.998 226.998c34.667 0 65.499 6.50195 92.499 19.502s49.167 32.5 66.5 58.5v461c-16.667 28 -38.667 49.667 -66 65s-58.333 23 -93 23c-46 0 -83 -13.333 -111 -40
s-48.5 -63.834 -61.5 -111.501s-19.5 -103.167 -19.5 -166.5v-21c0 -90.667 14.333 -161.334 43 -212.001s78.334 -76 149.001 -76zM1019 856l-142 226h306v-191zM594.997 1261c-111.333 0 -200 27.334 -266 82.001s-97 125 -93 211l2 6h213c0 -36 11.5 -66 34.5 -90
s59.5 -36 109.5 -36c48 0 83.5 11.667 106.5 35s34.5 53.666 34.5 90.999h214l2 -6c2.66699 -86 -28.5 -156.333 -93.5 -211s-152.833 -82 -263.5 -82z" />
    <glyph glyph-name="Gdotaccent" unicode="&#x120;" horiz-adv-x="1382" 
d="M732 -21c-148 0 -273.665 29.667 -376.998 89s-182.166 141.833 -236.499 247.5s-81.5 227.834 -81.5 366.501v58c0 145.333 27 273.166 81 383.499s131.5 196.833 232.5 259.5s221.5 94 361.5 94c102 0 201 -14.833 297 -44.5s180 -74.834 252 -135.501v-332h-233
l-47 190c-24.667 22.667 -58.334 41.334 -101.001 56.001s-91.334 22 -146.001 22c-80.667 0 -149.167 -20.667 -205.5 -62s-99.166 -98.833 -128.499 -172.5s-44 -159.167 -44 -256.5v-60c0 -93.333 15 -174.333 45 -243s73.667 -122 131 -160s127.666 -57 210.999 -57
c46.667 0 91.167 4.66699 133.5 14s76.166 20 101.499 32v218l-186 18v223h508v-596c-71.333 -48.667 -154.5 -86.167 -249.5 -112.5s-201.167 -39.5 -318.5 -39.5zM525.002 1577v261h332v-261h-332z" />
    <glyph glyph-name="gdotaccent" unicode="&#x121;" horiz-adv-x="1211" 
d="M538 -437c-56 0 -119.169 6.99805 -189.502 20.998s-132.166 34.333 -185.499 61l55 225c49.333 -20.667 100.5 -36.667 153.5 -48s101.833 -17 146.5 -17c74.667 0 129.667 20.833 165 62.5s53 98.834 53 171.501v61c-31.333 -38.667 -67.666 -68.5 -108.999 -89.5
s-89 -31.5 -143 -31.5c-88 0 -163.5 22.167 -226.5 66.5s-111.167 106.833 -144.5 187.5s-50 174.667 -50 282v21c0 113.333 16.5 212.333 49.5 297s80.333 150.667 142 198s135.167 71 220.5 71c64 0 118.667 -13.667 164 -41s84 -65.666 116 -114.999l21 136h282v-1045
c0 -95.333 -21 -178.5 -63 -249.5s-101.833 -126.167 -179.5 -165.5s-170.167 -59 -277.5 -59zM576.998 226.998c34.667 0 65.499 6.50195 92.499 19.502s49.167 32.5 66.5 58.5v461c-16.667 28 -38.667 49.667 -66 65s-58.333 23 -93 23c-46 0 -83 -13.333 -111 -40
s-48.5 -63.834 -61.5 -111.501s-19.5 -103.167 -19.5 -166.5v-21c0 -90.667 14.333 -161.334 43 -212.001s78.334 -76 149.001 -76zM1019 856l-142 226h306v-191zM427.997 1299v261h332v-261h-332z" />
    <glyph glyph-name="uni0122" unicode="&#x122;" horiz-adv-x="1382" 
d="M732 -21c-148 0 -273.665 29.667 -376.998 89s-182.166 141.833 -236.499 247.5s-81.5 227.834 -81.5 366.501v58c0 145.333 27 273.166 81 383.499s131.5 196.833 232.5 259.5s221.5 94 361.5 94c102 0 201 -14.833 297 -44.5s180 -74.834 252 -135.501v-332h-233
l-47 190c-24.667 22.667 -58.334 41.334 -101.001 56.001s-91.334 22 -146.001 22c-80.667 0 -149.167 -20.667 -205.5 -62s-99.166 -98.833 -128.499 -172.5s-44 -159.167 -44 -256.5v-60c0 -93.333 15 -174.333 45 -243s73.667 -122 131 -160s127.666 -57 210.999 -57
c46.667 0 91.167 4.66699 133.5 14s76.166 20 101.499 32v218l-186 18v223h508v-596c-71.333 -48.667 -154.5 -86.167 -249.5 -112.5s-201.167 -39.5 -318.5 -39.5zM653.002 -531l-150 94.999c20.667 32 36.5 64.333 47.5 97s16.5 74 16.5 124v96h266v-79
c0 -64 -17.5 -125.667 -52.5 -185s-77.5 -108.666 -127.5 -147.999z" />
    <glyph glyph-name="uni0123" unicode="&#x123;" horiz-adv-x="1211" 
d="M538 -437c-56 0 -119.169 6.99805 -189.502 20.998s-132.166 34.333 -185.499 61l55 225c49.333 -20.667 100.5 -36.667 153.5 -48s101.833 -17 146.5 -17c74.667 0 129.667 20.833 165 62.5s53 98.834 53 171.501v61c-31.333 -38.667 -67.666 -68.5 -108.999 -89.5
s-89 -31.5 -143 -31.5c-88 0 -163.5 22.167 -226.5 66.5s-111.167 106.833 -144.5 187.5s-50 174.667 -50 282v21c0 113.333 16.5 212.333 49.5 297s80.333 150.667 142 198s135.167 71 220.5 71c64 0 118.667 -13.667 164 -41s84 -65.666 116 -114.999l21 136h282v-1045
c0 -95.333 -21 -178.5 -63 -249.5s-101.833 -126.167 -179.5 -165.5s-170.167 -59 -277.5 -59zM576.998 226.998c34.667 0 65.499 6.50195 92.499 19.502s49.167 32.5 66.5 58.5v461c-16.667 28 -38.667 49.667 -66 65s-58.333 23 -93 23c-46 0 -83 -13.333 -111 -40
s-48.5 -63.834 -61.5 -111.501s-19.5 -103.167 -19.5 -166.5v-21c0 -90.667 14.333 -161.334 43 -212.001s78.334 -76 149.001 -76zM1019 856l-142 226h306v-191zM608.997 1684l150.001 -93.999c-20.667 -32.667 -36.334 -65.334 -47.001 -98.001s-16 -74 -16 -124v-96h-267
v79c0 64.667 17.5 126.5 52.5 185.5s77.5 108.167 127.5 147.5z" />
    <glyph glyph-name="Hcircumflex" unicode="&#x124;" horiz-adv-x="1606" 
d="M48 0v190l153 31v1013l-153 31v191h628v-191l-153 -31v-394h561v394l-153 31v191h153h321h153v-191l-153 -31v-1013l153 -31v-190h-627v190l153 31v372h-561v-372l153 -31v-190h-628zM425 1567v26l257 245h246l255 -249v-22h-249l-130 143l-134 -143h-245z" />
    <glyph glyph-name="hcircumflex" unicode="&#x125;" horiz-adv-x="1298" 
d="M47 0l-0.000976562 190l133 31v1117l-154 31v191h474v-614c33.333 49.333 74.5 87.666 123.5 114.999s105.5 41 169.5 41c106.667 0 191.667 -36.667 255 -110s95 -186.666 95 -339.999v-431l133 -31v-190h-569v190l114 31v433c0 74 -13.167 125.833 -39.5 155.5
s-64.833 44.5 -115.5 44.5c-35.333 0 -67.166 -6.83301 -95.499 -20.5s-51.833 -34.167 -70.5 -61.5v-551l115 -31v-190h-568zM-33.001 1663v26l257 245h246l255 -249v-22h-249l-130 143l-134 -143h-245z" />
    <glyph glyph-name="Hbar" unicode="&#x126;" horiz-adv-x="1606" 
d="M48 0v190l153 31v1013l-153 31v191h628v-191l-153 -31v-394h561v394l-153 31v191h153h321h153v-191l-153 -31v-1013l153 -31v-190h-627v190l153 31v372h-561v-372l153 -31v-190h-628zM50 960v153h1506v-153h-1506z" />
    <glyph glyph-name="hbar" unicode="&#x127;" horiz-adv-x="1298" 
d="M47 0l-0.000976562 190l133 31v1117l-154 31v191h474v-614c33.333 49.333 74.5 87.666 123.5 114.999s105.5 41 169.5 41c106.667 0 191.667 -36.667 255 -110s95 -186.666 95 -339.999v-431l133 -31v-190h-569v190l114 31v433c0 74 -13.167 125.833 -39.5 155.5
s-64.833 44.5 -115.5 44.5c-35.333 0 -67.166 -6.83301 -95.499 -20.5s-51.833 -34.167 -70.5 -61.5v-551l115 -31v-190h-568zM25.999 1127v155h677v-155h-677z" />
    <glyph glyph-name="Itilde" unicode="&#x128;" horiz-adv-x="723" 
d="M48 0v190l153 31v1013l-153 31v191h627v-191l-153 -31v-1013l153 -31v-190h-627zM144 1555l-165 44c0 46 11 88.5 33 127.5s50.833 70.167 86.5 93.5s73.834 35 114.501 35c33.333 0 67.333 -7.83301 102 -23.5s67.667 -31.5 99 -47.5s58.333 -24.333 81 -25
c27.333 1.33301 48.5 12 63.5 32s22.5 45.667 22.5 77l165 -47c0 -47.333 -10.833 -90.333 -32.5 -129s-50.334 -69.5 -86.001 -92.5s-74.5 -34.5 -116.5 -34.5c-35.333 0 -70.5 8 -105.5 24s-67.5 32.167 -97.5 48.5s-56.333 24.5 -79 24.5
c-27.333 0 -48.333 -10.667 -63 -32s-22 -46.333 -22 -75z" />
    <glyph glyph-name="itilde" unicode="&#x129;" horiz-adv-x="664" 
d="M50 0v190l134 31v639l-153 31v191h474v-861l134 -31v-190h-589zM122 1277l-165 44c0 46 11 88.5 33 127.5s50.833 70.167 86.5 93.5s73.834 35 114.501 35c33.333 0 67.333 -7.83301 102 -23.5s67.667 -31.5 99 -47.5s58.333 -24.333 81 -25
c27.333 1.33301 48.5 12 63.5 32s22.5 45.667 22.5 77l165 -47c0 -47.333 -10.833 -90.333 -32.5 -129s-50.334 -69.5 -86.001 -92.5s-74.5 -34.5 -116.5 -34.5c-35.333 0 -70.5 8 -105.5 24s-67.5 32.167 -97.5 48.5s-56.333 24.5 -79 24.5
c-27.333 0 -48.333 -10.667 -63 -32s-22 -46.333 -22 -75z" />
    <glyph glyph-name="Imacron" unicode="&#x12a;" horiz-adv-x="723" 
d="M48 0v190l153 31v1013l-153 31v191h627v-191l-153 -31v-1013l153 -31v-190h-627zM-5 1578v185h734v-185h-734z" />
    <glyph glyph-name="imacron" unicode="&#x12b;" horiz-adv-x="664" 
d="M50 0v190l134 31v639l-153 31v191h474v-861l134 -31v-190h-589zM-27 1300v185h734v-185h-734z" />
    <glyph glyph-name="Ibreve" unicode="&#x12c;" horiz-adv-x="723" 
d="M48 0v190l153 31v1013l-153 31v191h627v-191l-153 -31v-1013l153 -31v-190h-627zM363 1539c-111.333 0 -200 27.334 -266 82.001s-97 125 -93 211l2 6h213c0 -36 11.5 -66 34.5 -90s59.5 -36 109.5 -36c48 0 83.5 11.667 106.5 35s34.5 53.666 34.5 90.999h214l2 -6
c2.66699 -86 -28.5 -156.333 -93.5 -211s-152.833 -82 -263.5 -82z" />
    <glyph glyph-name="ibreve" unicode="&#x12d;" horiz-adv-x="664" 
d="M50 0v190l134 31v639l-153 31v191h474v-861l134 -31v-190h-589zM341 1261c-111.333 0 -200 27.334 -266 82.001s-97 125 -93 211l2 6h213c0 -36 11.5 -66 34.5 -90s59.5 -36 109.5 -36c48 0 83.5 11.667 106.5 35s34.5 53.666 34.5 90.999h214l2 -6
c2.66699 -86 -28.5 -156.333 -93.5 -211s-152.833 -82 -263.5 -82z" />
    <glyph glyph-name="Iogonek" unicode="&#x12e;" horiz-adv-x="723" 
d="M48 0v190l153 31v1013l-153 31v191h627v-191l-153 -31v-1013l153 -31v-190h-627zM566 -421c-77.333 0 -140.333 19.3311 -189 57.998s-73 93 -73 163c0 48 17.333 95.833 52 143.5s93.334 86.834 176.001 117.501l143 -61c-49.333 -28.667 -84.333 -55.667 -105 -81
s-31 -52 -31 -80c0 -24 6.66699 -41.833 20 -53.5s34.666 -17.5 63.999 -17.5c15.333 0 29.333 1.33301 42 4s24.667 5.66699 36 9l36 -163c-22.667 -11.333 -47.667 -20.666 -75 -27.999s-59.333 -11 -96 -11z" />
    <glyph glyph-name="iogonek" unicode="&#x12f;" horiz-adv-x="664" 
d="M50 0v190l134 31v639l-153 31v191h474v-861l134 -31v-190h-589zM174 1299v261h332v-261h-332zM530 -421c-77.333 0 -140.333 19.3311 -189 57.998s-73 93 -73 163c0 48 17.333 95.833 52 143.5s93.334 86.834 176.001 117.501l143 -61
c-49.333 -28.667 -84.333 -55.667 -105 -81s-31 -52 -31 -80c0 -24 6.66699 -41.833 20 -53.5s34.666 -17.5 63.999 -17.5c15.333 0 29.333 1.33301 42 4s24.667 5.66699 36 9l36 -163c-22.667 -11.333 -47.667 -20.666 -75 -27.999s-59.333 -11 -96 -11z" />
    <glyph glyph-name="Idotaccent" unicode="&#x130;" horiz-adv-x="723" 
d="M48 0v190l153 31v1013l-153 31v191h627v-191l-153 -31v-1013l153 -31v-190h-627zM196 1577v261h332v-261h-332z" />
    <glyph glyph-name="dotlessi" unicode="&#x131;" horiz-adv-x="664" 
d="M50 0v190l134 31v639l-153 31v191h474v-861l134 -31v-190h-589z" />
    <glyph glyph-name="IJ" unicode="&#x132;" horiz-adv-x="1923" 
d="M48 0v190l153 31v1013l-153 31v191h627v-191l-153 -31v-1013l153 -31v-190h-627zM1297 -21c-107.333 0 -200.833 17.6689 -280.5 53.002s-142 89.166 -187 161.499s-69.5 164.5 -73.5 276.5l2 6h300c6 -94.667 27 -159.5 63 -194.5s82.667 -52.5 140 -52.5
c34.667 0 66.5 7.66699 95.5 23s52.5 39 70.5 71s27 72.667 27 122v789l-198 32v190h672v-191l-154 -31v-789c0 -96 -18.667 -178.833 -56 -248.5s-91.333 -123.334 -162 -161.001s-157 -56.5 -259 -56.5z" />
    <glyph glyph-name="ij" unicode="&#x133;" horiz-adv-x="1263" 
d="M50 0v190l134 31v639l-153 31v191h474v-861l134 -31v-190h-589zM174 1299v261h332v-261h-332zM777 -437c-29.333 0 -56 1.16699 -80 3.5s-48.667 6.5 -74 12.5l15 243c16 -3.33301 31.333 -6.33301 46 -9s31.667 -4 51 -4c38 0 67.5 14.5 88.5 43.5
s31.5 69.833 31.5 122.5v885l-155 31v191h474v-1107c0 -132 -34.833 -233.667 -104.5 -305s-167.167 -107 -292.5 -107zM840 1299v261h332v-261h-332z" />
    <glyph glyph-name="Jcircumflex" unicode="&#x134;" horiz-adv-x="1212" 
d="M568 -21c-107.333 0 -200.833 17.6689 -280.5 53.002s-142 89.166 -187 161.499s-69.5 164.5 -73.5 276.5l2 6h300c6 -94.667 27 -159.5 63 -194.5s82.667 -52.5 140 -52.5c34.667 0 66.5 7.66699 95.5 23s52.5 39 70.5 71s27 72.667 27 122v789l-198 32v190h672v-191
l-154 -31v-789c0 -96 -18.667 -178.833 -56 -248.5s-91.333 -123.334 -162 -161.001s-157 -56.5 -259 -56.5zM500 1567v26l257 245h246l255 -249v-22h-249l-130 143l-134 -143h-245z" />
    <glyph glyph-name="jcircumflex" unicode="&#x135;" horiz-adv-x="624" 
d="M121 -437c-29.333 0 -56 1.16699 -80 3.5s-48.667 6.5 -74 12.5l15 243c16 -3.33301 31.333 -6.33301 46 -9s31.667 -4 51 -4c38 0 67.5 14.5 88.5 43.5s31.5 69.833 31.5 122.5v885l-155 31v191h474v-1107c0 -132 -34.833 -233.667 -104.5 -305
s-167.167 -107 -292.5 -107zM-29 1289v26l257 245h246l255 -249v-22h-249l-130 143l-134 -143h-245z" />
    <glyph glyph-name="uni0136" unicode="&#x136;" horiz-adv-x="1559" 
d="M446 337l-164 189l719 725l1 3l-154 11v191h639v-191l-137 -28zM48 0v190l153 31v1013l-153 31v191h617v-191l-142 -31v-1013l142 -31v-190h-617zM880 0v190l141 11l1 1l-360 494l219 205l513 -686l146 -25v-190h-660zM740 -531l-150 94.999
c20.667 32 36.5 64.333 47.5 97s16.5 74 16.5 124v96h266v-79c0 -64 -17.5 -125.667 -52.5 -185s-77.5 -108.666 -127.5 -147.999z" />
    <glyph glyph-name="uni0137" unicode="&#x137;" horiz-adv-x="1325" 
d="M41 0v190l135 31v1117l-154 31v191h474v-1339l114 -31v-190h-569zM728 0v179l75 21l-2 4l-184 256l212 201l329 -437l128 -34v-190h-558zM460 290l-161 166l470 419l1 2l-110 17v188h593v-191l-139 -38zM625 -531l-150 94.999c20.667 32 36.5 64.333 47.5 97
s16.5 74 16.5 124v96h266v-79c0 -64 -17.5 -125.667 -52.5 -185s-77.5 -108.666 -127.5 -147.999z" />
    <glyph glyph-name="kgreenlandic" unicode="&#x138;" horiz-adv-x="1318" 
d="M476 286l-151 184l428 401l3 3l-98 19v189h577v-191l-139 -35zM47 0v190l141 35v630l-156 36v191h477v-857l131 -35v-190h-593zM901 0l-309 454l220 227l322 -457l127 -34v-190h-360z" />
    <glyph glyph-name="Lacute" unicode="&#x139;" horiz-adv-x="1197" 
d="M48 0v190l153 31v1013l-153 31v191h153h322h180v-191l-180 -31v-988h378l11 209h245v-455h-1109zM186 1565l203 273h334l2 -6l-278 -267h-254h-7z" />
    <glyph glyph-name="lacute" unicode="&#x13a;" horiz-adv-x="653" 
d="M41 0v190l135 31v1117l-154 31v191h476v-1339l133 -31v-190h-590zM148 1661l203 273h334l2 -6l-278 -267h-254h-7z" />
    <glyph glyph-name="uni013B" unicode="&#x13b;" horiz-adv-x="1197" 
d="M48 0v190l153 31v1013l-153 31v191h153h322h180v-191l-180 -31v-988h378l11 209h245v-455h-1109zM561 -531l-150 94.999c20.667 32 36.5 64.333 47.5 97s16.5 74 16.5 124v96h266v-79c0 -64 -17.5 -125.667 -52.5 -185s-77.5 -108.666 -127.5 -147.999z" />
    <glyph glyph-name="uni013C" unicode="&#x13c;" horiz-adv-x="653" 
d="M41 0v190l135 31v1117l-154 31v191h476v-1339l133 -31v-190h-590zM301 -531l-150 94.999c20.667 32 36.5 64.333 47.5 97s16.5 74 16.5 124v96h266v-79c0 -64 -17.5 -125.667 -52.5 -185s-77.5 -108.666 -127.5 -147.999z" />
    <glyph glyph-name="Lcaron" unicode="&#x13d;" horiz-adv-x="1197" 
d="M48 0v190l153 31v1013l-153 31v191h153h322h180v-191l-180 -31v-988h378l11 209h245v-455h-1109zM1006 1044l-150 94.999c20.667 32 36.5 64.333 47.5 97s16.5 74 16.5 124v96h266v-79c0 -64 -17.5 -125.667 -52.5 -185s-77.5 -108.666 -127.5 -147.999z" />
    <glyph glyph-name="lcaron" unicode="&#x13e;" horiz-adv-x="653" 
d="M41 0v190l135 31v1117l-154 31v191h476v-1339l133 -31v-190h-590zM706 1148l-150 94.999c20.667 32 36.5 64.333 47.5 97s16.5 74 16.5 124v96h266v-79c0 -64 -17.5 -125.667 -52.5 -185s-77.5 -108.666 -127.5 -147.999z" />
    <glyph glyph-name="Ldot" unicode="&#x13f;" horiz-adv-x="1197" 
d="M48 0v190l153 31v1013l-153 31v191h153h322h180v-191l-180 -31v-988h378l11 209h245v-455h-1109zM816 609v273h320v-273h-320z" />
    <glyph glyph-name="ldot" unicode="&#x140;" horiz-adv-x="653" 
d="M41 0v190l135 31v1117l-154 31v191h476v-1339l133 -31v-190h-590zM616 609v273h320v-273h-320z" />
    <glyph glyph-name="Lslash" unicode="&#x141;" horiz-adv-x="1197" 
d="M48 0v190l153 31v1013l-153 31v191h153h322h180v-191l-180 -31v-988h378l11 209h245v-455h-1109zM74 570v204l669 187v-204z" />
    <glyph glyph-name="lslash" unicode="&#x142;" horiz-adv-x="653" 
d="M41 0v190l135 31v1117l-154 31v191h476v-1339l133 -31v-190h-590zM45 570v205l589 187v-205z" />
    <glyph glyph-name="Nacute" unicode="&#x143;" horiz-adv-x="1607" 
d="M47 0v190l153 31v1013l-153 31v191h153h327l609 -971l6 1v748l-189 31v191h475h153v-191l-153 -31v-1234h-315l-621 956l-6 -1v-734l190 -31v-190h-629zM613 1565l203 273h334l2 -6l-278 -267h-254h-7z" />
    <glyph glyph-name="nacute" unicode="&#x144;" horiz-adv-x="1296" 
d="M45 0l-0.00390625 190.001l133 31v639l-153 31v191h455l12 -153c36 54.667 80.5 97.167 133.5 127.5s112.833 45.5 179.5 45.5c104.667 0 186.834 -34.333 246.501 -103s89.5 -177 89.5 -325v-453l133 -31v-190h-569v190l114 31v453
c0 65.333 -13.167 111.666 -39.5 138.999s-64.166 41 -113.499 41c-37.333 0 -69.666 -7.33301 -96.999 -22s-50.666 -36 -69.999 -64v-547l104 -31v-190h-558zM457.996 1287l203 273h334l2 -6l-278 -267h-254h-7z" />
    <glyph glyph-name="uni0145" unicode="&#x145;" horiz-adv-x="1607" 
d="M47 0v190l153 31v1013l-153 31v191h153h327l609 -971l6 1v748l-189 31v191h475h153v-191l-153 -31v-1234h-315l-621 956l-6 -1v-734l190 -31v-190h-629zM766 -531l-150 94.999c20.667 32 36.5 64.333 47.5 97s16.5 74 16.5 124v96h266v-79
c0 -64 -17.5 -125.667 -52.5 -185s-77.5 -108.666 -127.5 -147.999z" />
    <glyph glyph-name="uni0146" unicode="&#x146;" horiz-adv-x="1296" 
d="M45 0l-0.00390625 190.001l133 31v639l-153 31v191h455l12 -153c36 54.667 80.5 97.167 133.5 127.5s112.833 45.5 179.5 45.5c104.667 0 186.834 -34.333 246.501 -103s89.5 -177 89.5 -325v-453l133 -31v-190h-569v190l114 31v453
c0 65.333 -13.167 111.666 -39.5 138.999s-64.166 41 -113.499 41c-37.333 0 -69.666 -7.33301 -96.999 -22s-50.666 -36 -69.999 -64v-547l104 -31v-190h-558zM610.996 -530.999l-150 94.999c20.667 32 36.5 64.333 47.5 97s16.5 74 16.5 124v96h266v-79
c0 -64 -17.5 -125.667 -52.5 -185s-77.5 -108.666 -127.5 -147.999z" />
    <glyph glyph-name="Ncaron" unicode="&#x147;" horiz-adv-x="1607" 
d="M47 0v190l153 31v1013l-153 31v191h153h327l609 -971l6 1v748l-189 31v191h475h153v-191l-153 -31v-1234h-315l-621 956l-6 -1v-734l190 -31v-190h-629zM1183 1838v-26l-258 -245h-246l-254 248v23h249l129 -143l135 143h245z" />
    <glyph glyph-name="ncaron" unicode="&#x148;" horiz-adv-x="1296" 
d="M45 0l-0.00390625 190.001l133 31v639l-153 31v191h455l12 -153c36 54.667 80.5 97.167 133.5 127.5s112.833 45.5 179.5 45.5c104.667 0 186.834 -34.333 246.501 -103s89.5 -177 89.5 -325v-453l133 -31v-190h-569v190l114 31v453
c0 65.333 -13.167 111.666 -39.5 138.999s-64.166 41 -113.499 41c-37.333 0 -69.666 -7.33301 -96.999 -22s-50.666 -36 -69.999 -64v-547l104 -31v-190h-558zM1028 1560v-26l-258 -245h-246l-254 248v23h249l129 -143l135 143h245z" />
    <glyph glyph-name="napostrophe" unicode="&#x149;" horiz-adv-x="1296" 
d="M45 0l-0.00390625 190.001l133 31v639l-153 31v191h455l12 -153c36 54.667 80.5 97.167 133.5 127.5s112.833 45.5 179.5 45.5c104.667 0 186.834 -34.333 246.501 -103s89.5 -177 89.5 -325v-453l133 -31v-190h-569v190l114 31v453
c0 65.333 -13.167 111.666 -39.5 138.999s-64.166 41 -113.499 41c-37.333 0 -69.666 -7.33301 -96.999 -22s-50.666 -36 -69.999 -64v-547l104 -31v-190h-558zM170.996 1148l-150 94.999c20.667 32 36.5 64.333 47.5 97s16.5 74 16.5 124v96h266v-79
c0 -64 -17.5 -125.667 -52.5 -185s-77.5 -108.666 -127.5 -147.999z" />
    <glyph glyph-name="Eng" unicode="&#x14a;" horiz-adv-x="1592" 
d="M1022 -437c-28.667 0 -54.667 1.16699 -78 3.5s-48.333 6.5 -75 12.5l14 243l46.5 -9c13.667 -2.66699 29.167 -4 46.5 -4c40 0 70.667 14.5 92 43.5s32 69.833 32 122.5v25l-552 941h-6v-720l153 -31v-190h-627v190l153 31v1013l-153 31v191h474l552 -941l6 2v717
l-152 31v191h626v-191l-152 -31v-1259c0 -131.333 -35.167 -232.833 -105.5 -304.5s-168.5 -107.5 -294.5 -107.5z" />
    <glyph glyph-name="eng" unicode="&#x14b;" horiz-adv-x="1288" 
d="M791 -437c-29.333 0 -56.166 1.16504 -80.499 3.49805s-49.5 6.5 -75.5 12.5l14 244c17.333 -3.33301 33.166 -6.16602 47.499 -8.49902s30.5 -3.5 48.5 -3.5c40 0 70.333 14 91 42s31 68.667 31 122v681c0 72.667 -11.833 123.834 -35.5 153.501s-59.5 44.5 -107.5 44.5
c-37.333 0 -70.833 -8.33301 -100.5 -25s-54.5 -39.667 -74.5 -69v-539l132 -31v-190h-587v190l133 31v639l-152 31v191h453l13 -153c36 54.667 80.5 97.167 133.5 127.5s112.833 45.5 179.5 45.5c103.333 0 184.833 -35.667 244.5 -107s89.5 -184 89.5 -338v-682
c0 -131.333 -35.167 -232.833 -105.5 -304.5s-167.5 -107.5 -291.5 -107.5z" />
    <glyph glyph-name="Omacron" unicode="&#x14c;" horiz-adv-x="1476" 
d="M738 -21c-99.333 0 -190.169 18.333 -272.502 55s-153.666 88.334 -213.999 155.001s-106.666 144.834 -138.999 234.501s-48.5 187.5 -48.5 293.5v23c0 105.333 16.167 202.666 48.5 291.999s78.5 167.333 138.5 234s131 118.5 213 155.5s172.667 55.5 272 55.5
s190.333 -18.5 273 -55.5s154.667 -88.833 216 -155.5s108.833 -144.667 142.5 -234s50.5 -186.666 50.5 -291.999v-23c0 -106 -16.833 -203.833 -50.5 -293.5s-81 -167.834 -142 -234.501s-133 -118.334 -216 -155.001s-173.5 -55 -271.5 -55zM737.997 225
c78 0 143.668 20.499 197.001 61.499s93.833 98.333 121.5 172s41.5 159.834 41.5 258.501v25c0 96.667 -14 181.5 -42 254.5s-68.667 130.167 -122 171.5s-119.333 62 -198 62c-79.333 0 -145 -20.333 -197 -61s-90.667 -97.5 -116 -170.5s-38 -158.5 -38 -256.5v-25
c0 -98 12.833 -184 38.5 -258s64.667 -131.5 117 -172.5s118.166 -61.5 197.499 -61.5zM370.998 1578v185h734v-185h-734z" />
    <glyph glyph-name="omacron" unicode="&#x14d;" horiz-adv-x="1164" 
d="M584 -21c-109.333 0 -202.832 23.1689 -280.499 69.502s-137.167 111 -178.5 194s-62 179.167 -62 288.5v20c0 108 20.667 203.333 62 286s100.666 147.5 177.999 194.5s170.333 70.5 279 70.5c109.333 0 202.5 -23.333 279.5 -70s136.167 -111.334 177.5 -194.001
s62 -178.334 62 -287.001v-20c0 -108.667 -20.667 -204.5 -62 -287.5s-100.5 -147.833 -177.5 -194.5s-169.5 -70 -277.5 -70zM584.001 224.002c46.667 0 84.332 12.667 112.999 38s49.834 61 63.501 107s20.5 100 20.5 162v20c0 60.667 -6.83301 113.834 -20.5 159.501
s-35 81.334 -64 107.001s-67.167 38.5 -114.5 38.5c-46.667 0 -84.5 -12.833 -113.5 -38.5s-50.167 -61.334 -63.5 -107.001s-20 -98.834 -20 -159.501v-20c0 -62.667 6.66699 -117 20 -163s34.5 -81.5 63.5 -106.5s67.5 -37.5 115.5 -37.5zM215.999 1300v185h734v-185h-734
z" />
    <glyph glyph-name="Obreve" unicode="&#x14e;" horiz-adv-x="1476" 
d="M738 -21c-99.333 0 -190.169 18.333 -272.502 55s-153.666 88.334 -213.999 155.001s-106.666 144.834 -138.999 234.501s-48.5 187.5 -48.5 293.5v23c0 105.333 16.167 202.666 48.5 291.999s78.5 167.333 138.5 234s131 118.5 213 155.5s172.667 55.5 272 55.5
s190.333 -18.5 273 -55.5s154.667 -88.833 216 -155.5s108.833 -144.667 142.5 -234s50.5 -186.666 50.5 -291.999v-23c0 -106 -16.833 -203.833 -50.5 -293.5s-81 -167.834 -142 -234.501s-133 -118.334 -216 -155.001s-173.5 -55 -271.5 -55zM737.997 225
c78 0 143.668 20.499 197.001 61.499s93.833 98.333 121.5 172s41.5 159.834 41.5 258.501v25c0 96.667 -14 181.5 -42 254.5s-68.667 130.167 -122 171.5s-119.333 62 -198 62c-79.333 0 -145 -20.333 -197 -61s-90.667 -97.5 -116 -170.5s-38 -158.5 -38 -256.5v-25
c0 -98 12.833 -184 38.5 -258s64.667 -131.5 117 -172.5s118.166 -61.5 197.499 -61.5zM738.998 1539c-111.333 0 -200 27.334 -266 82.001s-97 125 -93 211l2 6h213c0 -36 11.5 -66 34.5 -90s59.5 -36 109.5 -36c48 0 83.5 11.667 106.5 35s34.5 53.666 34.5 90.999h214
l2 -6c2.66699 -86 -28.5 -156.333 -93.5 -211s-152.833 -82 -263.5 -82z" />
    <glyph glyph-name="obreve" unicode="&#x14f;" horiz-adv-x="1164" 
d="M584 -21c-109.333 0 -202.832 23.1689 -280.499 69.502s-137.167 111 -178.5 194s-62 179.167 -62 288.5v20c0 108 20.667 203.333 62 286s100.666 147.5 177.999 194.5s170.333 70.5 279 70.5c109.333 0 202.5 -23.333 279.5 -70s136.167 -111.334 177.5 -194.001
s62 -178.334 62 -287.001v-20c0 -108.667 -20.667 -204.5 -62 -287.5s-100.5 -147.833 -177.5 -194.5s-169.5 -70 -277.5 -70zM584.001 224.002c46.667 0 84.332 12.667 112.999 38s49.834 61 63.501 107s20.5 100 20.5 162v20c0 60.667 -6.83301 113.834 -20.5 159.501
s-35 81.334 -64 107.001s-67.167 38.5 -114.5 38.5c-46.667 0 -84.5 -12.833 -113.5 -38.5s-50.167 -61.334 -63.5 -107.001s-20 -98.834 -20 -159.501v-20c0 -62.667 6.66699 -117 20 -163s34.5 -81.5 63.5 -106.5s67.5 -37.5 115.5 -37.5zM583.999 1261
c-111.333 0 -200 27.334 -266 82.001s-97 125 -93 211l2 6h213c0 -36 11.5 -66 34.5 -90s59.5 -36 109.5 -36c48 0 83.5 11.667 106.5 35s34.5 53.666 34.5 90.999h214l2 -6c2.66699 -86 -28.5 -156.333 -93.5 -211s-152.833 -82 -263.5 -82z" />
    <glyph glyph-name="Ohungarumlaut" unicode="&#x150;" horiz-adv-x="1476" 
d="M738 -21c-99.333 0 -190.169 18.333 -272.502 55s-153.666 88.334 -213.999 155.001s-106.666 144.834 -138.999 234.501s-48.5 187.5 -48.5 293.5v23c0 105.333 16.167 202.666 48.5 291.999s78.5 167.333 138.5 234s131 118.5 213 155.5s172.667 55.5 272 55.5
s190.333 -18.5 273 -55.5s154.667 -88.833 216 -155.5s108.833 -144.667 142.5 -234s50.5 -186.666 50.5 -291.999v-23c0 -106 -16.833 -203.833 -50.5 -293.5s-81 -167.834 -142 -234.501s-133 -118.334 -216 -155.001s-173.5 -55 -271.5 -55zM737.997 225
c78 0 143.668 20.499 197.001 61.499s93.833 98.333 121.5 172s41.5 159.834 41.5 258.501v25c0 96.667 -14 181.5 -42 254.5s-68.667 130.167 -122 171.5s-119.333 62 -198 62c-79.333 0 -145 -20.333 -197 -61s-90.667 -97.5 -116 -170.5s-38 -158.5 -38 -256.5v-25
c0 -98 12.833 -184 38.5 -258s64.667 -131.5 117 -172.5s118.166 -61.5 197.499 -61.5zM726.998 1565l-2 5l239 268h292l1 -6l-291 -267h-239zM363.998 1565h-7l204 273h275l2 -5l-240 -268h-234z" />
    <glyph glyph-name="ohungarumlaut" unicode="&#x151;" horiz-adv-x="1164" 
d="M584 -21c-109.333 0 -202.832 23.1689 -280.499 69.502s-137.167 111 -178.5 194s-62 179.167 -62 288.5v20c0 108 20.667 203.333 62 286s100.666 147.5 177.999 194.5s170.333 70.5 279 70.5c109.333 0 202.5 -23.333 279.5 -70s136.167 -111.334 177.5 -194.001
s62 -178.334 62 -287.001v-20c0 -108.667 -20.667 -204.5 -62 -287.5s-100.5 -147.833 -177.5 -194.5s-169.5 -70 -277.5 -70zM584.001 224.002c46.667 0 84.332 12.667 112.999 38s49.834 61 63.501 107s20.5 100 20.5 162v20c0 60.667 -6.83301 113.834 -20.5 159.501
s-35 81.334 -64 107.001s-67.167 38.5 -114.5 38.5c-46.667 0 -84.5 -12.833 -113.5 -38.5s-50.167 -61.334 -63.5 -107.001s-20 -98.834 -20 -159.501v-20c0 -62.667 6.66699 -117 20 -163s34.5 -81.5 63.5 -106.5s67.5 -37.5 115.5 -37.5zM571.999 1287l-2 5l239 268h292
l1 -6l-291 -267h-239zM208.999 1287h-7l204 273h275l2 -5l-240 -268h-234z" />
    <glyph glyph-name="OE" unicode="&#x152;" horiz-adv-x="2042" 
d="M762 -21c-104.667 0 -199.833 18.332 -285.5 54.999s-159.334 88.334 -221.001 155.001s-109 144.834 -142 234.501s-49.5 187.5 -49.5 293.5v23c0 105.333 16.5 202.666 49.5 291.999s80.167 167.333 141.5 234s134.833 118.5 220.5 155.5s180.5 55.5 284.5 55.5
c56 0 111.833 -4.33301 167.5 -13s109.834 -21 162.501 -37v-307c-46.667 34.667 -98.334 61.667 -155.001 81s-115 29 -175 29c-86 0 -156.833 -20.333 -212.5 -61s-96.667 -97.5 -123 -170.5s-39.5 -158.5 -39.5 -256.5v-25c0 -98 13.5 -184 40.5 -258
s68.333 -131.5 124 -172.5s126.5 -61.5 212.5 -61.5c58 0 115.167 8.66699 171.5 26s108.5 41.333 156.5 72v-294c-52.667 -16 -106.667 -28.333 -162 -37s-110.666 -13 -165.999 -13zM869.001 -0.000976562l68 203v1049l-68 204h1076v-414h-241l-12 168h-433v-334h473v-247
h-473v-384h434l12 168h239v-413h-1075z" />
    <glyph glyph-name="oe" unicode="&#x153;" horiz-adv-x="1822" 
d="M584 -21c-109.333 0 -202.831 23.168 -280.498 69.501s-137.167 111 -178.5 194s-62 179.167 -62 288.5v20c0 108 20.667 203.333 62 286s100.666 147.5 177.999 194.5s170.333 70.5 279 70.5c73.333 0 140.5 -12.833 201.5 -38.5s114.167 -62.167 159.5 -109.5
c42.667 48.667 92.5 85.5 149.5 110.5s121.5 37.5 193.5 37.5c98 0 181.667 -19.833 251 -59.5s122.5 -96.167 159.5 -169.5s55.5 -160.333 55.5 -261v-170h-630l-1 -7c4.66699 -40.667 16.5 -76.834 35.5 -108.501s45 -56.667 78 -75s71.833 -27.5 116.5 -27.5
c43.333 0 80.333 2.5 111 7.5s60.667 13 90 24s61.666 24.833 96.999 41.5l81 -196c-45.333 -34 -105 -62.833 -179 -86.5s-154 -35.5 -240 -35.5c-50 0 -97 5.5 -141 16.5s-84.833 27.5 -122.5 49.5s-71.5 49.333 -101.5 82c-44.667 -49.333 -97.5 -86.333 -158.5 -111
s-128.833 -37 -203.5 -37zM584.002 224.001c46.667 0 84.334 12.667 113.001 38s49.667 61 63 107s20 100 20 162v20c0 60.667 -6.83301 113.834 -20.5 159.501s-34.834 81.334 -63.501 107.001s-66.667 38.5 -114 38.5s-85.333 -12.833 -114 -38.5
s-49.667 -61.334 -63 -107.001s-20 -98.834 -20 -159.501v-20c0 -62.667 6.66699 -117 20 -163s34.5 -81.5 63.5 -106.5s67.5 -37.5 115.5 -37.5zM1123 647.001l316.001 -0.000976562v26c0 38 -5.5 70.667 -16.5 98s-27.833 48.333 -50.5 63s-51.334 22 -86.001 22
c-33.333 0 -61.5 -8.5 -84.5 -25.5s-41 -40.667 -54 -71s-21.833 -66.166 -26.5 -107.499z" />
    <glyph glyph-name="Racute" unicode="&#x154;" horiz-adv-x="1415" 
d="M48 0v190l153 31v1013l-153 31v192h703c113.333 0 211.333 -18 294 -54s146.167 -87 190.5 -153s66.5 -144.667 66.5 -236c0 -85.333 -22.333 -163.333 -67 -234s-106 -126.667 -184 -168s-167.667 -62 -269 -62l-259 1v-330l153 -31v-190h-628zM977 0l-220 598l284 85
l195 -462l131 -31v-190h-390zM523 799h226.999c76 0 133.667 16.667 173 50s59 82 59 146c0 65.333 -19.667 117.5 -59 156.5s-96.666 58.5 -171.999 58.5h-228v-411zM510.999 1565l203 273h334l2 -6l-278 -267h-254h-7z" />
    <glyph glyph-name="racute" unicode="&#x155;" horiz-adv-x="896" 
d="M89 0l0.00195312 189.999l133 31v639l-152 31v191h453l10 -133l2 -26c25.333 60.667 56.666 105.667 93.999 135s83.333 44 138 44c15.333 0 33.166 -1.33301 53.499 -4s39.833 -6.66699 58.5 -12l-33 -295l-148 7c-38 1.33301 -68.333 -4.16699 -91 -16.5
s-43.667 -31.166 -63 -56.499v-504l133 -31v-190h-588zM261.002 1287l203 273h334l2 -6l-278 -267h-254h-7z" />
    <glyph glyph-name="uni0156" unicode="&#x156;" horiz-adv-x="1415" 
d="M48 0v190l153 31v1013l-153 31v192h703c113.333 0 211.333 -18 294 -54s146.167 -87 190.5 -153s66.5 -144.667 66.5 -236c0 -85.333 -22.333 -163.333 -67 -234s-106 -126.667 -184 -168s-167.667 -62 -269 -62l-259 1v-330l153 -31v-190h-628zM977 0l-220 598l284 85
l195 -462l131 -31v-190h-390zM523 799h226.999c76 0 133.667 16.667 173 50s59 82 59 146c0 65.333 -19.667 117.5 -59 156.5s-96.666 58.5 -171.999 58.5h-228v-411zM669.999 -531l-150 94.999c20.667 32 36.5 64.333 47.5 97s16.5 74 16.5 124v96h266v-79
c0 -64 -17.5 -125.667 -52.5 -185s-77.5 -108.666 -127.5 -147.999z" />
    <glyph glyph-name="uni0157" unicode="&#x157;" horiz-adv-x="896" 
d="M89 0l0.00195312 189.999l133 31v639l-152 31v191h453l10 -133l2 -26c25.333 60.667 56.666 105.667 93.999 135s83.333 44 138 44c15.333 0 33.166 -1.33301 53.499 -4s39.833 -6.66699 58.5 -12l-33 -295l-148 7c-38 1.33301 -68.333 -4.16699 -91 -16.5
s-43.667 -31.166 -63 -56.499v-504l133 -31v-190h-588zM394.002 -531.001l-150 94.999c20.667 32 36.5 64.333 47.5 97s16.5 74 16.5 124v96h266v-79c0 -64 -17.5 -125.667 -52.5 -185s-77.5 -108.666 -127.5 -147.999z" />
    <glyph glyph-name="Rcaron" unicode="&#x158;" horiz-adv-x="1415" 
d="M48 0v190l153 31v1013l-153 31v192h703c113.333 0 211.333 -18 294 -54s146.167 -87 190.5 -153s66.5 -144.667 66.5 -236c0 -85.333 -22.333 -163.333 -67 -234s-106 -126.667 -184 -168s-167.667 -62 -269 -62l-259 1v-330l153 -31v-190h-628zM977 0l-220 598l284 85
l195 -462l131 -31v-190h-390zM523 799h226.999c76 0 133.667 16.667 173 50s59 82 59 146c0 65.333 -19.667 117.5 -59 156.5s-96.666 58.5 -171.999 58.5h-228v-411zM1081 1838v-26l-258 -245h-246l-254 248v23h249l129 -143l135 143h245z" />
    <glyph glyph-name="rcaron" unicode="&#x159;" horiz-adv-x="896" 
d="M89 0l0.00195312 189.999l133 31v639l-152 31v191h453l10 -133l2 -26c25.333 60.667 56.666 105.667 93.999 135s83.333 44 138 44c15.333 0 33.166 -1.33301 53.499 -4s39.833 -6.66699 58.5 -12l-33 -295l-148 7c-38 1.33301 -68.333 -4.16699 -91 -16.5
s-43.667 -31.166 -63 -56.499v-504l133 -31v-190h-588zM832.002 1560v-26l-258 -245h-246l-254 248v23h249l129 -143l135 143h245z" />
    <glyph glyph-name="Sacute" unicode="&#x15a;" horiz-adv-x="1259" 
d="M663 -21c-112.667 0 -213.998 11.6689 -303.998 35.002s-179 65.333 -267 126v366h248l31 -201c25.333 -24.667 64.666 -45 117.999 -61s111.333 -24 174 -24c49.333 0 90.5 6.33301 123.5 19s58 31.167 75 55.5s25.5 53.166 25.5 86.499c0 32 -7.83301 60.333 -23.5 85
s-41.334 47.667 -77.001 69s-83.834 42.666 -144.501 63.999c-120 36.667 -219 75.5 -297 116.5s-136.167 89.667 -174.5 146s-57.5 125.166 -57.5 206.499c0 80 22.5 150.167 67.5 210.5s107 107.833 186 142.5s169.5 52.667 271.5 54
c116 2.66699 218.333 -9.66602 307 -36.999s166.334 -66.666 233.001 -117.999v-340h-240l-39 198c-24 13.333 -57.333 25.333 -100 36s-89.334 16 -140.001 16c-44 0 -82.833 -6.16699 -116.5 -18.5s-60.167 -30.5 -79.5 -54.5s-29 -53.667 -29 -89
c0 -28.667 8.16699 -54.334 24.5 -77.001s44.833 -44.5 85.5 -65.5s97 -44.167 169 -69.5c162.667 -46.667 286.334 -106.667 371.001 -180s127 -171 127 -293c0 -84.667 -23 -157.167 -69 -217.5s-110 -106.5 -192 -138.5s-177.667 -48 -287 -48zM438.002 1565l203 273h334
l2 -6l-278 -267h-254h-7z" />
    <glyph glyph-name="sacute" unicode="&#x15b;" horiz-adv-x="1037" 
d="M531 -21c-82.667 0 -159.833 7.66992 -231.5 23.0029s-138.167 37 -199.5 65l-4 322h220l39 -157c18.667 -9.33301 40.334 -17.333 65.001 -24s53.334 -10 86.001 -10c60.667 0 103 9.16699 127 27.5s36 41.166 36 68.499c0 26.667 -13.167 50.5 -39.5 71.5
s-80.5 39.5 -162.5 55.5c-127.333 25.333 -221.166 67 -281.499 125s-90.5 131.333 -90.5 220c0 60 14.5 115.167 43.5 165.5s75.167 91 138.5 122s145.666 46.5 246.999 46.5c81.333 0 157.5 -7.5 228.5 -22.5s129.833 -34.167 176.5 -57.5l1 -311h-220l-30 141
c-16.667 12 -35.834 21 -57.501 27s-46.167 9 -73.5 9c-48 0 -84 -9.16699 -108 -27.5s-36 -41.833 -36 -70.5c0 -16.667 4.66699 -32.834 14 -48.501s27.666 -30.334 54.999 -44.001s67.666 -26.5 120.999 -38.5c128.667 -28.667 223.834 -67.834 285.501 -117.501
s92.5 -122.5 92.5 -218.5c0 -103.333 -37.333 -186.166 -112 -248.499s-184.667 -93.5 -330 -93.5zM328.001 1287l203 273h334l2 -6l-278 -267h-254h-7z" />
    <glyph glyph-name="Scircumflex" unicode="&#x15c;" horiz-adv-x="1259" 
d="M663 -21c-112.667 0 -213.998 11.6689 -303.998 35.002s-179 65.333 -267 126v366h248l31 -201c25.333 -24.667 64.666 -45 117.999 -61s111.333 -24 174 -24c49.333 0 90.5 6.33301 123.5 19s58 31.167 75 55.5s25.5 53.166 25.5 86.499c0 32 -7.83301 60.333 -23.5 85
s-41.334 47.667 -77.001 69s-83.834 42.666 -144.501 63.999c-120 36.667 -219 75.5 -297 116.5s-136.167 89.667 -174.5 146s-57.5 125.166 -57.5 206.499c0 80 22.5 150.167 67.5 210.5s107 107.833 186 142.5s169.5 52.667 271.5 54
c116 2.66699 218.333 -9.66602 307 -36.999s166.334 -66.666 233.001 -117.999v-340h-240l-39 198c-24 13.333 -57.333 25.333 -100 36s-89.334 16 -140.001 16c-44 0 -82.833 -6.16699 -116.5 -18.5s-60.167 -30.5 -79.5 -54.5s-29 -53.667 -29 -89
c0 -28.667 8.16699 -54.334 24.5 -77.001s44.833 -44.5 85.5 -65.5s97 -44.167 169 -69.5c162.667 -46.667 286.334 -106.667 371.001 -180s127 -171 127 -293c0 -84.667 -23 -157.167 -69 -217.5s-110 -106.5 -192 -138.5s-177.667 -48 -287 -48zM251.002 1567v26l257 245
h246l255 -249v-22h-249l-130 143l-134 -143h-245z" />
    <glyph glyph-name="scircumflex" unicode="&#x15d;" horiz-adv-x="1037" 
d="M531 -21c-82.667 0 -159.833 7.66992 -231.5 23.0029s-138.167 37 -199.5 65l-4 322h220l39 -157c18.667 -9.33301 40.334 -17.333 65.001 -24s53.334 -10 86.001 -10c60.667 0 103 9.16699 127 27.5s36 41.166 36 68.499c0 26.667 -13.167 50.5 -39.5 71.5
s-80.5 39.5 -162.5 55.5c-127.333 25.333 -221.166 67 -281.499 125s-90.5 131.333 -90.5 220c0 60 14.5 115.167 43.5 165.5s75.167 91 138.5 122s145.666 46.5 246.999 46.5c81.333 0 157.5 -7.5 228.5 -22.5s129.833 -34.167 176.5 -57.5l1 -311h-220l-30 141
c-16.667 12 -35.834 21 -57.501 27s-46.167 9 -73.5 9c-48 0 -84 -9.16699 -108 -27.5s-36 -41.833 -36 -70.5c0 -16.667 4.66699 -32.834 14 -48.501s27.666 -30.334 54.999 -44.001s67.666 -26.5 120.999 -38.5c128.667 -28.667 223.834 -67.834 285.501 -117.501
s92.5 -122.5 92.5 -218.5c0 -103.333 -37.333 -186.166 -112 -248.499s-184.667 -93.5 -330 -93.5zM140.001 1289v26l257 245h246l255 -249v-22h-249l-130 143l-134 -143h-245z" />
    <glyph glyph-name="Scedilla" unicode="&#x15e;" horiz-adv-x="1259" 
d="M663 -21c-112.667 0 -213.998 11.6689 -303.998 35.002s-179 65.333 -267 126v366h248l31 -201c25.333 -24.667 64.666 -45 117.999 -61s111.333 -24 174 -24c49.333 0 90.5 6.33301 123.5 19s58 31.167 75 55.5s25.5 53.166 25.5 86.499c0 32 -7.83301 60.333 -23.5 85
s-41.334 47.667 -77.001 69s-83.834 42.666 -144.501 63.999c-120 36.667 -219 75.5 -297 116.5s-136.167 89.667 -174.5 146s-57.5 125.166 -57.5 206.499c0 80 22.5 150.167 67.5 210.5s107 107.833 186 142.5s169.5 52.667 271.5 54
c116 2.66699 218.333 -9.66602 307 -36.999s166.334 -66.666 233.001 -117.999v-340h-240l-39 198c-24 13.333 -57.333 25.333 -100 36s-89.334 16 -140.001 16c-44 0 -82.833 -6.16699 -116.5 -18.5s-60.167 -30.5 -79.5 -54.5s-29 -53.667 -29 -89
c0 -28.667 8.16699 -54.334 24.5 -77.001s44.833 -44.5 85.5 -65.5s97 -44.167 169 -69.5c162.667 -46.667 286.334 -106.667 371.001 -180s127 -171 127 -293c0 -84.667 -23 -157.167 -69 -217.5s-110 -106.5 -192 -138.5s-177.667 -48 -287 -48zM504.002 -466.998
l-7 175.998c37.333 0 66.833 6 88.5 18s32.5 31 32.5 57c0 27.333 -11.5 46.5 -34.5 57.5s-58.5 17.5 -106.5 19.5l32 153h239l-12 -69c44.667 -7.33301 82.167 -24.166 112.5 -50.499s45.5 -65.166 45.5 -116.499c0 -74 -34 -133.333 -102 -178s-164 -67 -288 -67z" />
    <glyph glyph-name="scedilla" unicode="&#x15f;" horiz-adv-x="1037" 
d="M531 -21c-82.667 0 -159.833 7.66992 -231.5 23.0029s-138.167 37 -199.5 65l-4 322h220l39 -157c18.667 -9.33301 40.334 -17.333 65.001 -24s53.334 -10 86.001 -10c60.667 0 103 9.16699 127 27.5s36 41.166 36 68.499c0 26.667 -13.167 50.5 -39.5 71.5
s-80.5 39.5 -162.5 55.5c-127.333 25.333 -221.166 67 -281.499 125s-90.5 131.333 -90.5 220c0 60 14.5 115.167 43.5 165.5s75.167 91 138.5 122s145.666 46.5 246.999 46.5c81.333 0 157.5 -7.5 228.5 -22.5s129.833 -34.167 176.5 -57.5l1 -311h-220l-30 141
c-16.667 12 -35.834 21 -57.501 27s-46.167 9 -73.5 9c-48 0 -84 -9.16699 -108 -27.5s-36 -41.833 -36 -70.5c0 -16.667 4.66699 -32.834 14 -48.501s27.666 -30.334 54.999 -44.001s67.666 -26.5 120.999 -38.5c128.667 -28.667 223.834 -67.834 285.501 -117.501
s92.5 -122.5 92.5 -218.5c0 -103.333 -37.333 -186.166 -112 -248.499s-184.667 -93.5 -330 -93.5zM394.001 -466.997l-7 175.998c37.333 0 66.833 6 88.5 18s32.5 31 32.5 57c0 27.333 -11.5 46.5 -34.5 57.5s-58.5 17.5 -106.5 19.5l32 153h239l-12 -69
c44.667 -7.33301 82.167 -24.166 112.5 -50.499s45.5 -65.166 45.5 -116.499c0 -74 -34 -133.333 -102 -178s-164 -67 -288 -67z" />
    <glyph glyph-name="Scaron" unicode="&#x160;" horiz-adv-x="1259" 
d="M663 -21c-112.667 0 -213.998 11.6689 -303.998 35.002s-179 65.333 -267 126v366h248l31 -201c25.333 -24.667 64.666 -45 117.999 -61s111.333 -24 174 -24c49.333 0 90.5 6.33301 123.5 19s58 31.167 75 55.5s25.5 53.166 25.5 86.499c0 32 -7.83301 60.333 -23.5 85
s-41.334 47.667 -77.001 69s-83.834 42.666 -144.501 63.999c-120 36.667 -219 75.5 -297 116.5s-136.167 89.667 -174.5 146s-57.5 125.166 -57.5 206.499c0 80 22.5 150.167 67.5 210.5s107 107.833 186 142.5s169.5 52.667 271.5 54
c116 2.66699 218.333 -9.66602 307 -36.999s166.334 -66.666 233.001 -117.999v-340h-240l-39 198c-24 13.333 -57.333 25.333 -100 36s-89.334 16 -140.001 16c-44 0 -82.833 -6.16699 -116.5 -18.5s-60.167 -30.5 -79.5 -54.5s-29 -53.667 -29 -89
c0 -28.667 8.16699 -54.334 24.5 -77.001s44.833 -44.5 85.5 -65.5s97 -44.167 169 -69.5c162.667 -46.667 286.334 -106.667 371.001 -180s127 -171 127 -293c0 -84.667 -23 -157.167 -69 -217.5s-110 -106.5 -192 -138.5s-177.667 -48 -287 -48zM1009 1838v-26l-258 -245
h-246l-254 248v23h249l129 -143l135 143h245z" />
    <glyph glyph-name="scaron" unicode="&#x161;" horiz-adv-x="1037" 
d="M531 -21c-82.667 0 -159.833 7.66992 -231.5 23.0029s-138.167 37 -199.5 65l-4 322h220l39 -157c18.667 -9.33301 40.334 -17.333 65.001 -24s53.334 -10 86.001 -10c60.667 0 103 9.16699 127 27.5s36 41.166 36 68.499c0 26.667 -13.167 50.5 -39.5 71.5
s-80.5 39.5 -162.5 55.5c-127.333 25.333 -221.166 67 -281.499 125s-90.5 131.333 -90.5 220c0 60 14.5 115.167 43.5 165.5s75.167 91 138.5 122s145.666 46.5 246.999 46.5c81.333 0 157.5 -7.5 228.5 -22.5s129.833 -34.167 176.5 -57.5l1 -311h-220l-30 141
c-16.667 12 -35.834 21 -57.501 27s-46.167 9 -73.5 9c-48 0 -84 -9.16699 -108 -27.5s-36 -41.833 -36 -70.5c0 -16.667 4.66699 -32.834 14 -48.501s27.666 -30.334 54.999 -44.001s67.666 -26.5 120.999 -38.5c128.667 -28.667 223.834 -67.834 285.501 -117.501
s92.5 -122.5 92.5 -218.5c0 -103.333 -37.333 -186.166 -112 -248.499s-184.667 -93.5 -330 -93.5zM898.001 1560v-26l-258 -245h-246l-254 248v23h249l129 -143l135 143h245z" />
    <glyph glyph-name="uni0162" unicode="&#x162;" horiz-adv-x="1384" 
d="M376 0v190l154 31v987h-245l-13 -166h-242v414h1325v-414h-244l-13 166h-246v-987l154 -31v-190h-630zM567 -467l-7 175.998c37.333 0 66.833 6 88.5 18s32.5 31 32.5 57c0 27.333 -11.5 46.5 -34.5 57.5s-58.5 17.5 -106.5 19.5l32 153h239l-12 -69
c44.667 -7.33301 82.167 -24.166 112.5 -50.499s45.5 -65.166 45.5 -116.499c0 -74 -34 -133.333 -102 -178s-164 -67 -288 -67z" />
    <glyph glyph-name="uni0163" unicode="&#x163;" horiz-adv-x="736" 
d="M498 -22c-106.667 0 -188.333 28.832 -245 86.499s-85 149.5 -85 275.5v518h-142v224h142v266h319v-266h189v-224h-189v-518c0 -38 8.5 -65 25.5 -81s40.167 -24 69.5 -24c14 0 28.667 0.833008 44 2.5s29.333 3.83398 42 6.50098l25 -237
c-30.667 -8.66699 -62.5 -15.667 -95.5 -21s-66.167 -8 -99.5 -8zM236.001 -467.001l-7 175.998c37.333 0 66.833 6 88.5 18s32.5 31 32.5 57c0 27.333 -11.5 46.5 -34.5 57.5s-58.5 17.5 -106.5 19.5l32 153h239l-12 -69c44.667 -7.33301 82.167 -24.166 112.5 -50.499
s45.5 -65.166 45.5 -116.499c0 -74 -34 -133.333 -102 -178s-164 -67 -288 -67z" />
    <glyph glyph-name="Tcaron" unicode="&#x164;" horiz-adv-x="1384" 
d="M376 0v190l154 31v987h-245l-13 -166h-242v414h1325v-414h-244l-13 166h-246v-987l154 -31v-190h-630zM1072 1838v-26l-258 -245h-246l-254 248v23h249l129 -143l135 143h245z" />
    <glyph glyph-name="tcaron" unicode="&#x165;" horiz-adv-x="736" 
d="M498 -22c-106.667 0 -188.333 28.832 -245 86.499s-85 149.5 -85 275.5v518h-142v224h142v266h319v-266h189v-224h-189v-518c0 -38 8.5 -65 25.5 -81s40.167 -24 69.5 -24c14 0 28.667 0.833008 44 2.5s29.333 3.83398 42 6.50098l25 -237
c-30.667 -8.66699 -62.5 -15.667 -95.5 -21s-66.167 -8 -99.5 -8zM702.001 1148l-150 94.999c20.667 32 36.5 64.333 47.5 97s16.5 74 16.5 124v96h266v-79c0 -64 -17.5 -125.667 -52.5 -185s-77.5 -108.666 -127.5 -147.999z" />
    <glyph glyph-name="Tbar" unicode="&#x166;" horiz-adv-x="1384" 
d="M376 0v190l154 31v987h-245l-13 -166h-242v414h1325v-414h-244l-13 166h-246v-987l154 -31v-190h-630zM354 653v155h677v-155h-677z" />
    <glyph glyph-name="tbar" unicode="&#x167;" horiz-adv-x="736" 
d="M498 -22c-106.667 0 -188.333 28.832 -245 86.499s-85 149.5 -85 275.5v518h-142v224h142v266h319v-266h189v-224h-189v-518c0 -38 8.5 -65 25.5 -81s40.167 -24 69.5 -24c14 0 28.667 0.833008 44 2.5s29.333 3.83398 42 6.50098l25 -237
c-30.667 -8.66699 -62.5 -15.667 -95.5 -21s-66.167 -8 -99.5 -8zM12.001 598.999v155h677v-155h-677z" />
    <glyph glyph-name="Utilde" unicode="&#x168;" horiz-adv-x="1565" 
d="M782 -21c-120 0 -225.167 19.998 -315.5 59.998s-160.333 98.667 -210 176s-74.5 171 -74.5 281v738l-152 31v191h627v-191l-153 -31v-738c0 -61.333 11 -112.166 33 -152.499s53.667 -70.333 95 -90s91 -29.5 149 -29.5c60 0 110.833 9.83301 152.5 29.5
s73.5 49.667 95.5 90s33 91.166 33 152.499v738l-152 31v191h627v-191l-153 -31v-738c0 -109.333 -25.333 -202.666 -76 -279.999s-121 -136.166 -211 -176.499s-195 -60.5 -315 -60.5zM564 1555l-165 44c0 46 11 88.5 33 127.5s50.833 70.167 86.5 93.5
s73.834 35 114.501 35c33.333 0 67.333 -7.83301 102 -23.5s67.667 -31.5 99 -47.5s58.333 -24.333 81 -25c27.333 1.33301 48.5 12 63.5 32s22.5 45.667 22.5 77l165 -47c0 -47.333 -10.833 -90.333 -32.5 -129s-50.334 -69.5 -86.001 -92.5s-74.5 -34.5 -116.5 -34.5
c-35.333 0 -70.5 8 -105.5 24s-67.5 32.167 -97.5 48.5s-56.333 24.5 -79 24.5c-27.333 0 -48.333 -10.667 -63 -32s-22 -46.333 -22 -75z" />
    <glyph glyph-name="utilde" unicode="&#x169;" horiz-adv-x="1284" 
d="M513 -21c-113.333 0 -202.168 35.834 -266.501 107.501s-96.5 182.5 -96.5 332.5v441l-117 31v191h117h322v-665c0 -65.333 12.167 -113.333 36.5 -144s61.5 -46 111.5 -46c34.667 0 66.667 6.66699 96 20s54.333 32.666 75 57.999v555l-123 31v191h123h322v-861l133 -31
v-190h-414l-21 130c-34.667 -48.667 -77.167 -86 -127.5 -112s-107.166 -39 -170.499 -39zM417.998 1277l-165 44c0 46 11 88.5 33 127.5s50.833 70.167 86.5 93.5s73.834 35 114.501 35c33.333 0 67.333 -7.83301 102 -23.5s67.667 -31.5 99 -47.5s58.333 -24.333 81 -25
c27.333 1.33301 48.5 12 63.5 32s22.5 45.667 22.5 77l165 -47c0 -47.333 -10.833 -90.333 -32.5 -129s-50.334 -69.5 -86.001 -92.5s-74.5 -34.5 -116.5 -34.5c-35.333 0 -70.5 8 -105.5 24s-67.5 32.167 -97.5 48.5s-56.333 24.5 -79 24.5
c-27.333 0 -48.333 -10.667 -63 -32s-22 -46.333 -22 -75z" />
    <glyph glyph-name="Umacron" unicode="&#x16a;" horiz-adv-x="1565" 
d="M782 -21c-120 0 -225.167 19.998 -315.5 59.998s-160.333 98.667 -210 176s-74.5 171 -74.5 281v738l-152 31v191h627v-191l-153 -31v-738c0 -61.333 11 -112.166 33 -152.499s53.667 -70.333 95 -90s91 -29.5 149 -29.5c60 0 110.833 9.83301 152.5 29.5
s73.5 49.667 95.5 90s33 91.166 33 152.499v738l-152 31v191h627v-191l-153 -31v-738c0 -109.333 -25.333 -202.666 -76 -279.999s-121 -136.166 -211 -176.499s-195 -60.5 -315 -60.5zM415 1578v185h734v-185h-734z" />
    <glyph glyph-name="umacron" unicode="&#x16b;" horiz-adv-x="1284" 
d="M513 -21c-113.333 0 -202.168 35.834 -266.501 107.501s-96.5 182.5 -96.5 332.5v441l-117 31v191h117h322v-665c0 -65.333 12.167 -113.333 36.5 -144s61.5 -46 111.5 -46c34.667 0 66.667 6.66699 96 20s54.333 32.666 75 57.999v555l-123 31v191h123h322v-861l133 -31
v-190h-414l-21 130c-34.667 -48.667 -77.167 -86 -127.5 -112s-107.166 -39 -170.499 -39zM268.998 1300v185h734v-185h-734z" />
    <glyph glyph-name="Ubreve" unicode="&#x16c;" horiz-adv-x="1565" 
d="M782 -21c-120 0 -225.167 19.998 -315.5 59.998s-160.333 98.667 -210 176s-74.5 171 -74.5 281v738l-152 31v191h627v-191l-153 -31v-738c0 -61.333 11 -112.166 33 -152.499s53.667 -70.333 95 -90s91 -29.5 149 -29.5c60 0 110.833 9.83301 152.5 29.5
s73.5 49.667 95.5 90s33 91.166 33 152.499v738l-152 31v191h627v-191l-153 -31v-738c0 -109.333 -25.333 -202.666 -76 -279.999s-121 -136.166 -211 -176.499s-195 -60.5 -315 -60.5zM784 1539c-111.333 0 -200 27.334 -266 82.001s-97 125 -93 211l2 6h213
c0 -36 11.5 -66 34.5 -90s59.5 -36 109.5 -36c48 0 83.5 11.667 106.5 35s34.5 53.666 34.5 90.999h214l2 -6c2.66699 -86 -28.5 -156.333 -93.5 -211s-152.833 -82 -263.5 -82z" />
    <glyph glyph-name="ubreve" unicode="&#x16d;" horiz-adv-x="1284" 
d="M513 -21c-113.333 0 -202.168 35.834 -266.501 107.501s-96.5 182.5 -96.5 332.5v441l-117 31v191h117h322v-665c0 -65.333 12.167 -113.333 36.5 -144s61.5 -46 111.5 -46c34.667 0 66.667 6.66699 96 20s54.333 32.666 75 57.999v555l-123 31v191h123h322v-861l133 -31
v-190h-414l-21 130c-34.667 -48.667 -77.167 -86 -127.5 -112s-107.166 -39 -170.499 -39zM637.998 1261c-111.333 0 -200 27.334 -266 82.001s-97 125 -93 211l2 6h213c0 -36 11.5 -66 34.5 -90s59.5 -36 109.5 -36c48 0 83.5 11.667 106.5 35s34.5 53.666 34.5 90.999h214
l2 -6c2.66699 -86 -28.5 -156.333 -93.5 -211s-152.833 -82 -263.5 -82z" />
    <glyph glyph-name="Uring" unicode="&#x16e;" horiz-adv-x="1565" 
d="M782 -21c-120 0 -225.167 19.998 -315.5 59.998s-160.333 98.667 -210 176s-74.5 171 -74.5 281v738l-152 31v191h627v-191l-153 -31v-738c0 -61.333 11 -112.166 33 -152.499s53.667 -70.333 95 -90s91 -29.5 149 -29.5c60 0 110.833 9.83301 152.5 29.5
s73.5 49.667 95.5 90s33 91.166 33 152.499v738l-152 31v191h627v-191l-153 -31v-738c0 -109.333 -25.333 -202.666 -76 -279.999s-121 -136.166 -211 -176.499s-195 -60.5 -315 -60.5zM785 1507c-69.333 0 -127.168 20.667 -173.501 62s-69.5 94.333 -69.5 159
c0 63.333 23.333 116.5 70 159.5s104.334 64.5 173.001 64.5c67.333 0 124 -21.667 170 -65s69 -96.333 69 -159c0 -64.667 -23 -117.667 -69 -159s-102.667 -62 -170 -62zM784.998 1633c27.333 0 49.166 8.5 65.499 25.5s24.5 40.167 24.5 69.5
c0 28.667 -8.16699 51.834 -24.5 69.501s-38.166 26.5 -65.499 26.5s-50 -8.83301 -68 -26.5s-27 -40.834 -27 -69.501s8.83301 -51.667 26.5 -69s40.5 -26 68.5 -26z" />
    <glyph glyph-name="uring" unicode="&#x16f;" horiz-adv-x="1284" 
d="M513 -21c-113.333 0 -202.168 35.834 -266.501 107.501s-96.5 182.5 -96.5 332.5v441l-117 31v191h117h322v-665c0 -65.333 12.167 -113.333 36.5 -144s61.5 -46 111.5 -46c34.667 0 66.667 6.66699 96 20s54.333 32.666 75 57.999v555l-123 31v191h123h322v-861l133 -31
v-190h-414l-21 130c-34.667 -48.667 -77.167 -86 -127.5 -112s-107.166 -39 -170.499 -39zM638.998 1229c-69.333 0 -127.168 20.667 -173.501 62s-69.5 94.333 -69.5 159c0 63.333 23.333 116.5 70 159.5s104.334 64.5 173.001 64.5c67.333 0 124 -21.667 170 -65
s69 -96.333 69 -159c0 -64.667 -23 -117.667 -69 -159s-102.667 -62 -170 -62zM638.996 1355c27.333 0 49.166 8.5 65.499 25.5s24.5 40.167 24.5 69.5c0 28.667 -8.16699 51.834 -24.5 69.501s-38.166 26.5 -65.499 26.5s-50 -8.83301 -68 -26.5s-27 -40.834 -27 -69.501
s8.83301 -51.667 26.5 -69s40.5 -26 68.5 -26z" />
    <glyph glyph-name="Uhungarumlaut" unicode="&#x170;" horiz-adv-x="1565" 
d="M782 -21c-120 0 -225.167 19.998 -315.5 59.998s-160.333 98.667 -210 176s-74.5 171 -74.5 281v738l-152 31v191h627v-191l-153 -31v-738c0 -61.333 11 -112.166 33 -152.499s53.667 -70.333 95 -90s91 -29.5 149 -29.5c60 0 110.833 9.83301 152.5 29.5
s73.5 49.667 95.5 90s33 91.166 33 152.499v738l-152 31v191h627v-191l-153 -31v-738c0 -109.333 -25.333 -202.666 -76 -279.999s-121 -136.166 -211 -176.499s-195 -60.5 -315 -60.5zM772 1565l-2 5l239 268h292l1 -6l-291 -267h-239zM409 1565h-7l204 273h275l2 -5
l-240 -268h-234z" />
    <glyph glyph-name="uhungarumlaut" unicode="&#x171;" horiz-adv-x="1284" 
d="M513 -21c-113.333 0 -202.168 35.834 -266.501 107.501s-96.5 182.5 -96.5 332.5v441l-117 31v191h117h322v-665c0 -65.333 12.167 -113.333 36.5 -144s61.5 -46 111.5 -46c34.667 0 66.667 6.66699 96 20s54.333 32.666 75 57.999v555l-123 31v191h123h322v-861l133 -31
v-190h-414l-21 130c-34.667 -48.667 -77.167 -86 -127.5 -112s-107.166 -39 -170.499 -39zM625.998 1287l-2 5l239 268h292l1 -6l-291 -267h-239zM262.998 1287h-7l204 273h275l2 -5l-240 -268h-234z" />
    <glyph glyph-name="Uogonek" unicode="&#x172;" horiz-adv-x="1565" 
d="M782 -21c-120 0 -225.167 19.998 -315.5 59.998s-160.333 98.667 -210 176s-74.5 171 -74.5 281v738l-152 31v191h627v-191l-153 -31v-738c0 -61.333 11 -112.166 33 -152.499s53.667 -70.333 95 -90s91 -29.5 149 -29.5c60 0 110.833 9.83301 152.5 29.5
s73.5 49.667 95.5 90s33 91.166 33 152.499v738l-152 31v191h627v-191l-153 -31v-738c0 -109.333 -25.333 -202.666 -76 -279.999s-121 -136.166 -211 -176.499s-195 -60.5 -315 -60.5zM849 -421.002c-77.333 0 -140.333 19.3311 -189 57.998s-73 93 -73 163
c0 48 17.333 95.833 52 143.5s93.334 86.834 176.001 117.501l143 -61c-49.333 -28.667 -84.333 -55.667 -105 -81s-31 -52 -31 -80c0 -24 6.66699 -41.833 20 -53.5s34.666 -17.5 63.999 -17.5c15.333 0 29.333 1.33301 42 4s24.667 5.66699 36 9l36 -163
c-22.667 -11.333 -47.667 -20.666 -75 -27.999s-59.333 -11 -96 -11z" />
    <glyph glyph-name="uogonek" unicode="&#x173;" horiz-adv-x="1284" 
d="M513 -21c-113.333 0 -202.168 35.834 -266.501 107.501s-96.5 182.5 -96.5 332.5v441l-117 31v191h117h322v-665c0 -65.333 12.167 -113.333 36.5 -144s61.5 -46 111.5 -46c34.667 0 66.667 6.66699 96 20s54.333 32.666 75 57.999v555l-123 31v191h123h322v-861l133 -31
v-190h-414l-21 130c-34.667 -48.667 -77.167 -86 -127.5 -112s-107.166 -39 -170.499 -39zM1137 -420.999c-77.333 0 -140.333 19.3311 -189 57.998s-73 93 -73 163c0 48 17.333 95.833 52 143.5s93.334 86.834 176.001 117.501l143 -61
c-49.333 -28.667 -84.333 -55.667 -105 -81s-31 -52 -31 -80c0 -24 6.66699 -41.833 20 -53.5s34.666 -17.5 63.999 -17.5c15.333 0 29.333 1.33301 42 4s24.667 5.66699 36 9l36 -163c-22.667 -11.333 -47.667 -20.666 -75 -27.999s-59.333 -11 -96 -11z" />
    <glyph glyph-name="Wcircumflex" unicode="&#x174;" horiz-adv-x="2224" 
d="M516 0l-336 1250l-157 15v191h621v-191l-160 -23l165 -680l27 -111l6 -1l31 113l286 893h229l299 -926l28 -89h6l24 89l173 712l-166 23v191h610v-191l-148 -15l-346 -1250h-289l-263 802l-33 112h-6l-39 -117l-267 -797h-295zM734 1567v26l257 245h246l255 -249v-22
h-249l-130 143l-134 -143h-245z" />
    <glyph glyph-name="wcircumflex" unicode="&#x175;" horiz-adv-x="1821" 
d="M404 0l-242 863l-135 28v191h546v-190l-108 -22l86 -384l15 -69h6l22 69l217 596h206l213 -608l21 -67h6l19 67l108 395l-123 23v190h535v-191l-128 -27l-273 -864h-264l-192 500l-30 102h-6l-29 -102l-183 -500h-287zM532 1289v26l257 245h246l255 -249v-22h-249
l-130 143l-134 -143h-245z" />
    <glyph glyph-name="Ycircumflex" unicode="&#x176;" horiz-adv-x="1522" 
d="M447 0v190l153 31v269l-427 755l-146 20v191h605v-191l-104 -16l221 -433l22 -48h8l23 46l251 435l-155 16v191h593v-191l-148 -20l-423 -730v-294l154 -31v-190h-627zM383 1567v26l257 245h246l255 -249v-22h-249l-130 143l-134 -143h-245z" />
    <glyph glyph-name="ycircumflex" unicode="&#x177;" horiz-adv-x="1314" 
d="M379 -437c-27.333 0 -56.001 2.33301 -86.001 7s-59.333 11.334 -88 20.001l38 232c12.667 -2.66699 26 -4.83398 40 -6.50098s27 -2.5 39 -2.5c42.667 0 79.834 9.33301 111.501 28s53.167 46.667 64.5 84l17 53l-355 893l-139 20v191h612v-191l-133 -20l157 -458
l12 -33h6l186 494l-127 17v191h563v-191l-125 -17l-409 -1034c-19.333 -48.667 -44.833 -94.167 -76.5 -136.5s-72.5 -76.333 -122.5 -102s-111.667 -38.5 -185 -38.5zM282.999 1289v26l257 245h246l255 -249v-22h-249l-130 143l-134 -143h-245z" />
    <glyph glyph-name="Ydieresis" unicode="&#x178;" horiz-adv-x="1522" 
d="M447 0v190l153 31v269l-427 755l-146 20v191h605v-191l-104 -16l221 -433l22 -48h8l23 46l251 435l-155 16v191h593v-191l-148 -20l-423 -730v-294l154 -31v-190h-627zM840 1577v261h304v-261h-304zM380 1577v261h304v-261h-304z" />
    <glyph glyph-name="Zacute" unicode="&#x179;" horiz-adv-x="1235" 
d="M69 0v206l696 1003h-406l-24 -186h-243l15 433h1058v-198l-698 -1012h471l27 179h241l-23 -425h-1114zM424 1565l203 273h334l2 -6l-278 -267h-254h-7z" />
    <glyph glyph-name="zacute" unicode="&#x17a;" horiz-adv-x="1131" 
d="M88 0v182l555 680h-257l-36 -186h-234v406h910v-204l-512 -650h258l49 204h223v-432h-956zM374 1287l203 273h334l2 -6l-278 -267h-254h-7z" />
    <glyph glyph-name="Zdotaccent" unicode="&#x17b;" horiz-adv-x="1235" 
d="M69 0v206l696 1003h-406l-24 -186h-243l15 433h1058v-198l-698 -1012h471l27 179h241l-23 -425h-1114zM449 1577v261h332v-261h-332z" />
    <glyph glyph-name="zdotaccent" unicode="&#x17c;" horiz-adv-x="1131" 
d="M88 0v182l555 680h-257l-36 -186h-234v406h910v-204l-512 -650h258l49 204h223v-432h-956zM399 1299v261h332v-261h-332z" />
    <glyph glyph-name="Zcaron" unicode="&#x17d;" horiz-adv-x="1235" 
d="M69 0v206l696 1003h-406l-24 -186h-243l15 433h1058v-198l-698 -1012h471l27 179h241l-23 -425h-1114zM994 1838v-26l-258 -245h-246l-254 248v23h249l129 -143l135 143h245z" />
    <glyph glyph-name="zcaron" unicode="&#x17e;" horiz-adv-x="1131" 
d="M88 0v182l555 680h-257l-36 -186h-234v406h910v-204l-512 -650h258l49 204h223v-432h-956zM944 1560v-26l-258 -245h-246l-254 248v23h249l129 -143l135 143h245z" />
    <glyph glyph-name="longs" unicode="&#x17f;" horiz-adv-x="759" 
d="M40 0l-0.00195312 190.001l133 31v975c0 123.333 36.667 218.333 110 285s174 100 302 100c29.333 0 58.333 -1.83301 87 -5.5s56.334 -8.83398 83.001 -15.501l-23 -237c-18.667 4 -35.667 7 -51 9s-30.666 3 -45.999 3c-45.333 0 -80 -12.167 -104 -36.5
s-36 -58.5 -36 -102.5v-975l152 -31v-190h-607z" />
    <glyph glyph-name="uni018F" unicode="&#x18f;" horiz-adv-x="1400" 
d="M699 -21c-135.333 0 -250.165 27.5 -344.498 82.5s-166 133.833 -215 236.5s-73.5 225 -73.5 367v163h930l4 14c2 69.333 -10.333 131.666 -37 186.999s-68.834 99 -126.501 131s-132.834 48 -225.501 48c-80 0 -152.667 -6 -218 -18s-123.666 -26.333 -174.999 -43
l-49 253c38 16.667 95.167 33.667 171.5 51s166.5 26 270.5 26c154.667 0 285.167 -27.667 391.5 -83s187 -133.166 242 -233.499s82.5 -218.5 82.5 -354.5v-161c0 -130 -27.667 -245.167 -83 -345.5s-130.333 -179 -225 -236s-201.334 -85.167 -320.001 -84.5zM699.001 247
c60 0 111.332 14.001 153.999 42.001s76.334 66.5 101.001 115.5s38.667 106.167 42 171.5l-2 5h-607v-31c0 -60.667 11 -113.834 33 -159.501s56 -81 102 -106s105 -37.5 177 -37.5z" />
    <glyph glyph-name="florin" unicode="&#x192;" horiz-adv-x="807" 
d="M121 -437c-22 0 -44.499 1.16602 -67.499 3.49902s-48.833 6.5 -77.5 12.5l15 243c16 -3.33301 32.167 -6.33301 48.5 -9s31.5 -4 45.5 -4c40 0 70.333 14.5 91 43.5s31 69.833 31 122.5v883h-157v224h157v114c0 123.333 37.333 218.333 112 285s175.667 100 303 100
c28 0 55.167 -1.66699 81.5 -5s55.5 -8.66602 87.5 -15.999l-26 -238c-15.333 3.33301 -31 5.83301 -47 7.5s-32.333 2.5 -49 2.5c-45.333 0 -80 -11.667 -104 -35s-36 -57 -36 -101v-114h211v-224h-211v-883c0 -131.333 -35.333 -232.833 -106 -304.5
s-171.334 -107.5 -302.001 -107.5z" />
    <glyph glyph-name="Ohorn" unicode="&#x1a0;" horiz-adv-x="1476" 
d="M738 -21c-99.333 0 -190.169 18.333 -272.502 55s-153.666 88.334 -213.999 155.001s-106.666 144.834 -138.999 234.501s-48.5 187.5 -48.5 293.5v23c0 105.333 16.167 202.666 48.5 291.999s78.5 167.333 138.5 234s131 118.5 213 155.5s172.667 55.5 272 55.5
s190.333 -18.5 273 -55.5s154.667 -88.833 216 -155.5s108.833 -144.667 142.5 -234s50.5 -186.666 50.5 -291.999v-23c0 -106 -16.833 -203.833 -50.5 -293.5s-81 -167.834 -142 -234.501s-133 -118.334 -216 -155.001s-173.5 -55 -271.5 -55zM737.997 225
c78 0 143.668 20.499 197.001 61.499s93.833 98.333 121.5 172s41.5 159.834 41.5 258.501v25c0 96.667 -14 181.5 -42 254.5s-68.667 130.167 -122 171.5s-119.333 62 -198 62c-79.333 0 -145 -20.333 -197 -61s-90.667 -97.5 -116 -170.5s-38 -158.5 -38 -256.5v-25
c0 -98 12.833 -184 38.5 -258s64.667 -131.5 117 -172.5s118.166 -61.5 197.499 -61.5zM1091 1139l0.000976562 166.001c58 0 97 20.667 117 62s30 106.666 30 195.999h249c0 -92 -14.833 -169.667 -44.5 -233s-73.834 -111 -132.501 -143s-131.667 -48 -219 -48z" />
    <glyph glyph-name="ohorn" unicode="&#x1a1;" horiz-adv-x="1214" 
d="M584 -21c-109.333 0 -202.832 23.1689 -280.499 69.502s-137.167 111 -178.5 194s-62 179.167 -62 288.5v20c0 108 20.667 203.333 62 286s100.666 147.5 177.999 194.5s170.333 70.5 279 70.5c109.333 0 202.5 -23.333 279.5 -70s136.167 -111.334 177.5 -194.001
s62 -178.334 62 -287.001v-20c0 -108.667 -20.667 -204.5 -62 -287.5s-100.5 -147.833 -177.5 -194.5s-169.5 -70 -277.5 -70zM584.001 224.002c46.667 0 84.332 12.667 112.999 38s49.834 61 63.501 107s20.5 100 20.5 162v20c0 60.667 -6.83301 113.834 -20.5 159.501
s-35 81.334 -64 107.001s-67.167 38.5 -114.5 38.5c-46.667 0 -84.5 -12.833 -113.5 -38.5s-50.167 -61.334 -63.5 -107.001s-20 -98.834 -20 -159.501v-20c0 -62.667 6.66699 -117 20 -163s34.5 -81.5 63.5 -106.5s67.5 -37.5 115.5 -37.5zM857.999 799.002v147
c37.333 0 66 10.167 86 30.5s34 48 42 83s12 75.167 12 120.5h211c0 -74 -11.833 -139.667 -35.5 -197s-61.167 -102.333 -112.5 -135s-119 -49 -203 -49z" />
    <glyph glyph-name="Uhorn" unicode="&#x1af;" horiz-adv-x="1789" 
d="M778 -21c-118.667 0 -222.833 20.168 -312.5 60.501s-159.334 99.166 -209.001 176.499s-74.5 170.666 -74.5 279.999v738l-152 31v191h627v-191l-152 -31v-738c0 -60.667 10.833 -111.167 32.5 -151.5s52.834 -70.5 93.501 -90.5s89.667 -30 147 -30
s106.333 9.83301 147 29.5s71.667 49.667 93 90s32 91.166 32 152.499v738l-153 31v191h476v-960c0 -109.333 -25 -202.666 -75 -279.999s-119.667 -136.166 -209 -176.499s-193 -60.5 -311 -60.5zM1347 995.001l6 197c70 -2 115 19 135 63s30 117.333 30 220h253v-5
c2 -156 -28.5 -273.333 -91.5 -352s-173.833 -119.667 -332.5 -123z" />
    <glyph glyph-name="uhorn" unicode="&#x1b0;" horiz-adv-x="1406" 
d="M513 -21c-113.333 0 -202.168 35.834 -266.501 107.501s-96.5 182.5 -96.5 332.5v441l-117 31v191h117h322v-665c0 -65.333 12.167 -113.333 36.5 -144s61.5 -46 111.5 -46c34.667 0 66.667 6.66699 96 20s54.333 32.666 75 57.999v555l-123 31v191h123h322v-861l133 -31
v-190h-414l-21 130c-34.667 -48.667 -77.167 -86 -127.5 -112s-107.166 -39 -170.499 -39zM1064 799.001v147c37.333 0 66 10.167 86 30.5s34 48 42 83s12 75.167 12 120.5h211c0 -74 -11.833 -139.667 -35.5 -197s-61.167 -102.333 -112.5 -135s-119 -49 -203 -49z" />
    <glyph glyph-name="uni01F0" unicode="&#x1f0;" horiz-adv-x="624" 
d="M121 -437c-29.333 0 -56 1.16699 -80 3.5s-48.667 6.5 -74 12.5l15 243c16 -3.33301 31.333 -6.33301 46 -9s31.667 -4 51 -4c38 0 67.5 14.5 88.5 43.5s31.5 69.833 31.5 122.5v885l-155 31v191h474v-1107c0 -132 -34.833 -233.667 -104.5 -305
s-167.167 -107 -292.5 -107zM729 1560v-26l-258 -245h-246l-254 248v23h249l129 -143l135 143h245z" />
    <glyph glyph-name="Aringacute" unicode="&#x1fa;" horiz-adv-x="1506" 
d="M32 0v190l103 15l449 1251h339l448 -1251l103 -15v-190h-520v190l98 18l-54 179h-490l-53 -179l97 -18v-190h-520zM579 618h346l-155 470l-16 47h-6l-16 -52zM756 1333c-69.333 0 -126.833 20.167 -172.5 60.5s-68.5 91.833 -68.5 154.5c0 62 23.167 114.167 69.5 156.5
s103.5 63.5 171.5 63.5c67.333 0 123.666 -21.167 168.999 -63.5s68 -94.5 68 -156.5c0 -62.667 -22.667 -114.167 -68 -154.5s-101.666 -60.5 -168.999 -60.5zM756 1458c26.667 0 48 8.33301 64 25s24 38.334 24 65.001c0 28 -7.66699 50.333 -23 67s-37 25 -65 25
c-26.667 0 -48.834 -8.33301 -66.501 -25s-26.5 -39 -26.5 -67c0 -26.667 8.83301 -48.334 26.5 -65.001s39.834 -25 66.501 -25zM648 1822l127 206h270l2 -6l-206 -200h-186h-7z" />
    <glyph glyph-name="aringacute" unicode="&#x1fb;" horiz-adv-x="1160" 
d="M426 -21c-106.667 0 -192.168 29.3291 -256.501 87.9961s-96.5 137.334 -96.5 236.001c0 67.333 18.167 127 54.5 179s90.833 92.667 163.5 122s163 44 271 44h129v72c0 47.333 -13.833 86.833 -41.5 118.5s-69.834 47.5 -126.501 47.5
c-27.333 0 -52.166 -3.5 -74.499 -10.5s-42.5 -16.5 -60.5 -28.5l-23 -140h-229l-4 290c58.667 30 121.334 55 188.001 75s141 30 223 30c144 0 258.167 -33.333 342.5 -100s126.5 -162 126.5 -286v-422c0 -15.333 0.166992 -30.166 0.5 -44.499
s1.83301 -28.166 4.5 -41.499l114 -18v-190h-385c-8 15.333 -16.5 33.333 -25.5 54s-15.167 41.334 -18.5 62.001c-33.333 -42 -72 -75.333 -116 -100s-97.333 -37 -160 -37zM517.999 210.996c33.333 0 65.5 7.16797 96.5 21.501s56.5 34.166 76.5 59.499v164h-127
c-55.333 0 -97.833 -12.5 -127.5 -37.5s-44.5 -56.5 -44.5 -94.5c0 -35.333 11.5 -63 34.5 -83s53.5 -30 91.5 -30zM552.999 1039c-69.333 0 -126.833 20.167 -172.5 60.5s-68.5 92.166 -68.5 155.499c0 61.333 23.167 113.333 69.5 156s103.5 64 171.5 64
c67.333 0 123.666 -21.167 168.999 -63.5s68 -94.5 68 -156.5c0 -63.333 -22.667 -115.166 -68 -155.499s-101.666 -60.5 -168.999 -60.5zM552.999 1165c26.667 0 48 8.16895 64 24.502s24 38.166 24 65.499s-7.66699 49.333 -23 66s-37 25 -65 25
c-26.667 0 -48.834 -8.33301 -66.501 -25s-26.5 -38.667 -26.5 -66c0 -26.667 8.83301 -48.334 26.5 -65.001s39.834 -25 66.501 -25zM444.999 1529l127 206h270l2 -6l-206 -200h-186h-7z" />
    <glyph glyph-name="AEacute" unicode="&#x1fc;" horiz-adv-x="2091" 
d="M70 0v190l139 20l672 1246h1056v-383h-241l-11 133h-339l15 -335h493v-250h-483l16 -372h361l11 133h240v-382h-1079v190l148 28l-6 137h-415l-76 -151l87 -14v-190h-588zM767 599h284l-22 505h-5l-11 -23zM959 1565l203 273h334l2 -6l-278 -267h-254h-7z" />
    <glyph glyph-name="aeacute" unicode="&#x1fd;" horiz-adv-x="1715" 
d="M452 -21c-118.667 0 -211.503 29.3311 -278.503 87.998s-100.5 137.667 -100.5 237c0 68 18.167 127.833 54.5 179.5s90.833 92.167 163.5 121.5s163 44 271 44h129v71c0 47.333 -13.833 86.833 -41.5 118.5s-69.834 47.5 -126.501 47.5
c-27.333 0 -52.166 -3.5 -74.499 -10.5s-42.5 -16.5 -60.5 -28.5l-23 -140h-229l-4 290c58.667 30 121.334 55 188.001 75s141 30 223 30c70.667 0 134 -10.667 190 -32s102.333 -53.666 139 -96.999c28 29.333 58.333 53.5 91 72.5s67.834 33.167 105.501 42.5
s77.834 14 120.501 14c94 0 175.167 -20 243.5 -60s120.833 -96.667 157.5 -170s55 -160 55 -260v-170h-632l-2 -7c4 -64.667 25.167 -116 63.5 -154s96.833 -57 175.5 -57c56.667 0 105 6.16699 145 18.5s86 30.833 138 55.5l80 -199c-43.333 -32 -102 -60 -176 -84
s-151.667 -36 -233 -36c-162.667 0 -288.667 50 -378 150c-48 -47.333 -102.333 -84.166 -163 -110.499s-131 -39.5 -211 -39.5zM518.997 210.998c24 0 48 3.83301 72 11.5s46.5 18.667 67.5 33s38.5 31.5 52.5 51.5c-7.33301 23.333 -12.5 47.333 -15.5 72
s-4.5 47.334 -4.5 68.001v9h-127c-55.333 0 -97.833 -12.333 -127.5 -37s-44.5 -56 -44.5 -94c0 -34.667 11.5 -62.334 34.5 -83.001s53.833 -31 92.5 -31zM1014 644.998l318 -0.00195312v28c0 56.667 -13.667 101.334 -41 134.001s-65 49 -113 49
c-32 0 -60 -8.33301 -84 -25s-43 -40.167 -57 -70.5s-22.333 -67.166 -25 -110.499zM676.997 1287l203 273h334l2 -6l-278 -267h-254h-7z" />
    <glyph glyph-name="Oslashacute" unicode="&#x1fe;" horiz-adv-x="1476" 
d="M738 -21c-99.333 0 -190.169 18.333 -272.502 55s-153.666 88.334 -213.999 155.001s-106.666 144.834 -138.999 234.501s-48.5 187.5 -48.5 293.5v23c0 105.333 16.167 202.666 48.5 291.999s78.5 167.333 138.5 234s131 118.5 213 155.5s172.667 55.5 272 55.5
s190.333 -18.5 273 -55.5s154.667 -88.833 216 -155.5s108.833 -144.667 142.5 -234s50.5 -186.666 50.5 -291.999v-23c0 -106 -16.833 -203.833 -50.5 -293.5s-81 -167.834 -142 -234.501s-133 -118.334 -216 -155.001s-173.5 -55 -271.5 -55zM737.997 225
c78 0 143.668 20.499 197.001 61.499s93.833 98.333 121.5 172s41.5 159.834 41.5 258.501v25c0 96.667 -14 181.5 -42 254.5s-68.667 130.167 -122 171.5s-119.333 62 -198 62c-79.333 0 -145 -20.333 -197 -61s-90.667 -97.5 -116 -170.5s-38 -158.5 -38 -256.5v-25
c0 -98 12.833 -184 38.5 -258s64.667 -131.5 117 -172.5s118.166 -61.5 197.499 -61.5zM175.998 -83.001l935 1615h188l-935 -1615h-188zM546.998 1565l203 273h334l2 -6l-278 -267h-254h-7z" />
    <glyph glyph-name="oslashacute" unicode="&#x1ff;" horiz-adv-x="1164" 
d="M584 -21c-109.333 0 -202.832 23.1689 -280.499 69.502s-137.167 111 -178.5 194s-62 179.167 -62 288.5v20c0 108 20.667 203.333 62 286s100.666 147.5 177.999 194.5s170.333 70.5 279 70.5c109.333 0 202.5 -23.333 279.5 -70s136.167 -111.334 177.5 -194.001
s62 -178.334 62 -287.001v-20c0 -108.667 -20.667 -204.5 -62 -287.5s-100.5 -147.833 -177.5 -194.5s-169.5 -70 -277.5 -70zM584.001 224.002c46.667 0 84.332 12.667 112.999 38s49.834 61 63.501 107s20.5 100 20.5 162v20c0 60.667 -6.83301 113.834 -20.5 159.501
s-35 81.334 -64 107.001s-67.167 38.5 -114.5 38.5c-46.667 0 -84.5 -12.833 -113.5 -38.5s-50.167 -61.334 -63.5 -107.001s-20 -98.834 -20 -159.501v-20c0 -62.667 6.66699 -117 20 -163s34.5 -81.5 63.5 -106.5s67.5 -37.5 115.5 -37.5zM164.999 -138.998l663 1360h172
l-662 -1360h-173zM391.999 1287l203 273h334l2 -6l-278 -267h-254h-7z" />
    <glyph glyph-name="uni0218" unicode="&#x218;" horiz-adv-x="1259" 
d="M663 -21c-112.667 0 -213.998 11.6689 -303.998 35.002s-179 65.333 -267 126v366h248l31 -201c25.333 -24.667 64.666 -45 117.999 -61s111.333 -24 174 -24c49.333 0 90.5 6.33301 123.5 19s58 31.167 75 55.5s25.5 53.166 25.5 86.499c0 32 -7.83301 60.333 -23.5 85
s-41.334 47.667 -77.001 69s-83.834 42.666 -144.501 63.999c-120 36.667 -219 75.5 -297 116.5s-136.167 89.667 -174.5 146s-57.5 125.166 -57.5 206.499c0 80 22.5 150.167 67.5 210.5s107 107.833 186 142.5s169.5 52.667 271.5 54
c116 2.66699 218.333 -9.66602 307 -36.999s166.334 -66.666 233.001 -117.999v-340h-240l-39 198c-24 13.333 -57.333 25.333 -100 36s-89.334 16 -140.001 16c-44 0 -82.833 -6.16699 -116.5 -18.5s-60.167 -30.5 -79.5 -54.5s-29 -53.667 -29 -89
c0 -28.667 8.16699 -54.334 24.5 -77.001s44.833 -44.5 85.5 -65.5s97 -44.167 169 -69.5c162.667 -46.667 286.334 -106.667 371.001 -180s127 -171 127 -293c0 -84.667 -23 -157.167 -69 -217.5s-110 -106.5 -192 -138.5s-177.667 -48 -287 -48zM592.002 -530.998
l-150 94.999c20.667 32 36.5 64.333 47.5 97s16.5 74 16.5 124v96h266v-79c0 -64 -17.5 -125.667 -52.5 -185s-77.5 -108.666 -127.5 -147.999z" />
    <glyph glyph-name="uni0219" unicode="&#x219;" horiz-adv-x="1037" 
d="M531 -21c-82.667 0 -159.833 7.66992 -231.5 23.0029s-138.167 37 -199.5 65l-4 322h220l39 -157c18.667 -9.33301 40.334 -17.333 65.001 -24s53.334 -10 86.001 -10c60.667 0 103 9.16699 127 27.5s36 41.166 36 68.499c0 26.667 -13.167 50.5 -39.5 71.5
s-80.5 39.5 -162.5 55.5c-127.333 25.333 -221.166 67 -281.499 125s-90.5 131.333 -90.5 220c0 60 14.5 115.167 43.5 165.5s75.167 91 138.5 122s145.666 46.5 246.999 46.5c81.333 0 157.5 -7.5 228.5 -22.5s129.833 -34.167 176.5 -57.5l1 -311h-220l-30 141
c-16.667 12 -35.834 21 -57.501 27s-46.167 9 -73.5 9c-48 0 -84 -9.16699 -108 -27.5s-36 -41.833 -36 -70.5c0 -16.667 4.66699 -32.834 14 -48.501s27.666 -30.334 54.999 -44.001s67.666 -26.5 120.999 -38.5c128.667 -28.667 223.834 -67.834 285.501 -117.501
s92.5 -122.5 92.5 -218.5c0 -103.333 -37.333 -186.166 -112 -248.499s-184.667 -93.5 -330 -93.5zM481.001 -530.997l-150 94.999c20.667 32 36.5 64.333 47.5 97s16.5 74 16.5 124v96h266v-79c0 -64 -17.5 -125.667 -52.5 -185s-77.5 -108.666 -127.5 -147.999z" />
    <glyph glyph-name="uni021A" unicode="&#x21a;" horiz-adv-x="1384" 
d="M376 0v190l154 31v987h-245l-13 -166h-242v414h1325v-414h-244l-13 166h-246v-987l154 -31v-190h-630zM655 -531l-150 94.999c20.667 32 36.5 64.333 47.5 97s16.5 74 16.5 124v96h266v-79c0 -64 -17.5 -125.667 -52.5 -185s-77.5 -108.666 -127.5 -147.999z" />
    <glyph glyph-name="uni021B" unicode="&#x21b;" horiz-adv-x="736" 
d="M498 -22c-106.667 0 -188.333 28.832 -245 86.499s-85 149.5 -85 275.5v518h-142v224h142v266h319v-266h189v-224h-189v-518c0 -38 8.5 -65 25.5 -81s40.167 -24 69.5 -24c14 0 28.667 0.833008 44 2.5s29.333 3.83398 42 6.50098l25 -237
c-30.667 -8.66699 -62.5 -15.667 -95.5 -21s-66.167 -8 -99.5 -8zM323.001 -531.001l-150 94.999c20.667 32 36.5 64.333 47.5 97s16.5 74 16.5 124v96h266v-79c0 -64 -17.5 -125.667 -52.5 -185s-77.5 -108.666 -127.5 -147.999z" />
    <glyph glyph-name="uni0237" unicode="&#x237;" horiz-adv-x="624" 
d="M121 -437c-29.333 0 -56 1.16699 -80 3.5s-48.667 6.5 -74 12.5l15 243c16 -3.33301 31.333 -6.33301 46 -9s31.667 -4 51 -4c38 0 67.5 14.5 88.5 43.5s31.5 69.833 31.5 122.5v885l-155 31v191h474v-1107c0 -132 -34.833 -233.667 -104.5 -305
s-167.167 -107 -292.5 -107z" />
    <glyph glyph-name="uni0259" unicode="&#x259;" horiz-adv-x="1120" 
d="M556 -19c-98 0 -181.834 19.832 -251.501 59.499s-123.167 96.167 -160.5 169.5s-56 160 -56 260v170h631v4v3c-4 40.667 -15.833 76.834 -35.5 108.501s-46.5 56.667 -80.5 75s-75 27.5 -123 27.5c-50.667 0 -98.167 -5.83301 -142.5 -17.5
s-93.166 -30.5 -146.499 -56.5l-81 197c46 34 105.833 63.167 179.5 87.5s154.167 36.5 241.5 36.5c105.333 0 196.833 -23 274.5 -69s138 -109 181 -189s64.5 -170.667 64.5 -272v-38c0 -109.333 -19.667 -205.833 -59 -289.5s-95.833 -149 -169.5 -196
s-162.5 -70.5 -266.5 -70.5zM552.999 225.999c34.667 0 63.501 8.33301 86.501 25s41 40.5 54 71.5s21.833 67.167 26.5 108.5l-4 5h-313v-27c0 -38 5.5 -70.667 16.5 -98s27.667 -48.333 50 -63s50.166 -22 83.499 -22z" />
    <glyph glyph-name="uni02BC" unicode="&#x2bc;" horiz-adv-x="488" 
d="M218 974l-153.998 80c24 46 42.667 93.833 56 143.5s20 106.5 20 170.5v192h260v-193c0 -44.667 -8.33301 -91.5 -25 -140.5s-38.834 -95.667 -66.501 -140s-57.834 -81.833 -90.501 -112.5z" />
    <glyph glyph-name="circumflex" unicode="&#x2c6;" horiz-adv-x="838" 
d="M40 1289v26l257 245h246l255 -249v-22h-249l-130 143l-134 -143h-245z" />
    <glyph glyph-name="caron" unicode="&#x2c7;" horiz-adv-x="838" 
d="M798 1560v-26l-258 -245h-246l-254 248v23h249l129 -143l135 143h245z" />
    <glyph glyph-name="uni02C9" unicode="&#x2c9;" horiz-adv-x="814" 
d="M40 1300v185h734v-185h-734z" />
    <glyph glyph-name="breve" unicode="&#x2d8;" horiz-adv-x="796" 
d="M399 1261c-111.333 0 -200 27.334 -266 82.001s-97 125 -93 211l2 6h213c0 -36 11.5 -66 34.5 -90s59.5 -36 109.5 -36c48 0 83.5 11.667 106.5 35s34.5 53.666 34.5 90.999h214l2 -6c2.66699 -86 -28.5 -156.333 -93.5 -211s-152.833 -82 -263.5 -82z" />
    <glyph glyph-name="dotaccent" unicode="&#x2d9;" horiz-adv-x="412" 
d="M40 1299v261h332v-261h-332z" />
    <glyph glyph-name="ring" unicode="&#x2da;" horiz-adv-x="562" 
d="M283 1229c-69.333 0 -127.168 20.667 -173.501 62s-69.5 94.333 -69.5 159c0 63.333 23.333 116.5 70 159.5s104.334 64.5 173.001 64.5c67.333 0 124 -21.667 170 -65s69 -96.333 69 -159c0 -64.667 -23 -117.667 -69 -159s-102.667 -62 -170 -62zM282.998 1355
c27.333 0 49.166 8.5 65.499 25.5s24.5 40.167 24.5 69.5c0 28.667 -8.16699 51.834 -24.5 69.501s-38.166 26.5 -65.499 26.5s-50 -8.83301 -68 -26.5s-27 -40.834 -27 -69.501s8.83301 -51.667 26.5 -69s40.5 -26 68.5 -26z" />
    <glyph glyph-name="ogonek" unicode="&#x2db;" horiz-adv-x="466" 
d="M302 -421c-77.333 0 -140.333 19.3311 -189 57.998s-73 93 -73 163c0 48 17.333 95.833 52 143.5s93.334 86.834 176.001 117.501l143 -61c-49.333 -28.667 -84.333 -55.667 -105 -81s-31 -52 -31 -80c0 -24 6.66699 -41.833 20 -53.5s34.666 -17.5 63.999 -17.5
c15.333 0 29.333 1.33301 42 4s24.667 5.66699 36 9l36 -163c-22.667 -11.333 -47.667 -20.666 -75 -27.999s-59.333 -11 -96 -11z" />
    <glyph glyph-name="tilde" unicode="&#x2dc;" horiz-adv-x="847" 
d="M205 1277l-165 44c0 46 11 88.5 33 127.5s50.833 70.167 86.5 93.5s73.834 35 114.501 35c33.333 0 67.333 -7.83301 102 -23.5s67.667 -31.5 99 -47.5s58.333 -24.333 81 -25c27.333 1.33301 48.5 12 63.5 32s22.5 45.667 22.5 77l165 -47
c0 -47.333 -10.833 -90.333 -32.5 -129s-50.334 -69.5 -86.001 -92.5s-74.5 -34.5 -116.5 -34.5c-35.333 0 -70.5 8 -105.5 24s-67.5 32.167 -97.5 48.5s-56.333 24.5 -79 24.5c-27.333 0 -48.333 -10.667 -63 -32s-22 -46.333 -22 -75z" />
    <glyph glyph-name="hungarumlaut" unicode="&#x2dd;" horiz-adv-x="966" 
d="M410 1287l-2 5l239 268h292l1 -6l-291 -267h-239zM47 1287h-7l204 273h275l2 -5l-240 -268h-234z" />
    <glyph glyph-name="uni02F3" unicode="&#x2f3;" horiz-adv-x="558" 
d="M281 -526c-69.333 0 -127.168 20.667 -173.501 62s-69.5 94.333 -69.5 159c0 63.333 23.333 116.5 70 159.5s104.334 64.5 173.001 64.5c67.333 0 124 -21.667 170 -65s69 -96.333 69 -159c0 -64.667 -23 -117.667 -69 -159s-102.667 -62 -170 -62zM280.998 -401
c27.333 0 49.166 8.66895 65.499 26.002s24.5 40.666 24.5 69.999c0 28.667 -8.16699 51.834 -24.5 69.501s-38.166 26.5 -65.499 26.5s-50 -8.83301 -68 -26.5s-27 -40.834 -27 -69.501s8.83301 -51.834 26.5 -69.501s40.5 -26.5 68.5 -26.5z" />
    <glyph glyph-name="gravecomb" unicode="&#x300;" 
d="M579 1287h-7h-254l-278 267l2 6h333z" />
    <glyph glyph-name="acutecomb" unicode="&#x301;" 
d="M40 1287l203 273h334l2 -6l-278 -267h-254h-7z" />
    <glyph glyph-name="uni0302" unicode="&#x302;" 
d="M40 1289v26l257 245h246l255 -249v-22h-249l-130 143l-134 -143h-245z" />
    <glyph glyph-name="tildecomb" unicode="&#x303;" 
d="M205 1277l-165 44c0 46 11 88.5 33 127.5s50.833 70.167 86.5 93.5s73.834 35 114.501 35c33.333 0 67.333 -7.83301 102 -23.5s67.667 -31.5 99 -47.5s58.333 -24.333 81 -25c27.333 1.33301 48.5 12 63.5 32s22.5 45.667 22.5 77l165 -47
c0 -47.333 -10.833 -90.333 -32.5 -129s-50.334 -69.5 -86.001 -92.5s-74.5 -34.5 -116.5 -34.5c-35.333 0 -70.5 8 -105.5 24s-67.5 32.167 -97.5 48.5s-56.333 24.5 -79 24.5c-27.333 0 -48.333 -10.667 -63 -32s-22 -46.333 -22 -75z" />
    <glyph glyph-name="uni0304" unicode="&#x304;" 
d="M40 1300v185h734v-185h-734z" />
    <glyph glyph-name="uni0306" unicode="&#x306;" 
d="M399 1261c-111.333 0 -200 27.334 -266 82.001s-97 125 -93 211l2 6h213c0 -36 11.5 -66 34.5 -90s59.5 -36 109.5 -36c48 0 83.5 11.667 106.5 35s34.5 53.666 34.5 90.999h214l2 -6c2.66699 -86 -28.5 -156.333 -93.5 -211s-152.833 -82 -263.5 -82z" />
    <glyph glyph-name="uni0307" unicode="&#x307;" 
d="M40 1299v261h332v-261h-332z" />
    <glyph glyph-name="uni0308" unicode="&#x308;" 
d="M500 1299v261h304v-261h-304zM40 1299v261h304v-261h-304z" />
    <glyph glyph-name="hookabovecomb" unicode="&#x309;" 
d="M63 1255l-20 130.999c48 1.33301 82.667 7 104 17s32 25.333 32 46c0 24 -12 41 -36 51s-57.667 15 -101 15l7 140c131.333 0 231.833 -17.167 301.5 -51.5s104.5 -82.166 104.5 -143.499c0 -42 -14.5 -74.833 -43.5 -98.5s-64.167 -38.5 -105.5 -44.5l-1 -62h-242z" />
    <glyph glyph-name="uni030A" unicode="&#x30a;" 
d="M283 1229c-69.333 0 -127.168 20.667 -173.501 62s-69.5 94.333 -69.5 159c0 63.333 23.333 116.5 70 159.5s104.334 64.5 173.001 64.5c67.333 0 124 -21.667 170 -65s69 -96.333 69 -159c0 -64.667 -23 -117.667 -69 -159s-102.667 -62 -170 -62zM282.998 1355
c27.333 0 49.166 8.5 65.499 25.5s24.5 40.167 24.5 69.5c0 28.667 -8.16699 51.834 -24.5 69.501s-38.166 26.5 -65.499 26.5s-50 -8.83301 -68 -26.5s-27 -40.834 -27 -69.501s8.83301 -51.667 26.5 -69s40.5 -26 68.5 -26z" />
    <glyph glyph-name="uni030B" unicode="&#x30b;" 
d="M410 1287l-2 5l239 268h292l1 -6l-291 -267h-239zM47 1287h-7l204 273h275l2 -5l-240 -268h-234z" />
    <glyph glyph-name="uni030C" unicode="&#x30c;" 
d="M798 1560v-26l-258 -245h-246l-254 248v23h249l129 -143l135 143h245z" />
    <glyph glyph-name="uni030F" unicode="&#x30f;" 
d="M571 1287h-240l-291 267l1 6h292l240 -268zM933 1287h-234l-240 268l2 5h275l204 -273h-7z" />
    <glyph glyph-name="uni0312" unicode="&#x312;" 
d="M220 1684l150.001 -93.999c-20.667 -32.667 -36.334 -65.334 -47.001 -98.001s-16 -74 -16 -124v-96h-267v79c0 64.667 17.5 126.5 52.5 185.5s77.5 108.167 127.5 147.5z" />
    <glyph glyph-name="uni031B" unicode="&#x31b;" 
d="M40 799v147c37.333 0 66 10.167 86 30.5s34 48 42 83s12 75.167 12 120.5h211c0 -74 -11.833 -139.667 -35.5 -197s-61.167 -102.333 -112.5 -135s-119 -49 -203 -49z" />
    <glyph glyph-name="dotbelowcomb" unicode="&#x323;" 
d="M40 -413v262h332v-262h-332z" />
    <glyph glyph-name="uni0325" unicode="&#x325;" 
d="M283 -526c-69.333 0 -127.168 20.667 -173.501 62s-69.5 94.333 -69.5 159c0 63.333 23.333 116.5 70 159.5s104.334 64.5 173.001 64.5c67.333 0 124 -21.667 170 -65s69 -96.333 69 -159c0 -64.667 -23 -117.667 -69 -159s-102.667 -62 -170 -62zM282.998 -401
c27.333 0 49.166 8.66895 65.499 26.002s24.5 40.666 24.5 69.999c0 28.667 -8.16699 51.834 -24.5 69.501s-38.166 26.5 -65.499 26.5s-50 -8.83301 -68 -26.5s-27 -40.834 -27 -69.501s8.83301 -51.834 26.5 -69.501s40.5 -26.5 68.5 -26.5z" />
    <glyph glyph-name="uni0326.1" unicode="&#x326;" 
d="M190 -531l-150 94.999c20.667 32 36.5 64.333 47.5 97s16.5 74 16.5 124v96h266v-79c0 -64 -17.5 -125.667 -52.5 -185s-77.5 -108.666 -127.5 -147.999z" />
    <glyph glyph-name="uni0327" unicode="&#x327;" 
d="M67 -467l-7 175.998c37.333 0 66.833 6 88.5 18s32.5 31 32.5 57c0 27.333 -11.5 46.5 -34.5 57.5s-58.5 17.5 -106.5 19.5l32 153h239l-12 -69c44.667 -7.33301 82.167 -24.166 112.5 -50.499s45.5 -65.166 45.5 -116.499c0 -74 -34 -133.333 -102 -178
s-164 -67 -288 -67z" />
    <glyph glyph-name="uni0328" unicode="&#x328;" 
d="M302 -421c-77.333 0 -140.333 19.3311 -189 57.998s-73 93 -73 163c0 48 17.333 95.833 52 143.5s93.334 86.834 176.001 117.501l143 -61c-49.333 -28.667 -84.333 -55.667 -105 -81s-31 -52 -31 -80c0 -24 6.66699 -41.833 20 -53.5s34.666 -17.5 63.999 -17.5
c15.333 0 29.333 1.33301 42 4s24.667 5.66699 36 9l36 -163c-22.667 -11.333 -47.667 -20.666 -75 -27.999s-59.333 -11 -96 -11z" />
    <glyph glyph-name="uni0335" unicode="&#x335;" 
d="M40 668v155h677v-155h-677z" />
    <glyph glyph-name="uni0336" unicode="&#x336;" 
d="M40 724v153h1506v-153h-1506z" />
    </font>
</defs>
</svg>
